IBM Plex Mono-Italic.ufo
<glyph name="exclam" format="2">
  <advance width="600"/>
  <unicode hex="0021"/>
  <outline>
    <contour>
      <point x="311" y="233" type="line" identifier="Kl1N53P9ZP"/>
      <point x="383" y="495" type="line" identifier="7FICAR9g7x"/>
      <point x="417" y="698" type="line" identifier="84UTDkKkK3"/>
      <point x="331" y="698" type="line" identifier="YrX3v2L6Dv"/>
      <point x="297" y="495" type="line" identifier="BniSQtdqye"/>
      <point x="280" y="233" type="line" identifier="nK2X03slLs"/>
    </contour>
    <contour>
      <point x="257" y="-9" type="curve" smooth="yes" identifier="5ijYGtSFdG"/>
      <point x="310" y="-9" identifier="RDJekrIZvW"/>
      <point x="332" y="14" identifier="hX07hnu1LA"/>
      <point x="338" y="50" type="curve" smooth="yes" identifier="nJEbq0lh9t"/>
      <point x="341" y="68" identifier="HgdIbxRFQP"/>
      <point x="342" y="77" identifier="yOFDuPrdVY"/>
      <point x="342" y="83" type="curve" smooth="yes" identifier="A5cxYIZ6jP"/>
      <point x="342" y="108" identifier="5AtDa3qby7"/>
      <point x="324" y="127" identifier="rswNTBPQGy"/>
      <point x="277" y="127" type="curve" smooth="yes" identifier="SPtmzNJufq"/>
      <point x="224" y="127" identifier="UXCCtZMvu1"/>
      <point x="202" y="104" identifier="zlQ4DwHhls"/>
      <point x="196" y="68" type="curve" smooth="yes" identifier="lYePbbnTHl"/>
      <point x="193" y="50" identifier="O9MOYqNsmD"/>
      <point x="192" y="41" identifier="dkUXMSCwQG"/>
      <point x="192" y="35" type="curve" smooth="yes" identifier="CruKftq64V"/>
      <point x="192" y="10" identifier="vqQ5KXmDYM"/>
      <point x="210" y="-9" identifier="Is6vr1uXsG"/>
    </contour>
  </outline>
</glyph>
<glyph name="numbersign" format="2">
  <advance width="600"/>
  <unicode hex="0023"/>
  <outline>
    <contour>
      <point x="68" y="0" type="line" identifier="8Y4QSyVapy"/>
      <point x="141" y="0" type="line" identifier="B31Iizojzl"/>
      <point x="379" y="698" type="line" identifier="IHxrBz3uv4"/>
      <point x="306" y="698" type="line" identifier="yTVXZ7sBMu"/>
      <point x="232" y="481" type="line" identifier="stYg4nkKRs"/>
      <point x="92" y="481" type="line" identifier="4RJKcCb4LM"/>
      <point x="81" y="417" type="line" identifier="JrZ0oH3RSf"/>
      <point x="210" y="417" type="line" identifier="Dl21enZfDv"/>
      <point x="164" y="281" type="line" identifier="8SmQGp2ouu"/>
      <point x="23" y="281" type="line" identifier="STxq9nCxUI"/>
      <point x="12" y="217" type="line" identifier="sFm0LFE7bv"/>
      <point x="142" y="217" type="line" identifier="kBsG8CHTwn"/>
    </contour>
    <contour>
      <point x="252" y="0" type="line" identifier="yXvkhZxovR"/>
      <point x="325" y="0" type="line" identifier="p4vK5WaQ1z"/>
      <point x="399" y="217" type="line" identifier="GcHUVLF07H"/>
      <point x="539" y="217" type="line" identifier="oNvX3gWN37"/>
      <point x="550" y="281" type="line" identifier="DDthxfMCga"/>
      <point x="421" y="281" type="line" identifier="TsCgMMdqbm"/>
      <point x="467" y="417" type="line" identifier="UaStwU05T2"/>
      <point x="608" y="417" type="line" identifier="3hY3apWDqE"/>
      <point x="619" y="481" type="line" identifier="Omo7YTvlJo"/>
      <point x="489" y="481" type="line" identifier="cbzuUxhd4U"/>
      <point x="563" y="698" type="line" identifier="19pN3ulNUz"/>
      <point x="490" y="698" type="line" identifier="WpSX3740VH"/>
    </contour>
  </outline>
</glyph>
<glyph name="dollar" format="2">
  <advance width="600"/>
  <unicode hex="0024"/>
  <outline>
    <contour>
      <point x="206" y="-113" type="line" identifier="UKKCQ00uYM"/>
      <point x="266" y="-113" type="line" identifier="B6hI2GUeDD"/>
      <point x="283" y="-12" type="line" identifier="DdwzJOlwDF"/>
      <point x="437" y="-6" identifier="0qd9oqOjrs"/>
      <point x="534" y="84" identifier="9JxK5cDuTp"/>
      <point x="534" y="212" type="curve" smooth="yes" identifier="Nsw5i2gxjk"/>
      <point x="534" y="297" identifier="pM1ZaSizsD"/>
      <point x="487" y="356" identifier="1NvhcNDTAh"/>
      <point x="374" y="382" type="curve" smooth="yes" identifier="u262hGix01"/>
      <point x="348" y="388" type="line" identifier="Htm15OOUQr"/>
      <point x="390" y="637" type="line" identifier="RHCJNbYOWj"/>
      <point x="449" y="629" identifier="9LojPVjpRK"/>
      <point x="493" y="599" identifier="OmIszsm249"/>
      <point x="525" y="550" type="curve" identifier="1FQsIrcVm3"/>
      <point x="585" y="594" type="line" identifier="vfJny4QdPj"/>
      <point x="554" y="649" identifier="QrA8FfrVoQ"/>
      <point x="494" y="695" identifier="n5uHq7cY47"/>
      <point x="402" y="707" type="curve" identifier="DvtnxbxK9l"/>
      <point x="420" y="811" type="line" identifier="NlJG68uxyg"/>
      <point x="360" y="811" type="line" identifier="0QYvhbnHMp"/>
      <point x="343" y="710" type="line" identifier="uygVXcUGdF"/>
      <point x="199" y="706" identifier="EfAlS06Yth"/>
      <point x="102" y="628" identifier="jw7sEUrWQp"/>
      <point x="102" y="502" type="curve" smooth="yes" identifier="nJ60r95u52"/>
      <point x="102" y="412" identifier="tdUqohuqpE"/>
      <point x="156" y="355" identifier="D3JbDhaD2a"/>
      <point x="263" y="331" type="curve" smooth="yes" identifier="axdxCp4f8Q"/>
      <point x="279" y="327" type="line" identifier="ZYiql9tdHl"/>
      <point x="235" y="61" type="line" identifier="3yC4mLVa79"/>
      <point x="169" y="70" identifier="MjzpnplIln"/>
      <point x="123" y="104" identifier="rmaoXDBQGs"/>
      <point x="85" y="162" type="curve" identifier="g6aw4g8qkN"/>
      <point x="23" y="113" type="line" identifier="ugL4GpgKc8"/>
      <point x="59" y="50" identifier="ecT0QNjnzW"/>
      <point x="128" y="2" identifier="sxfei48C6C"/>
      <point x="223" y="-9" type="curve" identifier="Nfss9OUSM9"/>
    </contour>
    <contour>
      <point x="186" y="508" type="curve" smooth="yes" identifier="ddPt1gqT1r"/>
      <point x="186" y="584" identifier="eiffBRzLX2"/>
      <point x="241" y="633" identifier="zX67Dnx1BK"/>
      <point x="331" y="639" type="curve" identifier="qioN0a8Yrr"/>
      <point x="292" y="401" type="line" identifier="JOgaFSvyM3"/>
      <point x="223" y="419" identifier="MguLfRgF1m"/>
      <point x="186" y="447" identifier="wMhrcrxDuw"/>
    </contour>
    <contour>
      <point x="450" y="205" type="curve" smooth="yes" identifier="LozEpLK3By"/>
      <point x="450" y="123" identifier="nF43RnpvDX"/>
      <point x="390" y="68" identifier="qj7w7QljKv"/>
      <point x="294" y="60" type="curve" identifier="xAqWu8lbpi"/>
      <point x="336" y="314" type="line" identifier="OM1ERSTU1e"/>
      <point x="418" y="297" identifier="8h5WevfEsZ"/>
      <point x="450" y="262" identifier="qvJPURDyhL"/>
    </contour>
  </outline>
</glyph>
<glyph name="percent" format="2">
  <advance width="600"/>
  <unicode hex="0025"/>
  <outline>
    <contour>
      <point x="192" y="357" type="curve" smooth="yes" identifier="bEpWfToxOZ"/>
      <point x="289" y="357" identifier="iYLapheaZi"/>
      <point x="367" y="442" identifier="SaQ8sFBTQI"/>
      <point x="367" y="567" type="curve" smooth="yes" identifier="q19JejdNHO"/>
      <point x="367" y="662" identifier="fDeRuTqIjA"/>
      <point x="316" y="710" identifier="PDi1vD8W6F"/>
      <point x="238" y="710" type="curve" smooth="yes" identifier="HbcRLIVkim"/>
      <point x="141" y="710" identifier="mcJmqWdWg2"/>
      <point x="63" y="625" identifier="VPbuCzI8pg"/>
      <point x="63" y="500" type="curve" smooth="yes" identifier="HkbbnetxOZ"/>
      <point x="63" y="405" identifier="4N07AQvnjc"/>
      <point x="114" y="357" identifier="tXxNLn9zF2"/>
    </contour>
    <contour>
      <point x="194" y="410" type="curve" smooth="yes" identifier="dvW70KzUaG"/>
      <point x="150" y="410" identifier="hLzcXKpCaJ"/>
      <point x="128" y="436" identifier="VADF0kupod"/>
      <point x="128" y="483" type="curve" smooth="yes" identifier="qeHdxuU3Vw"/>
      <point x="128" y="494" identifier="gMsG1JZTty"/>
      <point x="130" y="505" identifier="8YfMci8RTL"/>
      <point x="139" y="559" type="curve" smooth="yes" identifier="Fi1cEGQxI2"/>
      <point x="149" y="619" identifier="qOPOpmaklo"/>
      <point x="180" y="657" identifier="rDNzdt20aB"/>
      <point x="236" y="657" type="curve" smooth="yes" identifier="qOc8dWT2D7"/>
      <point x="280" y="657" identifier="r5xAKhUwEV"/>
      <point x="302" y="631" identifier="8dtNUbpX5B"/>
      <point x="302" y="584" type="curve" smooth="yes" identifier="rz84IAnqu0"/>
      <point x="302" y="573" identifier="XS36knZJ3n"/>
      <point x="300" y="562" identifier="R28TT0Uuud"/>
      <point x="291" y="508" type="curve" smooth="yes" identifier="jzoRPhDWVf"/>
      <point x="281" y="448" identifier="ntkGInBpGb"/>
      <point x="250" y="410" identifier="a66FO7F0N6"/>
    </contour>
    <contour>
      <point x="375" y="398" type="line" identifier="2rbAKlHil1"/>
      <point x="447" y="398" type="line" identifier="1zj8ExSyzJ"/>
      <point x="656" y="698" type="line" identifier="I6CCNNEK0d"/>
      <point x="584" y="698" type="line" identifier="RzksvwysqT"/>
    </contour>
    <contour>
      <point x="-24" y="0" type="line" identifier="oVWIx6krkS"/>
      <point x="48" y="0" type="line" identifier="E9LOTFh4PT"/>
      <point x="257" y="300" type="line" identifier="0IbQpfPVL1"/>
      <point x="185" y="300" type="line" identifier="yj7EY6u1v0"/>
    </contour>
    <contour>
      <point x="394" y="-12" type="curve" smooth="yes" identifier="G4mBfyLjem"/>
      <point x="491" y="-12" identifier="NHDMebneZk"/>
      <point x="569" y="73" identifier="hwH9ncVe6x"/>
      <point x="569" y="198" type="curve" smooth="yes" identifier="x3orFWzAJg"/>
      <point x="569" y="293" identifier="XpaAS5RoYL"/>
      <point x="518" y="341" identifier="5yLgW7UCY0"/>
      <point x="440" y="341" type="curve" smooth="yes" identifier="HzD0JoAbbw"/>
      <point x="343" y="341" identifier="XYaSA1Avpa"/>
      <point x="265" y="256" identifier="CvQrjhMtps"/>
      <point x="265" y="131" type="curve" smooth="yes" identifier="a4LTCFG5Im"/>
      <point x="265" y="36" identifier="evXDTE89HJ"/>
      <point x="316" y="-12" identifier="4zBpbyz8ql"/>
    </contour>
    <contour>
      <point x="396" y="41" type="curve" smooth="yes" identifier="eFjzBjyeOY"/>
      <point x="352" y="41" identifier="qWLuZSUSzH"/>
      <point x="330" y="67" identifier="H3HjyOLYSk"/>
      <point x="330" y="114" type="curve" smooth="yes" identifier="tSOMZeO9sT"/>
      <point x="330" y="125" identifier="wP0NK7KVF3"/>
      <point x="332" y="136" identifier="cLqbcdsL9A"/>
      <point x="341" y="190" type="curve" smooth="yes" identifier="FN7efyIIk2"/>
      <point x="351" y="250" identifier="hTsKOh2Eo7"/>
      <point x="382" y="288" identifier="kTtiUwBoFc"/>
      <point x="438" y="288" type="curve" smooth="yes" identifier="Ia4loeBnAs"/>
      <point x="482" y="288" identifier="vVdZpg6bFY"/>
      <point x="504" y="262" identifier="G68VWW9jdb"/>
      <point x="504" y="215" type="curve" smooth="yes" identifier="6BH3sNc8Z5"/>
      <point x="504" y="204" identifier="5mddIlNWxD"/>
      <point x="502" y="193" identifier="Xn1J8fccM7"/>
      <point x="493" y="139" type="curve" smooth="yes" identifier="uKwd3Xwd7s"/>
      <point x="483" y="79" identifier="iXFSARIMd3"/>
      <point x="452" y="41" identifier="ANlsMpOKbc"/>
    </contour>
  </outline>
</glyph>
<glyph name="ampersand" format="2">
  <advance width="600"/>
  <unicode hex="0026"/>
  <outline>
    <contour>
      <point x="164" y="-12" type="curve" smooth="yes" identifier="zydZ3ze88Y"/>
      <point x="229" y="-12" identifier="xknOVewXSz"/>
      <point x="300" y="17" identifier="9pu5JpzJws"/>
      <point x="317" y="135" type="curve" identifier="QO2O00WHsS"/>
      <point x="322" y="135" type="line" identifier="4S6OYNJS78"/>
      <point x="353" y="37" identifier="vXTv0lJ3Jf"/>
      <point x="386" y="-12" identifier="NJIm9pucQN"/>
      <point x="443" y="-12" type="curve" smooth="yes" identifier="CHLHXVYfpU"/>
      <point x="482" y="-12" identifier="dWtcKCxdM3"/>
      <point x="507" y="10" identifier="TZMTHzllBV"/>
      <point x="538" y="67" type="curve" smooth="yes" identifier="QhSZtDKQYM"/>
      <point x="588" y="160" type="line" identifier="GSN7cZM02p"/>
      <point x="533" y="188" type="line" identifier="wzwi8onG2z"/>
      <point x="455" y="59" type="line" identifier="h8sWz8K2xU"/>
      <point x="438" y="59" type="line" identifier="MpTZgwxPqM"/>
      <point x="301" y="327" type="line" identifier="GSqYIoShKB"/>
      <point x="420" y="347" identifier="QIT9VuTHn7"/>
      <point x="498" y="416" identifier="kvwiGpyUMW"/>
      <point x="498" y="542" type="curve" smooth="yes" identifier="VCVYRjnJJU"/>
      <point x="498" y="655" identifier="swKSFSDin0"/>
      <point x="429" y="710" identifier="crna3yHGq4"/>
      <point x="333" y="710" type="curve" smooth="yes" identifier="f4dbeyLl1G"/>
      <point x="225" y="710" identifier="yjAJd1poFK"/>
      <point x="147" y="640" identifier="dwqRu7WeX7"/>
      <point x="147" y="531" type="curve" smooth="yes" identifier="SCeB5cFdAP"/>
      <point x="147" y="486" identifier="UufrH6hjSr"/>
      <point x="160" y="449" identifier="z2iNmmnnhr"/>
      <point x="190" y="388" type="curve" identifier="8m0IWTu89O"/>
      <point x="39" y="376" identifier="fYxeRe4tTm"/>
      <point x="1" y="261" identifier="c0dViYLRbe"/>
      <point x="1" y="171" type="curve" smooth="yes" identifier="dFYoWC2hNv"/>
      <point x="1" y="65" identifier="CtcG2hp55F"/>
      <point x="59" y="-12" identifier="3na35QbaS6"/>
    </contour>
    <contour>
      <point x="176" y="56" type="curve" smooth="yes" identifier="kWFLmzfjsB"/>
      <point x="115" y="56" identifier="NbOA7Y9afU"/>
      <point x="84" y="89" identifier="wBL8j1CgXX"/>
      <point x="84" y="175" type="curve" smooth="yes" identifier="nN1qanUNwL"/>
      <point x="84" y="190" identifier="b4BfEcVuFC"/>
      <point x="85" y="212" identifier="Q1pWUWtRny"/>
      <point x="89" y="233" type="curve" smooth="yes" identifier="baYXdsPISO"/>
      <point x="98" y="281" identifier="IXhNoPCPxD"/>
      <point x="116" y="336" identifier="ZGNM2YhNM1"/>
      <point x="209" y="349" type="curve" identifier="Ovipt2Swkx"/>
      <point x="298" y="166" type="line" identifier="ZM5wOBjkUZ"/>
      <point x="285" y="105" identifier="jar0ciM8Ld"/>
      <point x="251" y="56" identifier="DVzjgexRak"/>
    </contour>
    <contour>
      <point x="327" y="645" type="curve" smooth="yes" identifier="fOWZEytyVY"/>
      <point x="381" y="645" identifier="PYnbMzyIv1"/>
      <point x="419" y="618" identifier="fUKxs78qRG"/>
      <point x="419" y="539" type="curve" smooth="yes" identifier="kKqLOZrK28"/>
      <point x="419" y="521" identifier="YELkTPww24"/>
      <point x="417" y="492" identifier="pPGX5Dljb1"/>
      <point x="408" y="466" type="curve" smooth="yes" identifier="gusE1zbHbS"/>
      <point x="390" y="415" identifier="18YqgKRNnj"/>
      <point x="349" y="380" identifier="JkufDxfXL6"/>
      <point x="283" y="364" type="curve" identifier="BLRX1MzimZ"/>
      <point x="272" y="385" type="line" smooth="yes" identifier="pyoaGrANWs"/>
      <point x="239" y="448" identifier="nff328esxQ"/>
      <point x="225" y="489" identifier="EcQHNs8DPt"/>
      <point x="225" y="533" type="curve" smooth="yes" identifier="2ezEFUBJxG"/>
      <point x="225" y="611" identifier="mjKhcSUjgK"/>
      <point x="267" y="645" identifier="zvxOvpKNHu"/>
    </contour>
  </outline>
</glyph>
<glyph name="quotesingle" format="2">
  <advance width="600"/>
  <unicode hex="0027"/>
  <outline>
    <contour>
      <point x="371" y="464" type="line" identifier="i3EhTX51ml"/>
      <point x="417" y="740" type="line" identifier="NKtNp6t6o5"/>
      <point x="343" y="740" type="line" identifier="z0onRgKAms"/>
      <point x="297" y="464" type="line" identifier="Nwhe6PMSLK"/>
    </contour>
  </outline>
</glyph>
<glyph name="parenleft" format="2">
  <advance width="600"/>
  <unicode hex="0028"/>
  <outline>
    <contour>
      <point x="206" y="216" type="curve" smooth="yes" identifier="coKv9ryadc"/>
      <point x="206" y="61" identifier="QsexdkxI3D"/>
      <point x="270" y="-68" identifier="y3V5JuPsz9"/>
      <point x="352" y="-138" type="curve" identifier="JxioOXLJdp"/>
      <point x="429" y="-138" type="line" identifier="eslLYpoHDm"/>
      <point x="342" y="-64" identifier="4DEypwzbVm"/>
      <point x="275" y="55" identifier="i1GVtdsayB"/>
      <point x="275" y="195" type="curve" smooth="yes" identifier="PCE0hOK1lM"/>
      <point x="275" y="219" identifier="JbisnoQnsh"/>
      <point x="277" y="245" identifier="tCenjYAuPX"/>
      <point x="281" y="269" type="curve" smooth="yes" identifier="zmnzHZ4CWX"/>
      <point x="295" y="354" type="line" smooth="yes" identifier="2pwqwTgKBB"/>
      <point x="323" y="522" identifier="0xFcVzi0ZA"/>
      <point x="444" y="669" identifier="jL9ZZ0DnBx"/>
      <point x="578" y="760" type="curve" identifier="zX7hnn0H2n"/>
      <point x="493" y="760" type="line" identifier="W8KW2vzOdn"/>
      <point x="347" y="663" identifier="Ua2F4j45eT"/>
      <point x="206" y="447" identifier="yUYqYlI0lY"/>
    </contour>
  </outline>
</glyph>
<glyph name="parenright" format="2">
  <advance width="600"/>
  <unicode hex="0029"/>
  <outline>
    <contour>
      <point x="413" y="406" type="curve" smooth="yes" identifier="VYa8p9qMeE"/>
      <point x="413" y="561" identifier="SjReRAmJpI"/>
      <point x="349" y="690" identifier="AtRKCnSS4W"/>
      <point x="267" y="760" type="curve" identifier="0Ur6nhbn40"/>
      <point x="190" y="760" type="line" identifier="qR2Waz9DWh"/>
      <point x="277" y="686" identifier="HHReeZJKco"/>
      <point x="344" y="567" identifier="DJcyktah3p"/>
      <point x="344" y="427" type="curve" smooth="yes" identifier="ZhrZAqVsMT"/>
      <point x="344" y="403" identifier="cupvcPM1wd"/>
      <point x="342" y="377" identifier="pkl9QI5TmD"/>
      <point x="338" y="353" type="curve" smooth="yes" identifier="H584rQ7PgS"/>
      <point x="324" y="268" type="line" smooth="yes" identifier="aAyAjSxtl0"/>
      <point x="296" y="100" identifier="JWhRPK24OS"/>
      <point x="175" y="-47" identifier="WDMHgyCMOU"/>
      <point x="41" y="-138" type="curve" identifier="khng99aj0b"/>
      <point x="126" y="-138" type="line" identifier="Eq0FfD8MgT"/>
      <point x="272" y="-41" identifier="3JIi7ymtIM"/>
      <point x="413" y="175" identifier="bxV6t2V45q"/>
    </contour>
  </outline>
</glyph>
<glyph name="asterisk" format="2">
  <advance width="600"/>
  <unicode hex="002A"/>
  <outline>
    <contour>
      <point x="296" y="227" type="line" identifier="TdzEsfOHky"/>
      <point x="392" y="55" type="line" identifier="A4TIG0sh91"/>
      <point x="450" y="96" type="line" identifier="eDsb4AeMIR"/>
      <point x="355" y="264" type="line" identifier="QRmE5H5IkM"/>
      <point x="562" y="332" type="line" identifier="1TDxfVCtKE"/>
      <point x="553" y="396" type="line" identifier="CFPo6Xl3IE"/>
      <point x="348" y="332" type="line" identifier="1cE5p0U0oo"/>
      <point x="384" y="548" type="line" identifier="RhDhJX2eSE"/>
      <point x="312" y="548" type="line" identifier="w1T1mjPuVW"/>
      <point x="276" y="332" type="line" identifier="bH2k4fIVOZ"/>
      <point x="86" y="396" type="line" identifier="5F5F6fQNh2"/>
      <point x="56" y="336" type="line" identifier="iLpKcrJmoL"/>
      <point x="242" y="267" type="line" identifier="RrduHDuwjs"/>
      <point x="92" y="99" type="line" identifier="qAnw1Yzyf9"/>
      <point x="145" y="55" type="line" identifier="WcnTFPWZVN"/>
    </contour>
  </outline>
</glyph>
<glyph name="plus" format="2">
  <advance width="600"/>
  <unicode hex="002B"/>
  <outline>
    <contour>
      <point x="304" y="62" type="line" identifier="yWRxSCuMgq"/>
      <point x="339" y="272" type="line" identifier="Ygffd9xAEX"/>
      <point x="537" y="272" type="line" identifier="7jK7VEu3Af"/>
      <point x="548" y="338" type="line" identifier="XHl3NMX2zy"/>
      <point x="350" y="338" type="line" identifier="VdSQ4a3fn1"/>
      <point x="385" y="548" type="line" identifier="vPhvvEspWO"/>
      <point x="311" y="548" type="line" identifier="RADwAjILT9"/>
      <point x="276" y="338" type="line" identifier="XtIiCju1Ok"/>
      <point x="78" y="338" type="line" identifier="bT4qhFGdog"/>
      <point x="67" y="272" type="line" identifier="8U0r63o2Np"/>
      <point x="265" y="272" type="line" identifier="5XgVdZMbPZ"/>
      <point x="230" y="62" type="line" identifier="jg150ICW4P"/>
    </contour>
  </outline>
</glyph>
<glyph name="comma" format="2">
  <advance width="600"/>
  <unicode hex="002C"/>
  <outline>
    <contour>
      <point x="139" y="-141" type="line" identifier="YusOqSOzzm"/>
      <point x="205" y="-141" type="line" identifier="1blfjmknS7"/>
      <point x="364" y="135" type="line" identifier="fjYfwVbzvu"/>
      <point x="237" y="135" type="line" identifier="nG608X8Fid"/>
    </contour>
  </outline>
</glyph>
<glyph name="hyphen" format="2">
  <advance width="600"/>
  <unicode hex="002D"/>
  <outline>
    <contour>
      <point x="443" y="263" type="line" identifier="9Egy6FKHQy"/>
      <point x="457" y="345" type="line" identifier="1MIXVWsbt5"/>
      <point x="171" y="345" type="line" identifier="aQX6Zh1eYX"/>
      <point x="157" y="263" type="line" identifier="E3mtJFGDJS"/>
    </contour>
  </outline>
</glyph>
<glyph name="period" format="2">
  <advance width="600"/>
  <unicode hex="002E"/>
  <outline>
    <contour>
      <point x="257" y="-9" type="curve" smooth="yes" identifier="dEOX995L5S"/>
      <point x="308" y="-9" identifier="iA8xePaa05"/>
      <point x="332" y="14" identifier="6YNlS3eQDa"/>
      <point x="338" y="50" type="curve" smooth="yes" identifier="nq6u62OzJQ"/>
      <point x="340" y="62" identifier="zBJu0g4HN4"/>
      <point x="342" y="74" identifier="L2K1pbeS0w"/>
      <point x="342" y="82" type="curve" smooth="yes" identifier="gQm8mJQosp"/>
      <point x="342" y="107" identifier="oyYHtQX9b7"/>
      <point x="324" y="127" identifier="0Xm2CUTiFv"/>
      <point x="277" y="127" type="curve" smooth="yes" identifier="4TnXBHSGiJ"/>
      <point x="226" y="127" identifier="lCJXeYhnWT"/>
      <point x="202" y="104" identifier="azbGFO22hC"/>
      <point x="196" y="68" type="curve" smooth="yes" identifier="EUs5h4q6J1"/>
      <point x="194" y="56" identifier="GYxrNjPRV6"/>
      <point x="192" y="44" identifier="cNalDiQVrA"/>
      <point x="192" y="36" type="curve" smooth="yes" identifier="rRFuSatDmF"/>
      <point x="192" y="11" identifier="autnv13dcw"/>
      <point x="210" y="-9" identifier="vad5XjYOFs"/>
    </contour>
  </outline>
</glyph>
<glyph name="slash" format="2">
  <advance width="600"/>
  <unicode hex="002F"/>
  <outline>
    <contour>
      <point x="97" y="-138" type="line" identifier="FZgE9VN7Yl"/>
      <point x="594" y="760" type="line" identifier="hazTFM3bpv"/>
      <point x="521" y="760" type="line" identifier="YoCCwj0Zfk"/>
      <point x="25" y="-138" type="line" identifier="nYqTaBerZY"/>
    </contour>
  </outline>
</glyph>
<glyph name="zero" format="2">
  <advance width="600"/>
  <unicode hex="0030"/>
  <outline>
    <contour>
      <point x="260" y="-12" type="curve" smooth="yes" identifier="4amKLSH0Nk"/>
      <point x="508" y="-12" identifier="LjHrf5CECJ"/>
      <point x="570" y="297" identifier="42dbubKOjJ"/>
      <point x="570" y="473" type="curve" smooth="yes" identifier="sdFnnZqWuQ"/>
      <point x="570" y="625" identifier="Tl56qAgwhF"/>
      <point x="508" y="710" identifier="YeEc40K6TN"/>
      <point x="372" y="710" type="curve" smooth="yes" identifier="FOcr4tPI4X"/>
      <point x="124" y="710" identifier="CYNh3g0nlt"/>
      <point x="62" y="401" identifier="tCMIOuFI7j"/>
      <point x="62" y="225" type="curve" smooth="yes" identifier="9q98Xi4uhG"/>
      <point x="62" y="73" identifier="J0Rg5UmqmH"/>
      <point x="124" y="-12" identifier="ipiteUhqhM"/>
    </contour>
    <contour>
      <point x="266" y="60" type="curve" smooth="yes" identifier="3gB4cb28dd"/>
      <point x="178" y="60" identifier="beXNJtwwl0"/>
      <point x="141" y="115" identifier="L2KoMgq5IM"/>
      <point x="141" y="210" type="curve" smooth="yes" identifier="WxsvUQE0Pj"/>
      <point x="141" y="233" identifier="AvLM2bhkLJ"/>
      <point x="143" y="262" identifier="2HgTbmqM0Y"/>
      <point x="148" y="292" type="curve" smooth="yes" identifier="bqiZBTNhCq"/>
      <point x="167" y="406" type="line" smooth="yes" identifier="FqnRJyDDjW"/>
      <point x="191" y="549" identifier="j8ffMM2xPB"/>
      <point x="259" y="638" identifier="UFULyt76kG"/>
      <point x="366" y="638" type="curve" smooth="yes" identifier="aSY7cV9fMF"/>
      <point x="454" y="638" identifier="7pYv1YK2k8"/>
      <point x="491" y="583" identifier="3G2eDTsWGc"/>
      <point x="491" y="488" type="curve" smooth="yes" identifier="cCAK2WvsiD"/>
      <point x="491" y="465" identifier="6n6bJQmoLI"/>
      <point x="489" y="436" identifier="JZMzc44ihw"/>
      <point x="484" y="406" type="curve" smooth="yes" identifier="JQGaz7DuQB"/>
      <point x="465" y="292" type="line" smooth="yes" identifier="0tZAPirkSn"/>
      <point x="441" y="149" identifier="tbsUuRtsFZ"/>
      <point x="373" y="60" identifier="3zW5o51t3q"/>
    </contour>
    <contour>
      <point x="307" y="291" type="curve" smooth="yes" identifier="M4IVbxuJOe"/>
      <point x="354" y="291" identifier="AIaJwdiLUX"/>
      <point x="372" y="312" identifier="OQRja6APS0"/>
      <point x="377" y="342" type="curve" smooth="yes" identifier="5IlIRAnDPG"/>
      <point x="379" y="354" identifier="k8WWkvXNzY"/>
      <point x="381" y="364" identifier="sblhZYV9or"/>
      <point x="381" y="370" type="curve" smooth="yes" identifier="IqWyWzbMze"/>
      <point x="381" y="391" identifier="Q95aOSsfDl"/>
      <point x="365" y="407" identifier="34QiHNi1zU"/>
      <point x="325" y="407" type="curve" smooth="yes" identifier="a12TZgfaQz"/>
      <point x="278" y="407" identifier="iwZvOemYzT"/>
      <point x="260" y="386" identifier="6dnXGDTyxk"/>
      <point x="255" y="356" type="curve" smooth="yes" identifier="IFr44nEjDP"/>
      <point x="253" y="344" identifier="cpyeJJXEC2"/>
      <point x="251" y="334" identifier="miI1DSayIl"/>
      <point x="251" y="328" type="curve" smooth="yes" identifier="8kiIS8RhU5"/>
      <point x="251" y="307" identifier="7CrVnPXmrL"/>
      <point x="267" y="291" identifier="PYleXCeJg7"/>
    </contour>
  </outline>
</glyph>
<glyph name="one" format="2">
  <advance width="600"/>
  <unicode hex="0031"/>
  <outline>
    <contour>
      <point x="509" y="0" type="line" identifier="Sqldn3a5Lj"/>
      <point x="521" y="72" type="line" identifier="Yt7DrtwNid"/>
      <point x="336" y="72" type="line" identifier="NbjUHuIrKJ"/>
      <point x="441" y="698" type="line" identifier="JKrhjtza6l"/>
      <point x="310" y="698" type="line" identifier="EegwCsU7mV"/>
      <point x="97" y="525" type="line" identifier="SS8ShJlNKv"/>
      <point x="138" y="472" type="line" identifier="78z3ROv5u7"/>
      <point x="341" y="636" type="line" identifier="n28U4SYbo4"/>
      <point x="349" y="636" type="line" identifier="yTHKNr40VT"/>
      <point x="254" y="72" type="line" identifier="wSuuC4gUvP"/>
      <point x="54" y="72" type="line" identifier="FmbfKkEZw6"/>
      <point x="42" y="0" type="line" identifier="ENYdrmmYbT"/>
    </contour>
  </outline>
</glyph>
<glyph name="two" format="2">
  <advance width="600"/>
  <unicode hex="0032"/>
  <outline>
    <contour>
      <point x="505" y="71" type="line" identifier="ZosTxF8uSV"/>
      <point x="132" y="71" type="line" identifier="8Dung8Q1A2"/>
      <point x="359" y="245" type="line" smooth="yes" identifier="8oXXteJUE1"/>
      <point x="481" y="338" identifier="eV4VRM2STK"/>
      <point x="551" y="421" identifier="nuz58v2Cih"/>
      <point x="551" y="532" type="curve" smooth="yes" identifier="cUTg6OxyUL"/>
      <point x="551" y="637" identifier="z87uIpBzag"/>
      <point x="476" y="710" identifier="KifJIxmwcE"/>
      <point x="351" y="710" type="curve" smooth="yes" identifier="DG6N2REUmf"/>
      <point x="220" y="710" identifier="I3cr6gMetV"/>
      <point x="147" y="637" identifier="Sfge985yde"/>
      <point x="107" y="547" type="curve" identifier="Hm9QyT1qSV"/>
      <point x="179" y="519" type="line" identifier="8lp5dlFkiD"/>
      <point x="210" y="585" identifier="gnRRsuNAtO"/>
      <point x="257" y="639" identifier="dHhiTQ1oab"/>
      <point x="342" y="639" type="curve" smooth="yes" identifier="ahLmHhumQr"/>
      <point x="420" y="639" identifier="8oIQNTh6Q0"/>
      <point x="465" y="595" identifier="hfhPvsQ4rQ"/>
      <point x="465" y="531" type="curve" smooth="yes" identifier="m6aTRHgoXx"/>
      <point x="465" y="521" identifier="ceN2U21Pxo"/>
      <point x="464" y="511" identifier="aT3bpqjj4y"/>
      <point x="462" y="499" type="curve" smooth="yes" identifier="wWBPBft1GF"/>
      <point x="449" y="421" identifier="oyP6uFAS9h"/>
      <point x="423" y="384" identifier="bS2jsK7EtB"/>
      <point x="311" y="296" type="curve" smooth="yes" identifier="sIqKZbkYCd"/>
      <point x="43" y="85" type="line" identifier="N7AxOSnK04"/>
      <point x="29" y="0" type="line" identifier="H1tMbnBg2X"/>
      <point x="493" y="0" type="line" identifier="Jb175AGu4W"/>
    </contour>
  </outline>
</glyph>
<glyph name="three" format="2">
  <advance width="600"/>
  <unicode hex="0033"/>
  <outline>
    <contour>
      <point x="216" y="401" type="line" identifier="c5tNJTEECB"/>
      <point x="204" y="331" type="line" identifier="gWsxM4kYND"/>
      <point x="287" y="331" type="line" smooth="yes" identifier="x1GmlGZAbN"/>
      <point x="378" y="331" identifier="li0NIXS3Ie"/>
      <point x="421" y="291" identifier="YTBKzfdZ2L"/>
      <point x="421" y="223" type="curve" smooth="yes" identifier="LGZw7W4dU1"/>
      <point x="421" y="213" identifier="3vk4kJ7ybr"/>
      <point x="419" y="199" identifier="5Y4uOGr2tE"/>
      <point x="417" y="186" type="curve" smooth="yes" identifier="oGwUXlydtZ"/>
      <point x="404" y="103" identifier="K1SQt1ii79"/>
      <point x="344" y="59" identifier="H596QJPCcl"/>
      <point x="248" y="59" type="curve" smooth="yes" identifier="1SFcZ22dAk"/>
      <point x="154" y="59" identifier="SqB34VLWat"/>
      <point x="119" y="100" identifier="8QZ4BLUJky"/>
      <point x="92" y="153" type="curve" identifier="W6q0lsbNWC"/>
      <point x="24" y="111" type="line" identifier="5mWYrDNTfl"/>
      <point x="57" y="50" identifier="R498G9fAqW"/>
      <point x="110" y="-12" identifier="PDUc0IkVRQ"/>
      <point x="239" y="-12" type="curve" smooth="yes" identifier="yHuqEtgVls"/>
      <point x="407" y="-12" identifier="rHXd7bctWP"/>
      <point x="507" y="94" identifier="tqwSEpN5af"/>
      <point x="507" y="214" type="curve" smooth="yes" identifier="UOEbAEFPxU"/>
      <point x="507" y="302" identifier="ZhihTPDMKy"/>
      <point x="453" y="354" identifier="N9gWpbudbd"/>
      <point x="383" y="365" type="curve" identifier="U6Srt6Mksc"/>
      <point x="384" y="369" type="line" identifier="0kyZSUTDYO"/>
      <point x="491" y="393" identifier="x3lYjBC2UD"/>
      <point x="550" y="468" identifier="Aca54cugx4"/>
      <point x="550" y="555" type="curve" smooth="yes" identifier="g8ypTgP3WO"/>
      <point x="550" y="655" identifier="2jKP4VK3sr"/>
      <point x="472" y="710" identifier="x7Yr7af8Ob"/>
      <point x="357" y="710" type="curve" smooth="yes" identifier="iYS12Utuwd"/>
      <point x="245" y="710" identifier="CxnGKdLq0H"/>
      <point x="180" y="657" identifier="dDZybujI48"/>
      <point x="133" y="596" type="curve" identifier="QLvEVotpP6"/>
      <point x="188" y="549" type="line" identifier="4pgbGyg6xr"/>
      <point x="223" y="598" identifier="5okEOtZygv"/>
      <point x="273" y="639" identifier="iuveDdjlKP"/>
      <point x="349" y="639" type="curve" smooth="yes" identifier="VM78Ru29PF"/>
      <point x="417" y="639" identifier="mv1Igyfmia"/>
      <point x="463" y="606" identifier="ehQm2IR87K"/>
      <point x="463" y="550" type="curve" smooth="yes" identifier="aTStOwDptF"/>
      <point x="463" y="540" identifier="Mdjm7gVJ6E"/>
      <point x="461" y="529" identifier="BA3kakldA7"/>
      <point x="459" y="518" type="curve" smooth="yes" identifier="EYm04af946"/>
      <point x="446" y="447" identifier="Ju2eNSW9bN"/>
      <point x="389" y="401" identifier="GtXtwujvUk"/>
      <point x="293" y="401" type="curve" smooth="yes" identifier="v3THvWe7Jv"/>
    </contour>
  </outline>
</glyph>
<glyph name="four" format="2">
  <advance width="600"/>
  <unicode hex="0034"/>
  <outline>
    <contour>
      <point x="415" y="0" type="line" identifier="4nDExqSjUx"/>
      <point x="438" y="137" type="line" identifier="YlBwqWhAzK"/>
      <point x="543" y="137" type="line" identifier="x0oFx6Urhq"/>
      <point x="554" y="205" type="line" identifier="hYK61ArDTU"/>
      <point x="449" y="205" type="line" identifier="u1vOrZxkub"/>
      <point x="532" y="698" type="line" identifier="j4GvPABf04"/>
      <point x="421" y="698" type="line" identifier="0rtWHtaHuz"/>
      <point x="28" y="214" type="line" identifier="VeNDNtPW8A"/>
      <point x="15" y="137" type="line" identifier="bopD2wczUa"/>
      <point x="360" y="137" type="line" identifier="6ri6A609pA"/>
      <point x="337" y="0" type="line" identifier="1WK19xSSkK"/>
    </contour>
    <contour>
      <point x="436" y="614" type="line" identifier="P5jCSuhSXh"/>
      <point x="440" y="614" type="line" identifier="73KeingD8D"/>
      <point x="371" y="205" type="line" identifier="MkICh4SyYm"/>
      <point x="103" y="205" type="line" identifier="KxFX72Dqf2"/>
    </contour>
  </outline>
</glyph>
<glyph name="five" format="2">
  <advance width="600"/>
  <unicode hex="0035"/>
  <outline>
    <contour>
      <point x="571" y="698" type="line" identifier="pgKmZ8Q8MT"/>
      <point x="193" y="698" type="line" identifier="3G6Xf0HQNx"/>
      <point x="105" y="314" type="line" identifier="aCUbSWKeAB"/>
      <point x="173" y="305" type="line" identifier="QWqa0k2Jkh"/>
      <point x="209" y="338" identifier="FJ8PyS4LVZ"/>
      <point x="246" y="364" identifier="8Z7xkCzSIj"/>
      <point x="312" y="364" type="curve" smooth="yes" identifier="Py23fHM75N"/>
      <point x="398" y="364" identifier="rUx6dZ7gQ4"/>
      <point x="442" y="320" identifier="OpZFWYiZPn"/>
      <point x="442" y="247" type="curve" smooth="yes" identifier="8E91rMCa3X"/>
      <point x="442" y="230" identifier="QKWGp7qI6j"/>
      <point x="441" y="221" identifier="pFtVKpFtRU"/>
      <point x="438" y="203" type="curve" smooth="yes" identifier="HgR3b0ToTK"/>
      <point x="423" y="113" identifier="Bw5iaFzZhk"/>
      <point x="362" y="60" identifier="J66GEZ8mGy"/>
      <point x="266" y="60" type="curve" smooth="yes" identifier="ASHM7OEamO"/>
      <point x="182" y="60" identifier="AC9WtGrweR"/>
      <point x="148" y="98" identifier="cJUDJENxLG"/>
      <point x="118" y="153" type="curve" identifier="gVrpcxcMde"/>
      <point x="48" y="107" type="line" identifier="PxE3BoD2MW"/>
      <point x="81" y="47" identifier="YWDcCvvCLM"/>
      <point x="148" y="-12" identifier="z7SHAHd6p6"/>
      <point x="256" y="-12" type="curve" smooth="yes" identifier="pZNyOxwb2I"/>
      <point x="437" y="-12" identifier="D2bkrfeXGy"/>
      <point x="529" y="115" identifier="phCuTOMzHz"/>
      <point x="529" y="252" type="curve" smooth="yes" identifier="EVHgZnqLOW"/>
      <point x="529" y="364" identifier="CjrOIOzwp3"/>
      <point x="455" y="433" identifier="jQtb0DHkjB"/>
      <point x="343" y="433" type="curve" smooth="yes" identifier="xBJ2AkMsjc"/>
      <point x="273" y="433" identifier="X9s8i3bCWS"/>
      <point x="232" y="404" identifier="mb0kcQ4yUF"/>
      <point x="191" y="358" type="curve" identifier="2bkwEnsnb5"/>
      <point x="185" y="358" type="line" identifier="zn29PV2tXP"/>
      <point x="250" y="627" type="line" identifier="6XNWrvRS04"/>
      <point x="559" y="627" type="line" identifier="ljNfq8Fzmw"/>
    </contour>
  </outline>
</glyph>
<glyph name="six" format="2">
  <advance width="600"/>
  <unicode hex="0036"/>
  <outline>
    <contour>
      <point x="259" y="-12" type="curve" smooth="yes" identifier="XJ33JaLV2P"/>
      <point x="432" y="-12" identifier="IzgIct2tPU"/>
      <point x="535" y="115" identifier="TnKhpOfU9l"/>
      <point x="535" y="252" type="curve" smooth="yes" identifier="coxR0OBMIo"/>
      <point x="535" y="364" identifier="Pn8Z788bku"/>
      <point x="464" y="434" identifier="6nlfPCiua5"/>
      <point x="353" y="434" type="curve" smooth="yes" identifier="RtQOcqIZdG"/>
      <point x="268" y="434" identifier="HR6cKYvviT"/>
      <point x="212" y="390" identifier="TKNGu9yEzj"/>
      <point x="169" y="334" type="curve" identifier="IQ51ImYgRN"/>
      <point x="164" y="336" type="line" identifier="pdPwNj4UXT"/>
      <point x="232" y="497" identifier="bWo6LZPv1Y"/>
      <point x="331" y="588" identifier="pGYduPk8IR"/>
      <point x="502" y="698" type="curve" identifier="HsUnoJvCZr"/>
      <point x="392" y="698" type="line" identifier="VcrSy6YWOj"/>
      <point x="240" y="609" identifier="nTOf1thIyK"/>
      <point x="61" y="415" identifier="juh0cPJzJA"/>
      <point x="61" y="201" type="curve" smooth="yes" identifier="qb46GhAkGp"/>
      <point x="61" y="69" identifier="GCsM5k5CEM"/>
      <point x="132" y="-12" identifier="mM9qUWPIc4"/>
    </contour>
    <contour>
      <point x="271" y="58" type="curve" smooth="yes" identifier="qIGYIz0dFn"/>
      <point x="186" y="58" identifier="uROOBcBJdL"/>
      <point x="142" y="100" identifier="9fj18ZAOEC"/>
      <point x="142" y="176" type="curve" smooth="yes" identifier="gtNUp4ce2N"/>
      <point x="142" y="190" identifier="dIQoMtBL6n"/>
      <point x="144" y="204" identifier="WUFTjDqMvs"/>
      <point x="146" y="216" type="curve" smooth="yes" identifier="CpK71tu1hP"/>
      <point x="162" y="312" identifier="eD6UspoB9s"/>
      <point x="228" y="366" identifier="cgQGOcfWEJ"/>
      <point x="322" y="366" type="curve" smooth="yes" identifier="k4L4o31UT3"/>
      <point x="407" y="366" identifier="RMMB3Weq3E"/>
      <point x="451" y="324" identifier="aRwZGt4jjh"/>
      <point x="451" y="248" type="curve" smooth="yes" identifier="WedY8pufgm"/>
      <point x="451" y="234" identifier="SX7FgOkaGO"/>
      <point x="449" y="220" identifier="ZtY2j4X49j"/>
      <point x="447" y="208" type="curve" smooth="yes" identifier="Ue44AnGPLX"/>
      <point x="431" y="112" identifier="UJfTjSl7mJ"/>
      <point x="365" y="58" identifier="Ilz268uMnU"/>
    </contour>
  </outline>
</glyph>
<glyph name="seven" format="2">
  <advance width="600"/>
  <unicode hex="0037"/>
  <outline>
    <contour>
      <point x="222" y="0" type="line" identifier="JTQ30RY372"/>
      <point x="590" y="626" type="line" identifier="4oIn0RaJYk"/>
      <point x="602" y="698" type="line" identifier="Wt4a1g2yJl"/>
      <point x="137" y="698" type="line" identifier="yfR98s4HuO"/>
      <point x="104" y="497" type="line" identifier="y2h7bnTOBO"/>
      <point x="178" y="497" type="line" identifier="iOJfgefV7s"/>
      <point x="199" y="627" type="line" identifier="N9sRBBj8NU"/>
      <point x="503" y="627" type="line" identifier="qudYmevO1K"/>
      <point x="131" y="0" type="line" identifier="CnpbpZS4qp"/>
    </contour>
  </outline>
</glyph>
<glyph name="eight" format="2">
  <advance width="600"/>
  <unicode hex="0038"/>
  <outline>
    <contour>
      <point x="255" y="-12" type="curve" smooth="yes" identifier="yT1eXS1KUD"/>
      <point x="437" y="-12" identifier="oDlduQdNB7"/>
      <point x="535" y="90" identifier="QVXwgjA0o3"/>
      <point x="535" y="207" type="curve" smooth="yes" identifier="O0NAmSZvl7"/>
      <point x="535" y="296" identifier="pwZ3Zb4ryw"/>
      <point x="493" y="342" identifier="KITG1LJeIg"/>
      <point x="419" y="363" type="curve" identifier="KSG0qMOoOD"/>
      <point x="420" y="371" type="line" identifier="NK40FFPQP8"/>
      <point x="517" y="402" identifier="scbHJGEMi4"/>
      <point x="570" y="477" identifier="CmcWLcQW7C"/>
      <point x="570" y="556" type="curve" smooth="yes" identifier="R5ETe0Q4uk"/>
      <point x="570" y="650" identifier="HHGxKwHNUi"/>
      <point x="501" y="710" identifier="kSpjrB2Q3a"/>
      <point x="374" y="710" type="curve" smooth="yes" identifier="PwNCPxcvn2"/>
      <point x="208" y="710" identifier="oOwhv3wgIb"/>
      <point x="120" y="609" identifier="Ysp6FAqqG6"/>
      <point x="120" y="508" type="curve" smooth="yes" identifier="DqmlVwLt1i"/>
      <point x="120" y="443" identifier="r7W7K5OI0I"/>
      <point x="154" y="394" identifier="zMyI9zng11"/>
      <point x="216" y="372" type="curve" identifier="Dyfow2zbvi"/>
      <point x="215" y="364" type="line" identifier="375Bl76GDv"/>
      <point x="105" y="335" identifier="TjPS25RHTs"/>
      <point x="41" y="258" identifier="SrsjdodukN"/>
      <point x="41" y="160" type="curve" smooth="yes" identifier="B8tlpbq36f"/>
      <point x="41" y="60" identifier="s0ShwxRiCd"/>
      <point x="110" y="-12" identifier="K2G3nKqAWO"/>
    </contour>
    <contour>
      <point x="267" y="58" type="curve" smooth="yes" identifier="esj3OAgWCm"/>
      <point x="178" y="58" identifier="QQplnUMyU2"/>
      <point x="127" y="96" identifier="hkGxqgx5cq"/>
      <point x="127" y="164" type="curve" smooth="yes" identifier="ijaQOHcDZZ"/>
      <point x="127" y="178" identifier="ChrKRldLHM"/>
      <point x="129" y="189" identifier="1IHhVkZzN7"/>
      <point x="132" y="207" type="curve" smooth="yes" identifier="KLArgGvHzF"/>
      <point x="145" y="285" identifier="YZvNbjXV5t"/>
      <point x="207" y="334" identifier="vbOxTIn0OG"/>
      <point x="311" y="334" type="curve" smooth="yes" identifier="qjBC1Um3N5"/>
      <point x="400" y="334" identifier="dZSLjINmNn"/>
      <point x="451" y="296" identifier="NRCe1SCF3P"/>
      <point x="451" y="228" type="curve" smooth="yes" identifier="cgshyNRP60"/>
      <point x="451" y="214" identifier="KaFIjZVbIC"/>
      <point x="449" y="203" identifier="fcGQh193FQ"/>
      <point x="446" y="185" type="curve" smooth="yes" identifier="mbTFnKMzaI"/>
      <point x="433" y="107" identifier="3xS9XxurUD"/>
      <point x="371" y="58" identifier="HV0cB7whpj"/>
    </contour>
    <contour>
      <point x="324" y="401" type="curve" smooth="yes" identifier="BzSM5AmmwZ"/>
      <point x="245" y="401" identifier="USrmFpjjiY"/>
      <point x="201" y="435" identifier="7m2Pt6W8aW"/>
      <point x="201" y="495" type="curve" smooth="yes" identifier="W1Iim6MOiR"/>
      <point x="201" y="505" identifier="TomoVqZbp7"/>
      <point x="202" y="516" identifier="0oseykXC92"/>
      <point x="204" y="528" type="curve" smooth="yes" identifier="x1LUbjXfdO"/>
      <point x="215" y="594" identifier="EDptHZoPki"/>
      <point x="270" y="640" identifier="OTNKABrGKJ"/>
      <point x="362" y="640" type="curve" smooth="yes" identifier="m8KGLa9rN2"/>
      <point x="441" y="640" identifier="1HXbO59st6"/>
      <point x="485" y="606" identifier="1Yv3hBGvqo"/>
      <point x="485" y="546" type="curve" smooth="yes" identifier="qaF7PF2Geg"/>
      <point x="485" y="536" identifier="Hur4riLKuC"/>
      <point x="484" y="525" identifier="KanGuyu2F2"/>
      <point x="482" y="513" type="curve" smooth="yes" identifier="ZVbCf1rtL2"/>
      <point x="471" y="447" identifier="hOhuHgYeFu"/>
      <point x="416" y="401" identifier="ZwtIcIpNPz"/>
    </contour>
  </outline>
</glyph>
<glyph name="nine" format="2">
  <advance width="600"/>
  <unicode hex="0039"/>
  <outline>
    <contour>
      <point x="561" y="497" type="curve" smooth="yes" identifier="GZoRyt4PzU"/>
      <point x="561" y="629" identifier="J5NVx0w3nx"/>
      <point x="490" y="710" identifier="KAQcvBJXd3"/>
      <point x="363" y="710" type="curve" smooth="yes" identifier="gTdET4XK4r"/>
      <point x="190" y="710" identifier="LZLUYSdnq2"/>
      <point x="87" y="583" identifier="VqNOYVOSoc"/>
      <point x="87" y="446" type="curve" smooth="yes" identifier="xngDDvW7yc"/>
      <point x="87" y="334" identifier="51lnmsbelr"/>
      <point x="158" y="264" identifier="81mOCTr3wK"/>
      <point x="269" y="264" type="curve" smooth="yes" identifier="Xb7E5qHDSi"/>
      <point x="354" y="264" identifier="BYjhZWWUcT"/>
      <point x="409" y="308" identifier="lePOHflLy5"/>
      <point x="453" y="364" type="curve" identifier="YrBbdpjzay"/>
      <point x="458" y="362" type="line" identifier="AFP1wVxiGo"/>
      <point x="389" y="201" identifier="4cIzMu3uIF"/>
      <point x="290" y="110" identifier="DdqovaPdxO"/>
      <point x="119" y="0" type="curve" identifier="aJdIjrMRaW"/>
      <point x="230" y="0" type="line" identifier="HQ40mdbmyG"/>
      <point x="382" y="89" identifier="1XDI1ICJvU"/>
      <point x="561" y="283" identifier="SZ9KnATwa8"/>
    </contour>
    <contour>
      <point x="300" y="332" type="curve" smooth="yes" identifier="PYSqUw3N18"/>
      <point x="215" y="332" identifier="yQD5tLhNE1"/>
      <point x="171" y="374" identifier="oJEvfn0XrI"/>
      <point x="171" y="450" type="curve" smooth="yes" identifier="SXhSfO2eid"/>
      <point x="171" y="464" identifier="9u2jeltGcD"/>
      <point x="173" y="478" identifier="54bs4wRuD5"/>
      <point x="175" y="490" type="curve" smooth="yes" identifier="ww6GkLdmJn"/>
      <point x="191" y="586" identifier="08yYDMBVNU"/>
      <point x="257" y="640" identifier="EtffaHmGLM"/>
      <point x="351" y="640" type="curve" smooth="yes" identifier="yBc2XzaPA5"/>
      <point x="436" y="640" identifier="vXj44hlSYu"/>
      <point x="480" y="598" identifier="CrybbWu471"/>
      <point x="480" y="522" type="curve" smooth="yes" identifier="5kYRtZ0ETI"/>
      <point x="480" y="508" identifier="GJD097YpKf"/>
      <point x="478" y="494" identifier="f76a2pqtkg"/>
      <point x="476" y="482" type="curve" smooth="yes" identifier="bziHjMnsF6"/>
      <point x="460" y="386" identifier="Vy9Jp7c1CR"/>
      <point x="394" y="332" identifier="BLZUM17qXd"/>
    </contour>
  </outline>
</glyph>
<glyph name="less" format="2">
  <advance width="600"/>
  <unicode hex="003C"/>
  <outline>
    <contour>
      <point x="473" y="20" type="line" identifier="vmf67gxB90"/>
      <point x="486" y="95" type="line" identifier="q4HYKA7zij"/>
      <point x="167" y="297" type="line" identifier="Dc6c75M6pT"/>
      <point x="168" y="305" type="line" identifier="VUhWDQsQgQ"/>
      <point x="555" y="508" type="line" identifier="saGlXeNwPu"/>
      <point x="569" y="593" type="line" identifier="40IW4LAoPM"/>
      <point x="101" y="344" type="line" identifier="W7lf1LICD8"/>
      <point x="88" y="268" type="line" identifier="S7dvT5lvh6"/>
    </contour>
  </outline>
</glyph>
<glyph name="equal" format="2">
  <advance width="600"/>
  <unicode hex="003D"/>
  <outline>
    <contour>
      <point x="555" y="373" type="line" identifier="JJGTK32b3i"/>
      <point x="566" y="439" type="line" identifier="APAUP6FswC"/>
      <point x="95" y="439" type="line" identifier="XJry920oxc"/>
      <point x="84" y="373" type="line" identifier="ih4MUkahi0"/>
    </contour>
    <contour>
      <point x="522" y="174" type="line" identifier="zEsNm7Gu3M"/>
      <point x="533" y="240" type="line" identifier="wn7ctF6lIm"/>
      <point x="62" y="240" type="line" identifier="qlw1WieZGz"/>
      <point x="51" y="174" type="line" identifier="RHX8fpx8wf"/>
    </contour>
  </outline>
</glyph>
<glyph name="greater" format="2">
  <advance width="600"/>
  <unicode hex="003E"/>
  <outline>
    <contour>
      <point x="49" y="20" type="line" identifier="a9UUIeHuFY"/>
      <point x="517" y="269" type="line" identifier="uXSXAgXdtX"/>
      <point x="530" y="345" type="line" identifier="7yZWYqAerS"/>
      <point x="145" y="593" type="line" identifier="6QBG5UYHlW"/>
      <point x="132" y="519" type="line" identifier="d9a2rZDWmB"/>
      <point x="451" y="316" type="line" identifier="XBffz5vzR8"/>
      <point x="450" y="308" type="line" identifier="VhobiFd610"/>
      <point x="63" y="106" type="line" identifier="R9n7xxRsgj"/>
    </contour>
  </outline>
</glyph>
<glyph name="question" format="2">
  <advance width="600"/>
  <unicode hex="003F"/>
  <outline>
    <contour>
      <point x="310" y="215" type="line" identifier="HSlUm99bIF"/>
      <point x="327" y="315" type="line" identifier="dcpweaWmK8"/>
      <point x="454" y="333" identifier="nOFtDvjmeB"/>
      <point x="555" y="408" identifier="6vFSc75d2i"/>
      <point x="555" y="543" type="curve" smooth="yes" identifier="gjD4aamvvw"/>
      <point x="555" y="644" identifier="g8uVGDNszb"/>
      <point x="483" y="710" identifier="YqwNflRrTx"/>
      <point x="363" y="710" type="curve" smooth="yes" identifier="dCLykjMmW0"/>
      <point x="233" y="710" identifier="lTvasmMClp"/>
      <point x="160" y="634" identifier="ArcXCj4ToO"/>
      <point x="128" y="550" type="curve" identifier="o7jpURbMYS"/>
      <point x="199" y="520" type="line" identifier="4KmRWfh3S7"/>
      <point x="225" y="589" identifier="aYIYo6N8FI"/>
      <point x="271" y="639" identifier="s0uNNEi4Pl"/>
      <point x="356" y="639" type="curve" smooth="yes" identifier="Xooj8gwHwI"/>
      <point x="425" y="639" identifier="NEKQbsQkL2"/>
      <point x="470" y="602" identifier="Op7sh1FmtY"/>
      <point x="470" y="544" type="curve" smooth="yes" identifier="f3JWQUaKss"/>
      <point x="470" y="542" identifier="1A2Lk99ZGb"/>
      <point x="470" y="527" identifier="SqZxTefgm3"/>
      <point x="468" y="515" type="curve" smooth="yes" identifier="XqFXYI65od"/>
      <point x="453" y="425" identifier="RK6J5hHzMb"/>
      <point x="400" y="390" identifier="RlB6RmL771"/>
      <point x="259" y="372" type="curve" identifier="Q50MI98Ngh"/>
      <point x="233" y="215" type="line" identifier="DMenuoSiaw"/>
    </contour>
    <contour>
      <point x="239" y="-9" type="curve" smooth="yes" identifier="HEbkOYx7hi"/>
      <point x="290" y="-9" identifier="MCHtThRV6r"/>
      <point x="314" y="14" identifier="36MAK2UBBs"/>
      <point x="320" y="50" type="curve" smooth="yes" identifier="F3qFkcyagA"/>
      <point x="322" y="62" identifier="52aJ1TN6YD"/>
      <point x="324" y="74" identifier="OOIJuTmX5j"/>
      <point x="324" y="82" type="curve" smooth="yes" identifier="7l9iYg0n9a"/>
      <point x="324" y="107" identifier="1Sc87Rarlg"/>
      <point x="306" y="127" identifier="7jBpS2agNO"/>
      <point x="259" y="127" type="curve" smooth="yes" identifier="pdPg3YaJVr"/>
      <point x="208" y="127" identifier="FeaYBpC8hs"/>
      <point x="184" y="104" identifier="OCEDJXyldo"/>
      <point x="178" y="68" type="curve" smooth="yes" identifier="dvgdLCH2ov"/>
      <point x="176" y="56" identifier="N0YeoJB4o8"/>
      <point x="174" y="44" identifier="fXYpGHfBN0"/>
      <point x="174" y="36" type="curve" smooth="yes" identifier="sav9ayl6sb"/>
      <point x="174" y="11" identifier="RIQbv4jILY"/>
      <point x="192" y="-9" identifier="JxcOaPgzvp"/>
    </contour>
  </outline>
</glyph>
<glyph name="at" format="2">
  <advance width="600"/>
  <unicode hex="0040"/>
  <outline>
    <contour>
      <point x="418" y="-49" type="line" identifier="jAT17OP7dk"/>
      <point x="295" y="-49" type="line" smooth="yes" identifier="nwnU2ieRAz"/>
      <point x="165" y="-49" identifier="as67lsBcS9"/>
      <point x="127" y="20" identifier="s6LpZUNcEc"/>
      <point x="127" y="138" type="curve" smooth="yes" identifier="ntHNKpj8lv"/>
      <point x="127" y="156" identifier="b7pgCFQdjc"/>
      <point x="129" y="215" identifier="yDi4MZB52P"/>
      <point x="134" y="244" type="curve" smooth="yes" identifier="MIO9UWvvuU"/>
      <point x="159" y="396" type="line" smooth="yes" identifier="d3B4YvCyLP"/>
      <point x="192" y="594" identifier="JBb3tS8m7r"/>
      <point x="260" y="649" identifier="XBJQmt8nvi"/>
      <point x="357" y="649" type="curve" smooth="yes" identifier="L24YbERZjl"/>
      <point x="457" y="649" identifier="a15jmoTsr4"/>
      <point x="492" y="596" identifier="ATuEesvK7D"/>
      <point x="492" y="517" type="curve" smooth="yes" identifier="7I8TaqbTsy"/>
      <point x="492" y="500" identifier="coROyQszMa"/>
      <point x="490" y="480" identifier="CKB7oJluHC"/>
      <point x="487" y="461" type="curve" smooth="yes" identifier="ltxtsaSd5A"/>
      <point x="482" y="429" type="line" identifier="eaZT4Nz7Kf"/>
      <point x="478" y="429" type="line" identifier="8zeeknCtbc"/>
      <point x="469" y="475" identifier="JCKS06LN3X"/>
      <point x="439" y="508" identifier="TkakD6FLVo"/>
      <point x="385" y="508" type="curve" smooth="yes" identifier="teQw2b0gjX"/>
      <point x="273" y="508" identifier="aYJ9aX1Hle"/>
      <point x="215" y="369" identifier="5VynEszm3o"/>
      <point x="215" y="237" type="curve" smooth="yes" identifier="NIzfVnNlEn"/>
      <point x="215" y="125" identifier="BfZBZz4T56"/>
      <point x="257" y="79" identifier="w0WaATMUgz"/>
      <point x="320" y="79" type="curve" smooth="yes" identifier="MIBZN9HnJk"/>
      <point x="381" y="79" identifier="jKtS6OzTsH"/>
      <point x="417" y="123" identifier="DZ0CEuz5oT"/>
      <point x="436" y="176" type="curve" identifier="bGaP7KqjPZ"/>
      <point x="440" y="176" type="line" identifier="4Bvry9Cn30"/>
      <point x="426" y="91" type="line" identifier="RXNDk2sYq3"/>
      <point x="496" y="91" type="line" identifier="ymkwpUCP2d"/>
      <point x="557" y="463" type="line" smooth="yes" identifier="WzhgApHIN6"/>
      <point x="560" y="484" identifier="fvOWOdpcHK"/>
      <point x="562" y="502" identifier="ql93WaTpBr"/>
      <point x="562" y="520" type="curve" smooth="yes" identifier="w2MGnxty4A"/>
      <point x="562" y="628" identifier="MsxiMXk2Mi"/>
      <point x="495" y="710" identifier="YHO7y1mbLE"/>
      <point x="356" y="710" type="curve" smooth="yes" identifier="97kWFzmDlp"/>
      <point x="198" y="710" identifier="uTq1Z1sNep"/>
      <point x="119" y="606" identifier="iptxAIrh0i"/>
      <point x="75" y="338" type="curve" smooth="yes" identifier="vFNRFRBIbQ"/>
      <point x="63" y="265" identifier="KcgrOlToor"/>
      <point x="57" y="204" identifier="mH1moZczyX"/>
      <point x="57" y="159" type="curve" smooth="yes" identifier="q2kNVxPYAm"/>
      <point x="57" y="-18" identifier="woJS3WDK3S"/>
      <point x="119" y="-112" identifier="r2K3CKcJRh"/>
      <point x="292" y="-112" type="curve" smooth="yes" identifier="59xGUgnVma"/>
      <point x="409" y="-112" type="line" identifier="LBB1TFxhFn"/>
    </contour>
    <contour>
      <point x="347" y="138" type="curve" smooth="yes" identifier="sQGA3M5rzb"/>
      <point x="310" y="138" identifier="TE8scQD3Hv"/>
      <point x="288" y="164" identifier="7j2ErZ2foV"/>
      <point x="288" y="218" type="curve" smooth="yes" identifier="r50jqnPnLj"/>
      <point x="288" y="230" identifier="6bqh0DXNrv"/>
      <point x="289" y="246" identifier="Ze9t9qplLr"/>
      <point x="292" y="264" type="curve" smooth="yes" identifier="cRyaZVBJ64"/>
      <point x="302" y="324" type="line" smooth="yes" identifier="xMVzBXUzQc"/>
      <point x="316" y="408" identifier="BRrJV6QqiR"/>
      <point x="345" y="449" identifier="uCKinb2JTg"/>
      <point x="402" y="449" type="curve" smooth="yes" identifier="2ETiiDYfen"/>
      <point x="461" y="449" identifier="fRr16XWLKU"/>
      <point x="478" y="405" identifier="UPxOQ0B6mI"/>
      <point x="472" y="370" type="curve" smooth="yes" identifier="SmSJqYAega"/>
      <point x="455" y="269" type="line" smooth="yes" identifier="OgPtWJfwxk"/>
      <point x="449" y="233" identifier="fQWycsclct"/>
      <point x="437" y="205" identifier="hbGcTNvVz3"/>
      <point x="418" y="179" type="curve" smooth="yes" identifier="O5J35hP4io"/>
      <point x="400" y="154" identifier="8mhywZvj0Q"/>
      <point x="377" y="138" identifier="JoWKQcF854"/>
    </contour>
  </outline>
</glyph>
<glyph name="A" format="2">
  <advance width="600"/>
  <unicode hex="0041"/>
  <anchor x="264.0" y="0.0" name="bottom"/>
  <anchor x="528.0" y="0.0" name="bottomright"/>
  <anchor x="374.0" y="698.0" name="top"/>
  <outline>
    <contour>
      <point x="528" y="0" type="line" identifier="ghNItqTWow"/>
      <point x="431" y="698" type="line" identifier="I9qv9FywGq"/>
      <point x="321" y="698" type="line" identifier="R16PhKExDu"/>
      <point x="-9" y="0" type="line" identifier="2T43QYf6km"/>
      <point x="79" y="0" type="line" identifier="C1NaOC7CMA"/>
      <point x="171" y="199" type="line" identifier="KhH3VScqS1"/>
      <point x="417" y="199" type="line" identifier="5alYLRR6Lm"/>
      <point x="442" y="0" type="line" identifier="ddXrgrjj6q"/>
    </contour>
    <contour>
      <point x="409" y="272" type="line" identifier="1h0ycT4n3h"/>
      <point x="202" y="272" type="line" identifier="EuB9i5UP4O"/>
      <point x="357" y="614" type="line" identifier="95v0Oyv2eC"/>
      <point x="366" y="614" type="line" identifier="2UHzrVO7XF"/>
    </contour>
  </outline>
</glyph>
<glyph name="B" format="2">
  <advance width="600"/>
  <unicode hex="0042"/>
  <anchor x="266.0" y="0.0" name="bottom"/>
  <anchor x="360.0" y="698.0" name="top"/>
  <outline>
    <contour>
      <point x="46" y="0" type="line" identifier="izq43FdJSI"/>
      <point x="313" y="0" type="line" smooth="yes" identifier="9lhwoH6JdC"/>
      <point x="442" y="0" identifier="LsG3OXahgt"/>
      <point x="531" y="106" identifier="HnrfMJPsvl"/>
      <point x="531" y="222" type="curve" smooth="yes" identifier="4lSJqjuj7T"/>
      <point x="531" y="305" identifier="ITj5iJbnpE"/>
      <point x="485" y="343" identifier="mCS7z8XKaO"/>
      <point x="423" y="362" type="curve" identifier="V4mas8zwyk"/>
      <point x="424" y="366" type="line" identifier="2AMeieaK5B"/>
      <point x="501" y="387" identifier="5c2HDPAmoc"/>
      <point x="556" y="445" identifier="Aqn6leKsq2"/>
      <point x="556" y="537" type="curve" smooth="yes" identifier="UrrpYESol1"/>
      <point x="556" y="635" identifier="lIeqe4udXt"/>
      <point x="497" y="698" identifier="MwETZWsb1x"/>
      <point x="388" y="698" type="curve" smooth="yes" identifier="KKtdBbTtWv"/>
      <point x="163" y="698" type="line" identifier="F7DBBrM2Je"/>
    </contour>
    <contour>
      <point x="139" y="72" type="line" identifier="o0CnQjJCC7"/>
      <point x="182" y="327" type="line" identifier="0i6YO7T3FJ"/>
      <point x="338" y="327" type="line" smooth="yes" identifier="18dze31VnX"/>
      <point x="407" y="327" identifier="T2G3syAz5S"/>
      <point x="447" y="296" identifier="N72W2HIyZM"/>
      <point x="447" y="245" type="curve" smooth="yes" identifier="J9xv9VQvY1"/>
      <point x="447" y="232" identifier="8ZbNz9iFIH"/>
      <point x="445" y="220" identifier="HQ8Y34j7tH"/>
      <point x="443" y="208" type="curve" smooth="yes" identifier="SqjuacY6iT"/>
      <point x="438" y="178" type="line" smooth="yes" identifier="Xkv1PwEL1b"/>
      <point x="426" y="106" identifier="1iBwOatpnW"/>
      <point x="376" y="72" identifier="jy84SyDNwv"/>
      <point x="296" y="72" type="curve" smooth="yes" identifier="O1RcsmevXQ"/>
    </contour>
    <contour>
      <point x="193" y="395" type="line" identifier="5YYeYZS1jB"/>
      <point x="231" y="626" type="line" identifier="XVE28IC4yP"/>
      <point x="374" y="626" type="line" smooth="yes" identifier="fvaTamWonY"/>
      <point x="434" y="626" identifier="cZKDhbY1UY"/>
      <point x="472" y="604" identifier="s2ih8AR8ka"/>
      <point x="472" y="551" type="curve" smooth="yes" identifier="eOyIsbgcNx"/>
      <point x="472" y="541" identifier="xByJa7qQc7"/>
      <point x="471" y="531" identifier="5UqniW83VE"/>
      <point x="469" y="519" type="curve" smooth="yes" identifier="phU67GT4Nn"/>
      <point x="464" y="489" type="line" smooth="yes" identifier="jQHywmVnQV"/>
      <point x="454" y="429" identifier="yCqu0BtLmx"/>
      <point x="411" y="395" identifier="5oJOGOTnkB"/>
      <point x="336" y="395" type="curve" smooth="yes" identifier="0aaOyqirTh"/>
    </contour>
  </outline>
</glyph>
<glyph name="C" format="2">
  <advance width="600"/>
  <unicode hex="0043"/>
  <anchor x="290.0" y="0.0" name="bottom"/>
  <anchor x="392.0" y="698.0" name="top"/>
  <outline>
    <contour>
      <point x="287" y="-12" type="curve" smooth="yes" identifier="feVDVS6vWk"/>
      <point x="412" y="-12" identifier="1PQ61YzDpf"/>
      <point x="479" y="55" identifier="X4O4tZ1dTN"/>
      <point x="532" y="165" type="curve" identifier="H8x5Kzxg6P"/>
      <point x="467" y="198" type="line" identifier="7ggfmWTcng"/>
      <point x="414" y="104" identifier="o69Qb690NE"/>
      <point x="376" y="60" identifier="GJepFLzk0v"/>
      <point x="296" y="60" type="curve" smooth="yes" identifier="dVNdOAyont"/>
      <point x="200" y="60" identifier="GOqGD4habG"/>
      <point x="160" y="123" identifier="ZzhHRuH29M"/>
      <point x="160" y="219" type="curve" smooth="yes" identifier="Q1Oa9SmYTS"/>
      <point x="160" y="247" identifier="NDnVhOgJx3"/>
      <point x="163" y="277" identifier="Ty3z7SmIVR"/>
      <point x="168" y="307" type="curve" smooth="yes" identifier="dMTEJCCTSp"/>
      <point x="184" y="403" type="line" smooth="yes" identifier="5RR9FVN7pk"/>
      <point x="208" y="547" identifier="A5bPt4Ki9n"/>
      <point x="273" y="638" identifier="3xqkx4JtAH"/>
      <point x="385" y="638" type="curve" smooth="yes" identifier="ZqkQUbUVkG"/>
      <point x="468" y="638" identifier="24uz3VQE7A"/>
      <point x="494" y="588" identifier="gV7TaoN8Mx"/>
      <point x="508" y="528" type="curve" identifier="TwNcJqaSiU"/>
      <point x="582" y="552" type="line" identifier="aCrkZLyxpH"/>
      <point x="567" y="629" identifier="NVazTheTFE"/>
      <point x="520" y="710" identifier="m1wg60NSxm"/>
      <point x="391" y="710" type="curve" smooth="yes" identifier="86xPZIjrBh"/>
      <point x="138" y="710" identifier="k6v3CdISRD"/>
      <point x="78" y="401" identifier="cZVtRi5nKg"/>
      <point x="78" y="240" type="curve" smooth="yes" identifier="5RMRaVFiBo"/>
      <point x="78" y="78" identifier="ykM2puFxQy"/>
      <point x="142" y="-12" identifier="v5zibFQAMs"/>
    </contour>
  </outline>
</glyph>
<glyph name="D" format="2">
  <advance width="600"/>
  <unicode hex="0044"/>
  <anchor x="242.0" y="0.0" name="bottom"/>
  <anchor x="343.0" y="698.0" name="top"/>
  <outline>
    <contour>
      <point x="55" y="0" type="line" identifier="48cix3wuAy"/>
      <point x="248" y="0" type="line" smooth="yes" identifier="ZR5xuXhSOB"/>
      <point x="443" y="0" identifier="ZeKiA3Y8bj"/>
      <point x="565" y="148" identifier="CxQ72gDBYe"/>
      <point x="565" y="473" type="curve" smooth="yes" identifier="L5TO8aofzR"/>
      <point x="565" y="602" identifier="lblQFTiE3B"/>
      <point x="489" y="698" identifier="MH4ZnVlesV"/>
      <point x="343" y="698" type="curve" smooth="yes" identifier="qeLFh5hhMO"/>
      <point x="172" y="698" type="line" identifier="1A0rv7B6wJ"/>
    </contour>
    <contour>
      <point x="149" y="72" type="line" identifier="FeKneVOgqN"/>
      <point x="242" y="626" type="line" identifier="W0DiqdaO4a"/>
      <point x="333" y="626" type="line" smooth="yes" identifier="AEKNAw15kA"/>
      <point x="431" y="626" identifier="b9qFXlQz8a"/>
      <point x="483" y="572" identifier="Z24IPzRCEM"/>
      <point x="483" y="471" type="curve" smooth="yes" identifier="KabcS0ZvVz"/>
      <point x="483" y="443" identifier="ra64p8N7qb"/>
      <point x="480" y="409" identifier="SALpo4xVdm"/>
      <point x="476" y="385" type="curve" smooth="yes" identifier="mIt9cfApZ1"/>
      <point x="460" y="289" type="line" smooth="yes" identifier="uow1TGWyVH"/>
      <point x="436" y="146" identifier="xPutPwOKa5"/>
      <point x="366" y="72" identifier="5YNLgzhdoi"/>
      <point x="255" y="72" type="curve" smooth="yes" identifier="QCBcslBc3h"/>
    </contour>
  </outline>
</glyph>
<glyph name="E" format="2">
  <advance width="600"/>
  <unicode hex="0045"/>
  <anchor x="279.0" y="0.0" name="bottom"/>
  <anchor x="477.0" y="0.0" name="bottomright"/>
  <anchor x="379.0" y="698.0" name="top"/>
  <outline>
    <contour>
      <point x="477" y="0" type="line" identifier="H48zGT3nx3"/>
      <point x="489" y="72" type="line" identifier="Dm6iOz0Ycn"/>
      <point x="141" y="72" type="line" identifier="toU8nx9ekx"/>
      <point x="182" y="318" type="line" identifier="1UYktOoXiX"/>
      <point x="517" y="318" type="line" identifier="b3EdovHwk3"/>
      <point x="529" y="390" type="line" identifier="mc0k2fYjUW"/>
      <point x="194" y="390" type="line" identifier="gP303OYyTN"/>
      <point x="234" y="626" type="line" identifier="gYpqRicw72"/>
      <point x="580" y="626" type="line" identifier="ceBU1rHS4F"/>
      <point x="592" y="698" type="line" identifier="3vPjxscnpy"/>
      <point x="164" y="698" type="line" identifier="NGaRIYXTjW"/>
      <point x="47" y="0" type="line" identifier="vd2zT4cECc"/>
    </contour>
  </outline>
</glyph>
<glyph name="F" format="2">
  <advance width="600"/>
  <unicode hex="0046"/>
  <anchor x="87.0" y="0.0" name="bottom"/>
  <anchor x="382.0" y="698.0" name="top"/>
  <outline>
    <contour>
      <point x="129" y="0" type="line" identifier="6RgUUuwxLl"/>
      <point x="182" y="317" type="line" identifier="Bce35HLYEx"/>
      <point x="509" y="317" type="line" identifier="ipgnJiv0eT"/>
      <point x="521" y="389" type="line" identifier="thYAgaIKOv"/>
      <point x="194" y="389" type="line" identifier="83BsasA02z"/>
      <point x="234" y="626" type="line" identifier="E9cHSIib3k"/>
      <point x="590" y="626" type="line" identifier="8yokKiBeJW"/>
      <point x="602" y="698" type="line" identifier="8KvPHxAR4t"/>
      <point x="164" y="698" type="line" identifier="wThp9dA94l"/>
      <point x="47" y="0" type="line" identifier="n2ckPZyXs5"/>
    </contour>
  </outline>
</glyph>
<glyph name="G" format="2">
  <advance width="600"/>
  <unicode hex="0047"/>
  <anchor x="288.0" y="0.0" name="bottom"/>
  <anchor x="367.0" y="698.0" name="top"/>
  <outline>
    <contour>
      <point x="404" y="0" type="line" identifier="PVJeBhr01y"/>
      <point x="480" y="0" type="line" identifier="TAYd0JHOnw"/>
      <point x="537" y="344" type="line" identifier="Ox4SH3s6ip"/>
      <point x="315" y="344" type="line" identifier="KuzCau99GY"/>
      <point x="304" y="278" type="line" identifier="QKOEuDsS7D"/>
      <point x="450" y="278" type="line" identifier="IY5NxpZ1T6"/>
      <point x="441" y="224" type="line" smooth="yes" identifier="mmOIuqMJMI"/>
      <point x="426" y="134" identifier="wIFHTWlGrG"/>
      <point x="367" y="58" identifier="SX98kmPBrB"/>
      <point x="272" y="58" type="curve" smooth="yes" identifier="7XL7mKRIpV"/>
      <point x="184" y="58" identifier="hr9pa1R8FL"/>
      <point x="150" y="123" identifier="3AVWvqGWy0"/>
      <point x="150" y="225" type="curve" smooth="yes" identifier="hqyW0LlnUI"/>
      <point x="150" y="242" identifier="7RJ8gF6ab6"/>
      <point x="151" y="276" identifier="dTQHncJ1Xi"/>
      <point x="156" y="306" type="curve" smooth="yes" identifier="Iene5Nb5Kb"/>
      <point x="172" y="402" type="line" smooth="yes" identifier="HLCHTpX9U3"/>
      <point x="196" y="545" identifier="EKjoNGYSRW"/>
      <point x="259" y="638" identifier="nETA3E3Pg7"/>
      <point x="373" y="638" type="curve" smooth="yes" identifier="XEtTZmRmLx"/>
      <point x="456" y="638" identifier="k3ecdAgH29"/>
      <point x="482" y="588" identifier="BlO5tjRjdd"/>
      <point x="496" y="528" type="curve" identifier="hvBMg2GUJ7"/>
      <point x="570" y="552" type="line" identifier="l10F7X3TwM"/>
      <point x="555" y="629" identifier="OZfLxIV6w1"/>
      <point x="508" y="710" identifier="C6w5tdipNx"/>
      <point x="379" y="710" type="curve" smooth="yes" identifier="ZUPvOZyNpG"/>
      <point x="127" y="710" identifier="vNIIavIl33"/>
      <point x="66" y="401" identifier="OFkwRxrk1S"/>
      <point x="66" y="240" type="curve" smooth="yes" identifier="3UK41fqVRE"/>
      <point x="66" y="74" identifier="8b8ISYmRwn"/>
      <point x="128" y="-12" identifier="9ROLGu8OPb"/>
      <point x="246" y="-12" type="curve" smooth="yes" identifier="xXZfUohfZD"/>
      <point x="337" y="-12" identifier="9Mba7BilNY"/>
      <point x="379" y="40" identifier="I350cntj23"/>
      <point x="416" y="102" type="curve" identifier="LlBimNOWdW"/>
      <point x="421" y="102" type="line" identifier="bUBJyX6FCR"/>
    </contour>
  </outline>
</glyph>
<glyph name="H" format="2">
  <advance width="600"/>
  <unicode hex="0048"/>
  <anchor x="255.0" y="0.0" name="bottom"/>
  <anchor x="372.0" y="698.0" name="top"/>
  <outline>
    <contour>
      <point x="393" y="0" type="line" identifier="wUmiP57zDi"/>
      <point x="475" y="0" type="line" identifier="Xpbd1Bs9kt"/>
      <point x="592" y="698" type="line" identifier="Soj7jkyOId"/>
      <point x="510" y="698" type="line" identifier="wAA8gAi9SI"/>
      <point x="458" y="390" type="line" identifier="Rbq4JwYwVt"/>
      <point x="186" y="390" type="line" identifier="P7PTvJhuqi"/>
      <point x="238" y="698" type="line" identifier="RkvE5RSft4"/>
      <point x="156" y="698" type="line" identifier="uF4nzvO0OC"/>
      <point x="39" y="0" type="line" identifier="gg0tCvlxBA"/>
      <point x="121" y="0" type="line" identifier="PbmMG10LJJ"/>
      <point x="174" y="318" type="line" identifier="SWL4OjiRvj"/>
      <point x="446" y="318" type="line" identifier="mVFjWmUGrS"/>
    </contour>
  </outline>
</glyph>
<glyph name="I" format="2">
  <advance width="600"/>
  <unicode hex="0049"/>
  <anchor x="261.0" y="0.0" name="bottom"/>
  <anchor x="473.0" y="0.0" name="bottomright"/>
  <anchor x="372.0" y="698.0" name="top"/>
  <outline>
    <contour>
      <point x="473" y="0" type="line" identifier="EA3o9yk9Qu"/>
      <point x="484" y="66" type="line" identifier="DundEuiLHc"/>
      <point x="309" y="66" type="line" identifier="z0wEfGjQbq"/>
      <point x="404" y="632" type="line" identifier="Lkg6eytCF7"/>
      <point x="579" y="632" type="line" identifier="KCus2ml7mk"/>
      <point x="590" y="698" type="line" identifier="3YL1CjYUTT"/>
      <point x="158" y="698" type="line" identifier="P6jo9niWlC"/>
      <point x="147" y="632" type="line" identifier="Cgh3el31Eq"/>
      <point x="322" y="632" type="line" identifier="XedObwUtl0"/>
      <point x="227" y="66" type="line" identifier="9exkdFVy8K"/>
      <point x="52" y="66" type="line" identifier="8q6aVlE3jl"/>
      <point x="41" y="0" type="line" identifier="8BntcvpAq2"/>
    </contour>
  </outline>
</glyph>
<glyph name="J" format="2">
  <advance width="600"/>
  <unicode hex="004A"/>
  <anchor x="252.0" y="0.0" name="bottom"/>
  <anchor x="384.0" y="698.0" name="top"/>
  <outline>
    <contour>
      <point x="217" y="698" type="line" identifier="VkdZwemM0R"/>
      <point x="205" y="626" type="line" identifier="NTQPhMHvSX"/>
      <point x="459" y="626" type="line" identifier="KG5LVe7Lt4"/>
      <point x="387" y="195" type="line" smooth="yes" identifier="CIASarem6J"/>
      <point x="372" y="105" identifier="WjYV7ue5sw"/>
      <point x="326" y="61" identifier="AzGv306ohN"/>
      <point x="251" y="61" type="curve" smooth="yes" identifier="jTkiZ4bwgX"/>
      <point x="166" y="61" identifier="WOQpN2XOG3"/>
      <point x="144" y="109" identifier="u5PdCZ79d4"/>
      <point x="137" y="168" type="curve" identifier="jTKrTky5CG"/>
      <point x="58" y="151" type="line" identifier="QvsnMAK5Q7"/>
      <point x="69" y="43" identifier="xWxcG2QtSn"/>
      <point x="142" y="-12" identifier="dQHN23eJMc"/>
      <point x="249" y="-12" type="curve" smooth="yes" identifier="cW7k4Izcxy"/>
      <point x="362" y="-12" identifier="Wii24QFKbP"/>
      <point x="444" y="45" identifier="Vop2lJjxVd"/>
      <point x="465" y="170" type="curve" smooth="yes" identifier="DbkgjV5SoS"/>
      <point x="553" y="698" type="line" identifier="Imtwy865dq"/>
    </contour>
  </outline>
</glyph>
<glyph name="K" format="2">
  <advance width="600"/>
  <unicode hex="004B"/>
  <anchor x="266.0" y="0.0" name="bottom"/>
  <anchor x="377.0" y="698.0" name="top"/>
  <outline>
    <contour>
      <point x="440" y="0" type="line" identifier="t2EB4ZHzxT"/>
      <point x="530" y="0" type="line" identifier="hNNk0zsXls"/>
      <point x="347" y="402" type="line" identifier="JU3hMdXTQZ"/>
      <point x="645" y="698" type="line" identifier="6AeHAuehKH"/>
      <point x="541" y="698" type="line" identifier="GfovqIFu3Z"/>
      <point x="319" y="477" type="line" identifier="LLoc406Gxb"/>
      <point x="185" y="335" type="line" identifier="eqhw0RwNEM"/>
      <point x="181" y="335" type="line" identifier="rLtKH5EfEA"/>
      <point x="242" y="698" type="line" identifier="h3IeKf9zgh"/>
      <point x="160" y="698" type="line" identifier="IP4da0koYl"/>
      <point x="43" y="0" type="line" identifier="M6E10gqPr7"/>
      <point x="125" y="0" type="line" identifier="y7vDGzMTdo"/>
      <point x="162" y="221" type="line" identifier="FAC5u7UuQI"/>
      <point x="287" y="345" type="line" identifier="TFPZQN3QQ4"/>
    </contour>
  </outline>
</glyph>
<glyph name="L" format="2">
  <advance width="600"/>
  <unicode hex="004C"/>
  <anchor x="283.0" y="0.0" name="bottom"/>
  <anchor x="235.0" y="698.0" name="top"/>
  <anchor x="371.0" y="740.0" name="topright"/>
  <outline>
    <contour>
      <point x="491" y="0" type="line" identifier="CFQyhn9OW9"/>
      <point x="503" y="72" type="line" identifier="QpaG6ylE4m"/>
      <point x="172" y="72" type="line" identifier="ynS6q6EaqT"/>
      <point x="276" y="698" type="line" identifier="woGlVTKifI"/>
      <point x="195" y="698" type="line" identifier="fzrBFDSK1n"/>
      <point x="78" y="0" type="line" identifier="bOyAgJwYTE"/>
    </contour>
  </outline>
</glyph>
<glyph name="M" format="2">
  <advance width="600"/>
  <unicode hex="004D"/>
  <anchor x="256.0" y="0.0" name="bottom"/>
  <anchor x="374.0" y="698.0" name="top"/>
  <outline>
    <contour>
      <point x="413" y="0" type="line" identifier="hXFif1YuMN"/>
      <point x="488" y="0" type="line" identifier="yTPdJjvUqf"/>
      <point x="605" y="698" type="line" identifier="bTSj3GvqLy"/>
      <point x="500" y="698" type="line" identifier="DhjZu1kDD3"/>
      <point x="323" y="389" type="line" identifier="6QKKoVNZUj"/>
      <point x="317" y="389" type="line" identifier="SCZjT59Ftc"/>
      <point x="243" y="698" type="line" identifier="OS4mNnKh5X"/>
      <point x="143" y="698" type="line" identifier="soMjG7qtKy"/>
      <point x="26" y="0" type="line" identifier="QFIBEMdDyD"/>
      <point x="101" y="0" type="line" identifier="ErhTINFTrk"/>
      <point x="159" y="350" type="line" identifier="9Om914n7O6"/>
      <point x="196" y="574" type="line" identifier="46tt92lYXH"/>
      <point x="203" y="574" type="line" identifier="VNq1OrmeUa"/>
      <point x="292" y="214" type="line" identifier="Z8V0FR1w8J"/>
      <point x="503" y="574" type="line" identifier="WSCklyI11p"/>
      <point x="510" y="574" type="line" identifier="VJdVCXVSEZ"/>
      <point x="472" y="350" type="line" identifier="63k0pNINut"/>
    </contour>
  </outline>
</glyph>
<glyph name="N" format="2">
  <advance width="600"/>
  <unicode hex="004E"/>
  <anchor x="254.0" y="0.0" name="bottom"/>
  <anchor x="371.0" y="698.0" name="top"/>
  <outline>
    <contour>
      <point x="356" y="0" type="line" identifier="Hr5eOURs4I"/>
      <point x="475" y="0" type="line" identifier="MC5fnvZILX"/>
      <point x="592" y="698" type="line" identifier="j2VjaLbBOJ"/>
      <point x="516" y="698" type="line" identifier="NRG48aRB34"/>
      <point x="415" y="96" type="line" identifier="8QsYuSHKh1"/>
      <point x="408" y="96" type="line" identifier="rFtKJ1lWuu"/>
      <point x="275" y="698" type="line" identifier="xhy50chJip"/>
      <point x="156" y="698" type="line" identifier="6HlT9pKzET"/>
      <point x="39" y="0" type="line" identifier="fypgbGXPJx"/>
      <point x="115" y="0" type="line" identifier="t75RN6Q9Dp"/>
      <point x="216" y="602" type="line" identifier="p0OEYl7w2r"/>
      <point x="223" y="602" type="line" identifier="bJv2zLFYMT"/>
    </contour>
  </outline>
</glyph>
<glyph name="O" format="2">
  <advance width="600"/>
  <unicode hex="004F"/>
  <anchor x="263.0" y="0.0" name="bottom"/>
  <anchor x="365.0" y="698.0" name="top"/>
  <outline>
    <contour>
      <point x="260" y="-12" type="curve" smooth="yes" identifier="BuG9SeONaq"/>
      <point x="510" y="-12" identifier="SYsv0zNtt1"/>
      <point x="570" y="297" identifier="CVzlLfN1XI"/>
      <point x="570" y="473" type="curve" smooth="yes" identifier="DHswu9TRG8"/>
      <point x="570" y="625" identifier="gqic5tWDT8"/>
      <point x="508" y="710" identifier="FUtak6LeyP"/>
      <point x="372" y="710" type="curve" smooth="yes" identifier="NwlUTww2FY"/>
      <point x="122" y="710" identifier="haAAIvb1VO"/>
      <point x="62" y="401" identifier="fdrN0ktKG1"/>
      <point x="62" y="225" type="curve" smooth="yes" identifier="m3uOyvgbE1"/>
      <point x="62" y="73" identifier="D3LyKYCdIs"/>
      <point x="124" y="-12" identifier="hesYwv6TVs"/>
    </contour>
    <contour>
      <point x="266" y="60" type="curve" smooth="yes" identifier="pDIKnOIfAh"/>
      <point x="178" y="60" identifier="gfmcW8dmrn"/>
      <point x="143" y="115" identifier="ZbJNdtLcyn"/>
      <point x="143" y="210" type="curve" smooth="yes" identifier="nRia4oFS8C"/>
      <point x="143" y="233" identifier="jnseuicmu1"/>
      <point x="145" y="262" identifier="6D51tpk5PO"/>
      <point x="150" y="292" type="curve" smooth="yes" identifier="OpjoaT5T1b"/>
      <point x="169" y="406" type="line" smooth="yes" identifier="7r47gPOXz5"/>
      <point x="193" y="549" identifier="35VcXXziBH"/>
      <point x="259" y="638" identifier="I8kQm4UVvw"/>
      <point x="366" y="638" type="curve" smooth="yes" identifier="mZhd99Htbh"/>
      <point x="454" y="638" identifier="DStKTVzsi5"/>
      <point x="489" y="583" identifier="0wGJnv9rss"/>
      <point x="489" y="488" type="curve" smooth="yes" identifier="r9jmxhBaHE"/>
      <point x="489" y="465" identifier="cBnmliZAsf"/>
      <point x="487" y="436" identifier="V8OwsqBN4F"/>
      <point x="482" y="406" type="curve" smooth="yes" identifier="7rSuQX7pR1"/>
      <point x="463" y="292" type="line" smooth="yes" identifier="evJi5c0RbZ"/>
      <point x="439" y="149" identifier="QdBtg2V5bW"/>
      <point x="373" y="60" identifier="0jKWzewbvg"/>
    </contour>
  </outline>
</glyph>
<glyph name="P" format="2">
  <advance width="600"/>
  <unicode hex="0050"/>
  <anchor x="88.0" y="0.0" name="bottom"/>
  <anchor x="377.0" y="698.0" name="top"/>
  <outline>
    <contour>
      <point x="129" y="0" type="line" identifier="VcGUluEs5l"/>
      <point x="179" y="297" type="line" identifier="Lf7YGZhDcx"/>
      <point x="355" y="297" type="line" smooth="yes" identifier="rTptswaHik"/>
      <point x="501" y="297" identifier="bx7wq2O11T"/>
      <point x="584" y="386" identifier="0ZbTzhE33l"/>
      <point x="584" y="534" type="curve" smooth="yes" identifier="mGc5L8jpZX"/>
      <point x="584" y="631" identifier="2sJHx1D0vc"/>
      <point x="530" y="698" identifier="vpBNeeb8rk"/>
      <point x="413" y="698" type="curve" smooth="yes" identifier="xt21oVdZd5"/>
      <point x="164" y="698" type="line" identifier="SPQe408gkf"/>
      <point x="47" y="0" type="line" identifier="yqY6xRMSBW"/>
    </contour>
    <contour>
      <point x="234" y="626" type="line" identifier="R7DnFhWpiK"/>
      <point x="403" y="626" type="line" smooth="yes" identifier="gVZM15s3f9"/>
      <point x="464" y="626" identifier="bzEredJqyn"/>
      <point x="500" y="598" identifier="zHKwS0pZNO"/>
      <point x="500" y="543" type="curve" smooth="yes" identifier="YrnRdJCEWz"/>
      <point x="500" y="530" identifier="rgliByX6A1"/>
      <point x="499" y="516" identifier="Iai6ceEFQq"/>
      <point x="497" y="504" type="curve" smooth="yes" identifier="B4GF16Ajzb"/>
      <point x="491" y="468" type="line" smooth="yes" identifier="EEvF11fqv1"/>
      <point x="481" y="408" identifier="Bjgf4vRILU"/>
      <point x="438" y="369" identifier="gZhu9fbaaw"/>
      <point x="363" y="369" type="curve" smooth="yes" identifier="3SMHeq3SLu"/>
      <point x="191" y="369" type="line" identifier="XyWHq0MOIk"/>
    </contour>
  </outline>
</glyph>
<glyph name="Q" format="2">
  <advance width="600"/>
  <unicode hex="0051"/>
  <anchor x="365.0" y="698.0" name="top"/>
  <outline>
    <contour>
      <point x="384" y="-182" type="curve" smooth="yes" identifier="RGVmN8md9d"/>
      <point x="421" y="-182" identifier="VEu7GKoxdH"/>
      <point x="441" y="-163" identifier="ANVSWfyv2K"/>
      <point x="484" y="-122" type="curve" smooth="yes" identifier="p80ZloPLyw"/>
      <point x="545" y="-64" type="line" identifier="UpXIfaCZFx"/>
      <point x="501" y="-27" type="line" identifier="QaWi5hrusU"/>
      <point x="401" y="-117" type="line" identifier="odeONzWUBb"/>
      <point x="388" y="-114" type="line" identifier="kn0x7l30bt"/>
      <point x="316" y="-6" type="line" identifier="LDkfhrmC9e"/>
      <point x="517" y="35" identifier="NIpHgsHc9i"/>
      <point x="570" y="307" identifier="B8PeKG1DnQ"/>
      <point x="570" y="473" type="curve" smooth="yes" identifier="AD43I85hcz"/>
      <point x="570" y="625" identifier="uMKPMVi3nR"/>
      <point x="508" y="710" identifier="AHju8VbVGW"/>
      <point x="372" y="710" type="curve" smooth="yes" identifier="uligxkXuaR"/>
      <point x="122" y="710" identifier="uoKFXhyg3M"/>
      <point x="62" y="401" identifier="EALrvXGtuX"/>
      <point x="62" y="225" type="curve" smooth="yes" identifier="OS2jowoS6c"/>
      <point x="62" y="85" identifier="JIgiAyw4kC"/>
      <point x="114" y="1" identifier="ZV6hFc3t9h"/>
      <point x="229" y="-10" type="curve" identifier="PImhO8jNFK"/>
      <point x="316" y="-137" type="line" smooth="yes" identifier="uFLvRfnfwQ"/>
      <point x="334" y="-163" identifier="kxWf1lL3CS"/>
      <point x="353" y="-182" identifier="6LBrAFIJOl"/>
    </contour>
    <contour>
      <point x="266" y="60" type="curve" smooth="yes" identifier="T2F1j0tnz1"/>
      <point x="178" y="60" identifier="DsUWeCUzaD"/>
      <point x="143" y="115" identifier="j46OubijZo"/>
      <point x="143" y="210" type="curve" smooth="yes" identifier="hdOypH6i8L"/>
      <point x="143" y="233" identifier="Rx2AyR4oKQ"/>
      <point x="145" y="262" identifier="cwPqm093FX"/>
      <point x="150" y="292" type="curve" smooth="yes" identifier="2Oub8FIIYO"/>
      <point x="169" y="406" type="line" smooth="yes" identifier="WvdCzH2lv3"/>
      <point x="193" y="549" identifier="l4DJLGNp0t"/>
      <point x="259" y="638" identifier="QGR27ZiYoN"/>
      <point x="366" y="638" type="curve" smooth="yes" identifier="oTdVeK0jrB"/>
      <point x="454" y="638" identifier="YPnHOv0LNW"/>
      <point x="489" y="583" identifier="XAceMX7IRt"/>
      <point x="489" y="488" type="curve" smooth="yes" identifier="OdRExWh6SB"/>
      <point x="489" y="465" identifier="ZjrfoShg3Q"/>
      <point x="487" y="436" identifier="EfGjX0IUKd"/>
      <point x="482" y="406" type="curve" smooth="yes" identifier="krKD76bWtd"/>
      <point x="463" y="292" type="line" smooth="yes" identifier="bNgofwJ5JH"/>
      <point x="439" y="149" identifier="ndOGiyYPPb"/>
      <point x="373" y="60" identifier="1ATLFj2tdb"/>
    </contour>
  </outline>
</glyph>
<glyph name="R" format="2">
  <advance width="600"/>
  <unicode hex="0052"/>
  <anchor x="265.0" y="0.0" name="bottom"/>
  <anchor x="354.0" y="698.0" name="top"/>
  <outline>
    <contour>
      <point x="179" y="299" type="line" identifier="TSwHvJfZWy"/>
      <point x="293" y="299" type="line" identifier="Q10NNW8PrV"/>
      <point x="412" y="0" type="line" identifier="jk1yPfXbDl"/>
      <point x="501" y="0" type="line" identifier="PYY80b5Pun"/>
      <point x="374" y="302" type="line" identifier="ygC5MgBtS4"/>
      <point x="506" y="311" identifier="JWEpPhkagN"/>
      <point x="584" y="395" identifier="peZ9RxyoQW"/>
      <point x="584" y="534" type="curve" smooth="yes" identifier="IipTD9uIJn"/>
      <point x="584" y="631" identifier="HKqh8D02b9"/>
      <point x="530" y="698" identifier="mo7w0lOO4l"/>
      <point x="413" y="698" type="curve" smooth="yes" identifier="1zzTFi5WU2"/>
      <point x="164" y="698" type="line" identifier="QcszmRrcy9"/>
      <point x="47" y="0" type="line" identifier="D2t6DBqFnQ"/>
      <point x="129" y="0" type="line" identifier="TJ3e5hYUPp"/>
    </contour>
    <contour>
      <point x="191" y="369" type="line" identifier="Ix0MIJA6mD"/>
      <point x="234" y="626" type="line" identifier="ldEmnaHLqR"/>
      <point x="403" y="626" type="line" smooth="yes" identifier="ZAtdrBccPf"/>
      <point x="464" y="626" identifier="0TgS074ulK"/>
      <point x="500" y="598" identifier="wwrvNUhzVs"/>
      <point x="500" y="543" type="curve" smooth="yes" identifier="FPafSm1DQt"/>
      <point x="500" y="530" identifier="yAoUwEIDGr"/>
      <point x="499" y="516" identifier="nJHZ11BTPu"/>
      <point x="497" y="504" type="curve" smooth="yes" identifier="h2eZ1qZEPM"/>
      <point x="491" y="468" type="line" smooth="yes" identifier="3HMZt3kUpK"/>
      <point x="480" y="402" identifier="6Gv7xGcx1n"/>
      <point x="431" y="369" identifier="3bLhcGdA1q"/>
      <point x="363" y="369" type="curve" smooth="yes" identifier="JnEEn6Ll7O"/>
    </contour>
  </outline>
</glyph>
<glyph name="S" format="2">
  <advance width="600"/>
  <unicode hex="0053"/>
  <anchor x="269.0" y="0.0" name="bottom"/>
  <anchor x="356.0" y="698.0" name="top"/>
  <outline>
    <contour>
      <point x="266" y="-12" type="curve" smooth="yes" identifier="oN4Su1aFi2"/>
      <point x="429" y="-12" identifier="1PzXgRIuPY"/>
      <point x="532" y="80" identifier="Lj5CKZBrUo"/>
      <point x="532" y="212" type="curve" smooth="yes" identifier="2FIqfQJ6Hx"/>
      <point x="532" y="297" identifier="XdpcT0uCH4"/>
      <point x="490" y="355" identifier="lI0JIdm7h0"/>
      <point x="374" y="382" type="curve" smooth="yes" identifier="mFldMBjBHO"/>
      <point x="301" y="399" type="line" smooth="yes" identifier="JF2ciSYCua"/>
      <point x="227" y="416" identifier="rZH62dfy2Z"/>
      <point x="188" y="444" identifier="H7RluslCio"/>
      <point x="188" y="508" type="curve" smooth="yes" identifier="EHVSSCrMXn"/>
      <point x="188" y="589" identifier="obFLEMwOaJ"/>
      <point x="250" y="640" identifier="qCifEIswjo"/>
      <point x="351" y="640" type="curve" smooth="yes" identifier="duiwvh8eS7"/>
      <point x="430" y="640" identifier="6tCuIUwLzD"/>
      <point x="484" y="609" identifier="yoIaAm5Rq0"/>
      <point x="523" y="551" type="curve" identifier="l6rcl01Cr2"/>
      <point x="583" y="595" type="line" identifier="JeRdzHwhfP"/>
      <point x="547" y="658" identifier="X69quMQsvv"/>
      <point x="476" y="710" identifier="MXfhnfgBEg"/>
      <point x="355" y="710" type="curve" smooth="yes" identifier="aOAswLeJgU"/>
      <point x="206" y="710" identifier="D5cxGWYPHs"/>
      <point x="104" y="631" identifier="6MYrsWdPBc"/>
      <point x="104" y="502" type="curve" smooth="yes" identifier="Cj5P8VtuLR"/>
      <point x="104" y="412" identifier="rZ5mcRTR3e"/>
      <point x="153" y="356" identifier="wsTB6WTZOX"/>
      <point x="263" y="331" type="curve" smooth="yes" identifier="ZUx9gLG9gM"/>
      <point x="338" y="314" type="line" smooth="yes" identifier="YxruvVg6D0"/>
      <point x="419" y="296" identifier="46GZKopTJd"/>
      <point x="448" y="262" identifier="89otYeuWfa"/>
      <point x="448" y="205" type="curve" smooth="yes" identifier="GvmseSemth"/>
      <point x="448" y="116" identifier="kCR2I4dtNc"/>
      <point x="379" y="59" identifier="Zqct6auO2z"/>
      <point x="270" y="59" type="curve" smooth="yes" identifier="KJuTjcbtJg"/>
      <point x="186" y="59" identifier="5kDJ73XfLn"/>
      <point x="130" y="93" identifier="AybeBQaEZI"/>
      <point x="87" y="160" type="curve" identifier="XAbLF5MLqP"/>
      <point x="25" y="111" type="line" identifier="BcNPZHBbnZ"/>
      <point x="66" y="39" identifier="9N5YkTKbtq"/>
      <point x="145" y="-12" identifier="M7sejvEXq0"/>
    </contour>
  </outline>
</glyph>
<glyph name="T" format="2">
  <advance width="600"/>
  <unicode hex="0054"/>
  <anchor x="258.0" y="0.0" name="bottom"/>
  <anchor x="368.0" y="698.0" name="top"/>
  <outline>
    <contour>
      <point x="637" y="626" type="line" identifier="OHUyNdMkyf"/>
      <point x="649" y="698" type="line" identifier="qOvSv42950"/>
      <point x="99" y="698" type="line" identifier="joNjqT3QNa"/>
      <point x="87" y="626" type="line" identifier="nuDo5gkSIt"/>
      <point x="321" y="626" type="line" identifier="kyRdc2FrJV"/>
      <point x="216" y="0" type="line" identifier="Q30pXOotef"/>
      <point x="298" y="0" type="line" identifier="rhXzf37s7V"/>
      <point x="403" y="626" type="line" identifier="vL6S4xlwiB"/>
    </contour>
  </outline>
</glyph>
<glyph name="U" format="2">
  <advance width="600"/>
  <unicode hex="0055"/>
  <anchor x="256.0" y="0.0" name="bottom"/>
  <anchor x="364.0" y="0.0" name="bottomright"/>
  <anchor x="367.0" y="698.0" name="top"/>
  <outline>
    <contour>
      <point x="154" y="698" type="line" identifier="5SsiyctPnO"/>
      <point x="91" y="323" type="line" smooth="yes" identifier="zgRs0chsj0"/>
      <point x="82" y="269" identifier="boGYpCZGA7"/>
      <point x="73" y="209" identifier="1QsjS5Dk3m"/>
      <point x="73" y="166" type="curve" smooth="yes" identifier="Vab5aQpvuS"/>
      <point x="73" y="52" identifier="5RHko3pn5R"/>
      <point x="126" y="-12" identifier="v1O8eCe67e"/>
      <point x="269" y="-12" type="curve" smooth="yes" identifier="h8VnZl5fIw"/>
      <point x="452" y="-12" identifier="RBI8zYNtvg"/>
      <point x="489" y="84" identifier="1wjnq8Y55l"/>
      <point x="524" y="291" type="curve" smooth="yes" identifier="79SLDG769l"/>
      <point x="592" y="698" type="line" identifier="JjvFDHscAi"/>
      <point x="510" y="698" type="line" identifier="otnSFsJhm4"/>
      <point x="439" y="274" type="line" smooth="yes" identifier="t0qAe6KkFn"/>
      <point x="416" y="137" identifier="Sk7wObDgQp"/>
      <point x="398" y="60" identifier="OnHLO2iXCm"/>
      <point x="266" y="60" type="curve" smooth="yes" identifier="eLbIB5Dhht"/>
      <point x="177" y="60" identifier="6ODOsdLi07"/>
      <point x="154" y="104" identifier="FJIu4s3AOK"/>
      <point x="154" y="173" type="curve" smooth="yes" identifier="eKLGBh1AEV"/>
      <point x="154" y="198" identifier="LxCPwUmnm9"/>
      <point x="157" y="226" identifier="yRuIHgigaT"/>
      <point x="169" y="298" type="curve" smooth="yes" identifier="KfPNdZsM3A"/>
      <point x="236" y="698" type="line" identifier="zOH2rUJzOu"/>
    </contour>
  </outline>
</glyph>
<glyph name="V" format="2">
  <advance width="600"/>
  <unicode hex="0056"/>
  <anchor x="255.0" y="0.0" name="bottom"/>
  <anchor x="355.0" y="698.0" name="top"/>
  <outline>
    <contour>
      <point x="313" y="0" type="line" identifier="mlLyE21KUd"/>
      <point x="635" y="698" type="line" identifier="27n0b7Y76a"/>
      <point x="549" y="698" type="line" identifier="CFDMc4IR4b"/>
      <point x="392" y="349" type="line" identifier="nBoo6y68DZ"/>
      <point x="271" y="81" type="line" identifier="PPdy8a2a07"/>
      <point x="266" y="81" type="line" identifier="KJEDmr6iCu"/>
      <point x="231" y="349" type="line" identifier="kL1n13oVum"/>
      <point x="187" y="698" type="line" identifier="ebijcMX6Kh"/>
      <point x="109" y="698" type="line" identifier="5hDDVnL6ty"/>
      <point x="201" y="0" type="line" identifier="AK3ARJMyni"/>
    </contour>
  </outline>
</glyph>
<glyph name="W" format="2">
  <advance width="600"/>
  <unicode hex="0057"/>
  <anchor x="258.0" y="0.0" name="bottom"/>
  <anchor x="363.0" y="698.0" name="top"/>
  <outline>
    <contour>
      <point x="167" y="0" type="line" identifier="aFg3qMiH0x"/>
      <point x="322" y="421" type="line" identifier="6RJTK8oWc6"/>
      <point x="330" y="421" type="line" identifier="tGPFaC76Je"/>
      <point x="345" y="0" type="line" identifier="YN0fIknpRe"/>
      <point x="466" y="0" type="line" identifier="xRc1S9bnBJ"/>
      <point x="637" y="698" type="line" identifier="GUzOMX4XeE"/>
      <point x="562" y="698" type="line" identifier="Ze0BAPFNPd"/>
      <point x="467" y="298" type="line" identifier="OYXJVJ1nvJ"/>
      <point x="416" y="82" type="line" identifier="WHH4cRyx5m"/>
      <point x="408" y="82" type="line" identifier="KaPEzUnlx9"/>
      <point x="387" y="516" type="line" identifier="2gicGk2kU2"/>
      <point x="293" y="516" type="line" identifier="DOseSPCHZg"/>
      <point x="130" y="82" type="line" identifier="t12L15fE5v"/>
      <point x="122" y="82" type="line" identifier="CelEy4PdUx"/>
      <point x="143" y="305" type="line" identifier="epkdfD6Ihu"/>
      <point x="180" y="698" type="line" identifier="B0Pb4JOmjo"/>
      <point x="107" y="698" type="line" identifier="1CTL45zrpu"/>
      <point x="46" y="0" type="line" identifier="vyK9YMy5ty"/>
    </contour>
  </outline>
</glyph>
<glyph name="X" format="2">
  <advance width="600"/>
  <unicode hex="0058"/>
  <anchor x="261.0" y="0.0" name="bottom"/>
  <anchor x="377.0" y="698.0" name="top"/>
  <outline>
    <contour>
      <point x="367" y="353" type="line" identifier="NNsNTTKjXa"/>
      <point x="643" y="698" type="line" identifier="mUj9kIKIaA"/>
      <point x="547" y="698" type="line" identifier="xZdAPwqokv"/>
      <point x="441" y="563" type="line" identifier="7I1mbV7uAu"/>
      <point x="332" y="425" type="line" identifier="ZEJc37NYCd"/>
      <point x="328" y="425" type="line" identifier="lezpLDA8OL"/>
      <point x="264" y="563" type="line" identifier="OKB4CiiE4n"/>
      <point x="202" y="698" type="line" identifier="S4a5V1quPa"/>
      <point x="114" y="698" type="line" identifier="OVrBGMe2kk"/>
      <point x="275" y="360" type="line" identifier="ZS2P0axaGl"/>
      <point x="-16" y="0" type="line" identifier="6lkkxw1He8"/>
      <point x="80" y="0" type="line" identifier="GCJp4TluQ2"/>
      <point x="191" y="141" type="line" identifier="pYtDHHosgY"/>
      <point x="309" y="290" type="line" identifier="w0vXeKFYLk"/>
      <point x="313" y="290" type="line" identifier="8Dba9j4Xhq"/>
      <point x="381" y="141" type="line" identifier="7BQf50wih3"/>
      <point x="445" y="0" type="line" identifier="hkV3f2RxDD"/>
      <point x="533" y="0" type="line" identifier="msvJc9Ddso"/>
    </contour>
  </outline>
</glyph>
<glyph name="Y" format="2">
  <advance width="600"/>
  <unicode hex="0059"/>
  <anchor x="259.0" y="0.0" name="bottom"/>
  <anchor x="364.0" y="698.0" name="top"/>
  <outline>
    <contour>
      <point x="298" y="0" type="line" identifier="tRXx7WwBH9"/>
      <point x="345" y="279" type="line" identifier="RjU025aIhf"/>
      <point x="656" y="698" type="line" identifier="HHr3ocGyuz"/>
      <point x="558" y="698" type="line" identifier="byWSGKdqVK"/>
      <point x="427" y="515" type="line" identifier="MJisRIjAw8"/>
      <point x="312" y="354" type="line" identifier="NkOgge0I6d"/>
      <point x="308" y="354" type="line" identifier="PPSuzUOvDq"/>
      <point x="249" y="515" type="line" identifier="izJNgoY0VP"/>
      <point x="178" y="698" type="line" identifier="4fUI6FwQFF"/>
      <point x="90" y="698" type="line" identifier="swjpCJuqxX"/>
      <point x="262" y="272" type="line" identifier="Qozoo9Aybf"/>
      <point x="216" y="0" type="line" identifier="sdOIlpoXC3"/>
    </contour>
  </outline>
</glyph>
<glyph name="Z" format="2">
  <advance width="600"/>
  <unicode hex="005A"/>
  <anchor x="257.0" y="0.0" name="bottom"/>
  <anchor x="364.0" y="698.0" name="top"/>
  <outline>
    <contour>
      <point x="520" y="72" type="line" identifier="eI8YSci59D"/>
      <point x="111" y="72" type="line" identifier="WEMtCEPq9n"/>
      <point x="597" y="624" type="line" identifier="fm2cMl3VuL"/>
      <point x="609" y="698" type="line" identifier="JpPHnTT9dO"/>
      <point x="141" y="698" type="line" identifier="WDG6MDzODl"/>
      <point x="129" y="626" type="line" identifier="1feDAfXquz"/>
      <point x="503" y="626" type="line" identifier="ldNxUY1NwZ"/>
      <point x="17" y="74" type="line" identifier="9hVndyiMNd"/>
      <point x="5" y="0" type="line" identifier="9bbC1QRAwN"/>
      <point x="508" y="0" type="line" identifier="fb9pr4sgxg"/>
    </contour>
  </outline>
</glyph>
<glyph name="bracketleft" format="2">
  <advance width="600"/>
  <unicode hex="005B"/>
  <outline>
    <contour>
      <point x="436" y="-138" type="line" identifier="CZqvyys9tE"/>
      <point x="446" y="-77" type="line" identifier="dtyoeOXFe9"/>
      <point x="238" y="-77" type="line" identifier="IuPZuKGgRP"/>
      <point x="367" y="699" type="line" identifier="3xshZBhKIU"/>
      <point x="576" y="699" type="line" identifier="hrFVSxzeYl"/>
      <point x="586" y="760" type="line" identifier="RlkL2fx79j"/>
      <point x="310" y="760" type="line" identifier="RIAebTeHiM"/>
      <point x="160" y="-138" type="line" identifier="Hd7ypZsGjy"/>
    </contour>
  </outline>
</glyph>
<glyph name="backslash" format="2">
  <advance width="600"/>
  <unicode hex="005C"/>
  <outline>
    <contour>
      <point x="443" y="-138" type="line" identifier="K7iKEajAEX"/>
      <point x="245" y="760" type="line" identifier="m4kzgQy5N5"/>
      <point x="182" y="760" type="line" identifier="wDcueWAtAN"/>
      <point x="380" y="-138" type="line" identifier="zJZHokVgHO"/>
    </contour>
  </outline>
</glyph>
<glyph name="bracketright" format="2">
  <advance width="600"/>
  <unicode hex="005D"/>
  <outline>
    <contour>
      <point x="160" y="760" type="line" identifier="BJZE9x1VIE"/>
      <point x="149" y="699" type="line" identifier="6iuS0Sc5GQ"/>
      <point x="358" y="699" type="line" identifier="Vj2GhAYKSu"/>
      <point x="229" y="-77" type="line" identifier="6r4nCcpqIL"/>
      <point x="20" y="-77" type="line" identifier="5YTUA0LzxD"/>
      <point x="10" y="-138" type="line" identifier="wmHy8LYIzW"/>
      <point x="286" y="-138" type="line" identifier="duN5b9vsoZ"/>
      <point x="436" y="760" type="line" identifier="SQf7s8BK4A"/>
    </contour>
  </outline>
</glyph>
<glyph name="asciicircum" format="2">
  <advance width="600"/>
  <unicode hex="005E"/>
  <outline>
    <contour>
      <point x="572" y="320" type="line" identifier="OU4K3GQfj1"/>
      <point x="422" y="698" type="line" identifier="o35jkIGpmK"/>
      <point x="334" y="698" type="line" identifier="LOFk2n2a5I"/>
      <point x="65" y="328" type="line" identifier="FaCW8XnLbR"/>
      <point x="123" y="293" type="line" identifier="VjKOY5YIxL"/>
      <point x="367" y="630" type="line" identifier="7BLcv94mF2"/>
      <point x="371" y="630" type="line" identifier="HBN7ABro1i"/>
      <point x="507" y="293" type="line" identifier="PRhsabH4F9"/>
    </contour>
  </outline>
</glyph>
<glyph name="underscore" format="2">
  <advance width="600"/>
  <unicode hex="005F"/>
  <outline>
    <contour>
      <point x="477" y="-167" type="line" identifier="wHqdqjIF3c"/>
      <point x="489" y="-95" type="line" identifier="IzP2witPUW"/>
      <point x="14" y="-95" type="line" identifier="PbIt62YpOU"/>
      <point x="2" y="-167" type="line" identifier="NGC66Wff3f"/>
    </contour>
  </outline>
</glyph>
<glyph name="grave" format="2">
  <advance width="600"/>
  <unicode hex="0060"/>
  <anchor x="300.0" y="516.0" name="_top"/>
  <outline>
    <contour>
      <point x="304" y="585" type="line" identifier="zFaOhM4sSh"/>
      <point x="355" y="605" type="line" identifier="BhMq23QTl8"/>
      <point x="303" y="779" type="line" identifier="s9TMIdPDnT"/>
      <point x="229" y="752" type="line" identifier="TXSG4jLK61"/>
    </contour>
  </outline>
</glyph>
<glyph name="a" format="2">
  <advance width="600"/>
  <unicode hex="0061"/>
  <anchor x="240.0" y="0.0" name="bottom"/>
  <anchor x="524.0" y="0.0" name="bottomright"/>
  <anchor x="316.0" y="516.0" name="top"/>
  <outline>
    <contour>
      <point x="213" y="-12" type="curve" smooth="yes" identifier="mjk8Lka7Nk"/>
      <point x="302" y="-12" identifier="HmbZcJa8sU"/>
      <point x="352" y="41" identifier="HwuMO9RjZp"/>
      <point x="392" y="122" type="curve" identifier="uCk6m4WxKv"/>
      <point x="395" y="122" type="line" identifier="rIPZOCGxjO"/>
      <point x="389" y="85" type="line" smooth="yes" identifier="pK7khvMNRb"/>
      <point x="381" y="38" identifier="1CkfjAZenE"/>
      <point x="402" y="0" identifier="lLHMOFeYTb"/>
      <point x="466" y="0" type="curve" smooth="yes" identifier="UkhyzDJ6oS"/>
      <point x="524" y="0" type="line" identifier="V6x4zPVB8z"/>
      <point x="536" y="70" type="line" identifier="G7DsK06s9g"/>
      <point x="465" y="70" type="line" identifier="8vfN3SdwJ4"/>
      <point x="539" y="516" type="line" identifier="hAhQ7uchhn"/>
      <point x="461" y="516" type="line" identifier="qkefLImS5V"/>
      <point x="446" y="426" type="line" identifier="aDcnesSg7s"/>
      <point x="443" y="426" type="line" identifier="796OUHAAxl"/>
      <point x="421" y="493" identifier="2CtnuA11Ay"/>
      <point x="370" y="528" identifier="skcXiBLQG2"/>
      <point x="296" y="528" type="curve" smooth="yes" identifier="wUenh5pu1Y"/>
      <point x="117" y="528" identifier="CzizQOBqQz"/>
      <point x="56" y="326" identifier="OY66chYDIF"/>
      <point x="56" y="188" type="curve" smooth="yes" identifier="m96wO6cqHo"/>
      <point x="56" y="56" identifier="SU97867vTF"/>
      <point x="112" y="-12" identifier="xZ95qm5QdG"/>
    </contour>
    <contour>
      <point x="240" y="57" type="curve" smooth="yes" identifier="g7Z6uA6oA9"/>
      <point x="171" y="57" identifier="zCWUQE9F78"/>
      <point x="135" y="103" identifier="Tszobi3OEt"/>
      <point x="135" y="180" type="curve" smooth="yes" identifier="LTBQLNrwcE"/>
      <point x="135" y="193" identifier="5UUmUTa559"/>
      <point x="136" y="207" identifier="Jk5Xzr58B8"/>
      <point x="139" y="225" type="curve" smooth="yes" identifier="mV4oy04KRO"/>
      <point x="151" y="297" type="line" smooth="yes" identifier="Nx2leZCQAb"/>
      <point x="167" y="393" identifier="iTbvxqVB42"/>
      <point x="222" y="459" identifier="B69BtV0noA"/>
      <point x="318" y="459" type="curve" smooth="yes" identifier="ICCSJUSN2l"/>
      <point x="394" y="459" identifier="oc9ftFvpLy"/>
      <point x="445" y="418" identifier="nmDPYgQDy7"/>
      <point x="433" y="346" type="curve" smooth="yes" identifier="w2aTL5s07g"/>
      <point x="414" y="232" type="line" smooth="yes" identifier="nZFTSCBkYO"/>
      <point x="406" y="185" identifier="PwLtQWKVv7"/>
      <point x="385" y="144" identifier="13iV27qyuC"/>
      <point x="359" y="114" type="curve" smooth="yes" identifier="jPUWNzpv6f"/>
      <point x="324" y="74" identifier="cOIiuFIBuw"/>
      <point x="282" y="57" identifier="MUuqyMTUli"/>
    </contour>
  </outline>
</glyph>
<glyph name="b" format="2">
  <advance width="600"/>
  <unicode hex="0062"/>
  <anchor x="291.0" y="0.0" name="bottom"/>
  <outline>
    <contour>
      <point x="53" y="0" type="line" identifier="KAWgQFG9A3"/>
      <point x="131" y="0" type="line" identifier="CDj4OAYwcc"/>
      <point x="146" y="90" type="line" identifier="yNQQGS8amL"/>
      <point x="149" y="90" type="line" identifier="MouUbML9S6"/>
      <point x="171" y="23" identifier="8HgMkRABkZ"/>
      <point x="224" y="-12" identifier="q18RVwgTxJ"/>
      <point x="300" y="-12" type="curve" smooth="yes" identifier="ZyuWCsnqlc"/>
      <point x="482" y="-12" identifier="g9PIttVoqV"/>
      <point x="544" y="190" identifier="t3lpCZ9W8h"/>
      <point x="544" y="328" type="curve" smooth="yes" identifier="zjcJR1kUp4"/>
      <point x="544" y="460" identifier="CCdmOb0GRg"/>
      <point x="487" y="528" identifier="ORlvKB9qTz"/>
      <point x="383" y="528" type="curve" smooth="yes" identifier="Sdrb59cHBt"/>
      <point x="292" y="528" identifier="s1ZMeKp0zE"/>
      <point x="240" y="475" identifier="8oooNL2o5Z"/>
      <point x="200" y="394" type="curve" identifier="IYnjpiGzXq"/>
      <point x="197" y="394" type="line" identifier="CJHVZ29VNY"/>
      <point x="255" y="740" type="line" identifier="L9v8O5GC8T"/>
      <point x="177" y="740" type="line" identifier="2XUyq79mY0"/>
    </contour>
    <contour>
      <point x="276" y="57" type="curve" smooth="yes" identifier="TWaPuJQ4ay"/>
      <point x="199" y="57" identifier="Bc4uIlc9Oj"/>
      <point x="147" y="98" identifier="EYjDP1DBMw"/>
      <point x="159" y="170" type="curve" smooth="yes" identifier="9OPkZWFbWA"/>
      <point x="178" y="284" type="line" smooth="yes" identifier="jVkFeH1iRC"/>
      <point x="186" y="332" identifier="9qjTaz8wGq"/>
      <point x="209" y="373" identifier="zbWoVXs5K8"/>
      <point x="235" y="402" type="curve" smooth="yes" identifier="2nG0YTdZ8e"/>
      <point x="271" y="442" identifier="BrPznIXxIV"/>
      <point x="313" y="459" identifier="PqgIydx1Fz"/>
      <point x="356" y="459" type="curve" smooth="yes" identifier="yMOzxKY4HR"/>
      <point x="428" y="459" identifier="TakTJBKzC5"/>
      <point x="465" y="413" identifier="OPtDo6bmrA"/>
      <point x="465" y="336" type="curve" smooth="yes" identifier="y5rA1Q3PKl"/>
      <point x="465" y="323" identifier="Tu5MniP5Qf"/>
      <point x="464" y="309" identifier="yooZ9QfDAw"/>
      <point x="461" y="291" type="curve" smooth="yes" identifier="hFBSdE1BLM"/>
      <point x="449" y="219" type="line" smooth="yes" identifier="H8TpzxMKKx"/>
      <point x="433" y="123" identifier="x9mVFtSQO1"/>
      <point x="375" y="57" identifier="Hd0XOTndzc"/>
    </contour>
  </outline>
</glyph>
<glyph name="c" format="2">
  <advance width="600"/>
  <unicode hex="0063"/>
  <anchor x="272.0" y="0.0" name="bottom"/>
  <anchor x="339.0" y="516.0" name="top"/>
  <outline>
    <contour>
      <point x="270" y="-12" type="curve" smooth="yes" identifier="kcmf2ZHoR4"/>
      <point x="378" y="-12" identifier="QDlmn8CN3H"/>
      <point x="443" y="44" identifier="ltnphQHEcp"/>
      <point x="508" y="149" type="curve" identifier="tfZs2OyACP"/>
      <point x="452" y="182" type="line" identifier="29kPQYPSjT"/>
      <point x="370" y="69" identifier="42YRx2wrgW"/>
      <point x="326" y="56" identifier="WjunH59UeO"/>
      <point x="280" y="56" type="curve" smooth="yes" identifier="CnzWXC8Fxq"/>
      <point x="205" y="56" identifier="hg4oubgcwK"/>
      <point x="154" y="97" identifier="KMtVb5TpbW"/>
      <point x="154" y="185" type="curve" smooth="yes" identifier="stnvImbt4t"/>
      <point x="154" y="198" identifier="gmOmwtN2Gr"/>
      <point x="155" y="209" identifier="iqfyLqt2ds"/>
      <point x="159" y="233" type="curve" smooth="yes" identifier="d717eWxTDj"/>
      <point x="169" y="293" type="line" smooth="yes" identifier="RORQS7WrJx"/>
      <point x="187" y="401" identifier="iFVkMzZqcf"/>
      <point x="244" y="460" identifier="UnXUdJ34ai"/>
      <point x="332" y="460" type="curve" smooth="yes" identifier="rkDltp7wb5"/>
      <point x="396" y="460" identifier="ypug8Lmxlg"/>
      <point x="434" y="441" identifier="965LmgXth0"/>
      <point x="454" y="378" type="curve" identifier="rsTxVLgpBg"/>
      <point x="521" y="404" type="line" identifier="kXKEPzePaL"/>
      <point x="503" y="472" identifier="KFta0sDu5Q"/>
      <point x="450" y="528" identifier="QeAnNsvNHr"/>
      <point x="341" y="528" type="curve" smooth="yes" identifier="i2ygXjMwWT"/>
      <point x="194" y="528" identifier="aRWW4tNakL"/>
      <point x="75" y="403" identifier="zx6zhN6tUz"/>
      <point x="75" y="206" type="curve" smooth="yes" identifier="UznHysWBTA"/>
      <point x="75" y="77" identifier="5ScllkszKn"/>
      <point x="142" y="-12" identifier="AF4Pn4gwFT"/>
    </contour>
  </outline>
</glyph>
<glyph name="d" format="2">
  <advance width="600"/>
  <unicode hex="0064"/>
  <anchor x="227.0" y="0.0" name="bottom"/>
  <anchor x="647.0" y="740.0" name="topright"/>
  <outline>
    <contour>
      <point x="383" y="0" type="line" identifier="ve3XYZwHjd"/>
      <point x="461" y="0" type="line" identifier="Yj2w0yOWvp"/>
      <point x="585" y="740" type="line" identifier="TRIJSoAwt7"/>
      <point x="507" y="740" type="line" identifier="gjg7rT543P"/>
      <point x="454" y="426" type="line" identifier="6VPzGB3Gml"/>
      <point x="451" y="426" type="line" identifier="PvQhJ0eGVE"/>
      <point x="429" y="493" identifier="jEl1GSo8TM"/>
      <point x="376" y="528" identifier="nYmmkiWaJa"/>
      <point x="300" y="528" type="curve" smooth="yes" identifier="wd6GV92EYn"/>
      <point x="118" y="528" identifier="djYEFs07B0"/>
      <point x="56" y="326" identifier="GfDO2dZyYg"/>
      <point x="56" y="188" type="curve" smooth="yes" identifier="lsPJcQgd6P"/>
      <point x="56" y="56" identifier="ke6I4DWv5N"/>
      <point x="113" y="-12" identifier="KGr2uWXdnS"/>
      <point x="217" y="-12" type="curve" smooth="yes" identifier="R2oiW9mW0E"/>
      <point x="308" y="-12" identifier="O1cW16l6MY"/>
      <point x="360" y="41" identifier="TyxxcHi8XW"/>
      <point x="400" y="122" type="curve" identifier="I0nhrJYYUQ"/>
      <point x="403" y="122" type="line" identifier="xXbRFv3b12"/>
    </contour>
    <contour>
      <point x="244" y="57" type="curve" smooth="yes" identifier="pxhvEkbthS"/>
      <point x="172" y="57" identifier="yyqfMU7U9D"/>
      <point x="135" y="103" identifier="emWLI8ODfV"/>
      <point x="135" y="180" type="curve" smooth="yes" identifier="iUsCT2MZyA"/>
      <point x="135" y="193" identifier="799BaFEyth"/>
      <point x="136" y="207" identifier="w7LZavZRLS"/>
      <point x="139" y="225" type="curve" smooth="yes" identifier="7n7bIvDLKa"/>
      <point x="151" y="297" type="line" smooth="yes" identifier="nkwy6PPQ47"/>
      <point x="167" y="393" identifier="sb2IVF13pE"/>
      <point x="224" y="459" identifier="V2oCFeN0PO"/>
      <point x="323" y="459" type="curve" smooth="yes" identifier="KK7QTXcjuq"/>
      <point x="400" y="459" identifier="6CNAmx7LuG"/>
      <point x="453" y="418" identifier="QTOOYw3LSd"/>
      <point x="441" y="346" type="curve" smooth="yes" identifier="u0NAmuDy3z"/>
      <point x="422" y="232" type="line" smooth="yes" identifier="xpgpKK71fS"/>
      <point x="414" y="184" identifier="xCHcoKrvZR"/>
      <point x="391" y="143" identifier="kRpooxnUAP"/>
      <point x="365" y="114" type="curve" smooth="yes" identifier="G7Xp1nudCS"/>
      <point x="329" y="74" identifier="b9ENP8pC0u"/>
      <point x="287" y="57" identifier="ngktghp7li"/>
    </contour>
  </outline>
</glyph>
<glyph name="e" format="2">
  <advance width="600"/>
  <unicode hex="0065"/>
  <anchor x="281.0" y="0.0" name="bottom"/>
  <anchor x="360.0" y="0.0" name="bottomright"/>
  <anchor x="354.0" y="516.0" name="top"/>
  <outline>
    <contour>
      <point x="277" y="-12" type="curve" smooth="yes" identifier="8O2ShRtIVI"/>
      <point x="386" y="-12" identifier="eY94dxt4Im"/>
      <point x="456" y="40" identifier="3LFYTx1xKE"/>
      <point x="514" y="135" type="curve" identifier="PYwfztxaJL"/>
      <point x="459" y="169" type="line" identifier="mpPhYkUEpN"/>
      <point x="401" y="87" identifier="8aVv0FsZqT"/>
      <point x="358" y="55" identifier="o1jCxUZGYo"/>
      <point x="284" y="55" type="curve" smooth="yes" identifier="TG3gKFOOva"/>
      <point x="176" y="55" identifier="CB2hOS8nfw"/>
      <point x="155" y="122" identifier="FrU2b3Pd15"/>
      <point x="155" y="194" type="curve" smooth="yes" identifier="FM1b7kkkk9"/>
      <point x="155" y="196" identifier="3rNE2ZWFrC"/>
      <point x="155" y="207" identifier="laUZEiRD7n"/>
      <point x="156" y="217" type="curve" identifier="3ahL2kzqRu"/>
      <point x="485" y="226" identifier="LMeu5PUmqJ"/>
      <point x="532" y="316" identifier="MRLFi1tkM0"/>
      <point x="532" y="389" type="curve" smooth="yes" identifier="GNYNfyQ4Bv"/>
      <point x="532" y="479" identifier="zwQtLqsMSw"/>
      <point x="458" y="528" identifier="dBvTr45M8a"/>
      <point x="357" y="528" type="curve" smooth="yes" identifier="YHrM6c7AOI"/>
      <point x="191" y="528" identifier="4dIu1insde"/>
      <point x="73" y="396" identifier="boVfqqND4D"/>
      <point x="73" y="209" type="curve" smooth="yes" identifier="8vs2FcH1JN"/>
      <point x="73" y="61" identifier="bvvCbVwEL5"/>
      <point x="147" y="-12" identifier="kBAyUwbZ8m"/>
    </contour>
    <contour>
      <point x="350" y="463" type="curve" smooth="yes" identifier="Z1LcnVy2IB"/>
      <point x="425" y="463" identifier="9LZjWmx7U3"/>
      <point x="452" y="428" identifier="19HGywjS5O"/>
      <point x="452" y="386" type="curve" smooth="yes" identifier="5biZ0WFNfw"/>
      <point x="452" y="336" identifier="UshvxZQEh8"/>
      <point x="414" y="279" identifier="OuxAL85rC2"/>
      <point x="162" y="271" type="curve" identifier="XQNpxMgqMl"/>
      <point x="163" y="281" type="line" smooth="yes" identifier="UFcLc5aRAl"/>
      <point x="178" y="398" identifier="aHUGGDfG12"/>
      <point x="246" y="463" identifier="nlposxH0CC"/>
    </contour>
  </outline>
</glyph>
<glyph name="f" format="2">
  <advance width="600"/>
  <unicode hex="0066"/>
  <outline>
    <contour>
      <point x="196" y="-212" type="curve" smooth="yes" identifier="LbYUqLHIek"/>
      <point x="256" y="-212" identifier="7mlYXTvkBf"/>
      <point x="283" y="-163" identifier="IFpAWavNyw"/>
      <point x="292" y="-107" type="curve" smooth="yes" identifier="2sFoCfrXmF"/>
      <point x="385" y="449" type="line" identifier="lQOJztviv5"/>
      <point x="594" y="449" type="line" identifier="iRkhaAbvaO"/>
      <point x="605" y="516" type="line" identifier="Yz87XNQ4gP"/>
      <point x="396" y="516" type="line" identifier="x5ydR6MIkz"/>
      <point x="422" y="673" type="line" identifier="nn4wdhoFWm"/>
      <point x="630" y="673" type="line" identifier="Gx79vZgnzm"/>
      <point x="641" y="740" type="line" identifier="MdYya6zCp4"/>
      <point x="468" y="740" type="line" smooth="yes" identifier="uD3quxktFa"/>
      <point x="391" y="740" identifier="Tz2BnNH4YN"/>
      <point x="347" y="691" identifier="d0Tp4IZcU1"/>
      <point x="336" y="623" type="curve" smooth="yes" identifier="URzd5cj7iL"/>
      <point x="318" y="516" type="line" identifier="sCE3xIBbe3"/>
      <point x="134" y="516" type="line" identifier="scbmOn6U0f"/>
      <point x="123" y="449" type="line" identifier="y0J28w5R5a"/>
      <point x="307" y="449" type="line" identifier="zBep06TPip"/>
      <point x="209" y="-138" type="line" identifier="DRL9F1grby"/>
      <point x="191" y="-142" type="line" identifier="O31fG8SS8G"/>
      <point x="37" y="22" type="line" identifier="vfZ94SJOnw"/>
      <point x="-16" y="-26" type="line" identifier="7LIifbCYEu"/>
      <point x="45" y="-93" type="line" smooth="yes" identifier="mjpRtp6vaJ"/>
      <point x="125" y="-180" identifier="58ZaC5771g"/>
      <point x="154" y="-212" identifier="veB1EbMnKe"/>
    </contour>
  </outline>
</glyph>
<glyph name="g" format="2">
  <advance width="600"/>
  <unicode hex="0067"/>
  <anchor x="328.0" y="516.0" name="top"/>
  <outline>
    <contour>
      <point x="212" y="-212" type="curve" smooth="yes" identifier="29UR0RnOiC"/>
      <point x="341" y="-212" identifier="QIz9DzP98M"/>
      <point x="435" y="-152" identifier="t9jx6sJjfc"/>
      <point x="461" y="0" type="curve" smooth="yes" identifier="1qL4pGlFCr"/>
      <point x="547" y="516" type="line" identifier="HEVGQJJ9Ti"/>
      <point x="469" y="516" type="line" identifier="SGxMnURTm1"/>
      <point x="454" y="426" type="line" identifier="nr4swoToUa"/>
      <point x="451" y="426" type="line" identifier="wUdxBXMquQ"/>
      <point x="429" y="493" identifier="Ztf6UdI5RR"/>
      <point x="376" y="528" identifier="rvoZJy2miW"/>
      <point x="300" y="528" type="curve" smooth="yes" identifier="1AijIwJsZL"/>
      <point x="122" y="528" identifier="pnOGzzCchv"/>
      <point x="57" y="334" identifier="SgIOSscKsq"/>
      <point x="57" y="201" type="curve" smooth="yes" identifier="O94oYisUf8"/>
      <point x="57" y="75" identifier="iGkb0seyuf"/>
      <point x="113" y="5" identifier="sBn7HfFVzG"/>
      <point x="219" y="5" type="curve" smooth="yes" identifier="wz44Dr7oIK"/>
      <point x="310" y="5" identifier="fLP8dHJhl9"/>
      <point x="364" y="56" identifier="0zRPSzCMIu"/>
      <point x="403" y="139" type="curve" identifier="GFsQofqY6E"/>
      <point x="407" y="139" type="line" identifier="DEhPdF47iH"/>
      <point x="386" y="15" type="line" smooth="yes" identifier="3XMBEUhcVD"/>
      <point x="367" y="-99" identifier="eybHuN0Cvr"/>
      <point x="311" y="-143" identifier="AWdQHiV1Uc"/>
      <point x="217" y="-143" type="curve" smooth="yes" identifier="ZH7lOrDuSN"/>
      <point x="154" y="-143" identifier="w9rc5QTpHs"/>
      <point x="112" y="-123" identifier="pHtaw4fIC6"/>
      <point x="85" y="-89" type="curve" identifier="INIvtlG9en"/>
      <point x="31" y="-141" type="line" identifier="OEb4rJuryj"/>
      <point x="68" y="-187" identifier="DgnbYRjVdF"/>
      <point x="129" y="-212" identifier="Zz7JqX0Q1w"/>
    </contour>
    <contour>
      <point x="246" y="74" type="curve" smooth="yes" identifier="DJvGE9OgfM"/>
      <point x="174" y="74" identifier="kaA6Hu8IQ9"/>
      <point x="137" y="119" identifier="guy26J4trK"/>
      <point x="137" y="201" type="curve" smooth="yes" identifier="96CiKkigQY"/>
      <point x="137" y="215" identifier="SW4RZMew4h"/>
      <point x="139" y="227" identifier="OGPQ5PwFpj"/>
      <point x="142" y="245" type="curve" smooth="yes" identifier="4pceGi3f5N"/>
      <point x="151" y="299" type="line" smooth="yes" identifier="hdKKU7XODC"/>
      <point x="167" y="395" identifier="Wyz0lmrFAd"/>
      <point x="226" y="459" identifier="8EyuQ6k5zU"/>
      <point x="323" y="459" type="curve" smooth="yes" identifier="Qt2fnA5cxt"/>
      <point x="400" y="459" identifier="Q9AJcOQLj8"/>
      <point x="453" y="418" identifier="FAoBWQQ4VA"/>
      <point x="441" y="346" type="curve" smooth="yes" identifier="q63IFcMt6h"/>
      <point x="425" y="248" type="line" smooth="yes" identifier="Nk8fx6kIGk"/>
      <point x="416" y="192" identifier="fCELRTMPeH"/>
      <point x="387" y="152" identifier="ea5s65920u"/>
      <point x="368" y="131" type="curve" smooth="yes" identifier="FdBD2gdUh2"/>
      <point x="331" y="90" identifier="NEYWHkATAA"/>
      <point x="289" y="74" identifier="r6tpzmsird"/>
    </contour>
  </outline>
</glyph>
<glyph name="h" format="2">
  <advance width="600"/>
  <unicode hex="0068"/>
  <anchor x="260.0" y="0.0" name="bottom"/>
  <anchor x="212.0" y="698.0" name="top"/>
  <outline>
    <contour>
      <point x="59" y="0" type="line" identifier="VWXVKZLQnj"/>
      <point x="137" y="0" type="line" identifier="doLDgALHDQ"/>
      <point x="185" y="285" type="line" smooth="yes" identifier="uWK1TG4iLB"/>
      <point x="195" y="344" identifier="fnYTMdNjVM"/>
      <point x="233" y="390" identifier="qYO5C20LHw"/>
      <point x="244" y="403" type="curve" smooth="yes" identifier="5rJAlYvhAI"/>
      <point x="273" y="437" identifier="HETQtvJfWO"/>
      <point x="308" y="459" identifier="1c1fwteF6m"/>
      <point x="353" y="459" type="curve" smooth="yes" identifier="UKuEHCTkAF"/>
      <point x="411" y="459" identifier="nHRlsSOcSX"/>
      <point x="439" y="421" identifier="WFEoU1NCHp"/>
      <point x="439" y="360" type="curve" smooth="yes" identifier="DgfRB3uypf"/>
      <point x="439" y="349" identifier="lo5C3JvucQ"/>
      <point x="438" y="329" identifier="rviX3NuduE"/>
      <point x="434" y="305" type="curve" smooth="yes" identifier="IfIEd9z2uC"/>
      <point x="383" y="0" type="line" identifier="AMWb3Dyg9A"/>
      <point x="461" y="0" type="line" identifier="DrZegeNwXH"/>
      <point x="513" y="312" type="line" smooth="yes" identifier="LDOdUiSvPw"/>
      <point x="517" y="335" identifier="AV4PMNTIXt"/>
      <point x="519" y="359" identifier="3XKH4iBw9s"/>
      <point x="519" y="379" type="curve" smooth="yes" identifier="ZXipiuNJ8c"/>
      <point x="519" y="473" identifier="NEno3aEvdI"/>
      <point x="465" y="528" identifier="IuWQ5X3KBL"/>
      <point x="379" y="528" type="curve" smooth="yes" identifier="PebIAAZMRH"/>
      <point x="296" y="528" identifier="ATTewa1UuM"/>
      <point x="245" y="476" identifier="x9LOAaEh2k"/>
      <point x="207" y="394" type="curve" identifier="PgO4OrKYvZ"/>
      <point x="203" y="394" type="line" identifier="cgfsIOkZie"/>
      <point x="261" y="740" type="line" identifier="1crx7m8fe1"/>
      <point x="183" y="740" type="line" identifier="7Cr4xA0WRY"/>
    </contour>
  </outline>
</glyph>
<glyph name="i" format="2">
  <advance width="600"/>
  <unicode hex="0069"/>
  <anchor x="264.0" y="0.0" name="bottom"/>
  <anchor x="322.0" y="0.0" name="bottomright"/>
  <outline>
    <contour>
      <point x="340" y="631" type="curve" smooth="yes" identifier="0C8UKJGzc3"/>
      <point x="380" y="631" identifier="8SL3JyVr9f"/>
      <point x="401" y="649" identifier="i1aP3CPO8Q"/>
      <point x="406" y="679" type="curve" smooth="yes" identifier="QwRUR2fnd1"/>
      <point x="408" y="691" identifier="zNgbY9v6cf"/>
      <point x="410" y="700" identifier="JjZDI3Ot6b"/>
      <point x="410" y="708" type="curve" smooth="yes" identifier="LWba7niquu"/>
      <point x="410" y="729" identifier="ILdRbnqMny"/>
      <point x="395" y="748" identifier="B92DIosFlR"/>
      <point x="352" y="748" type="curve" smooth="yes" identifier="nKKUIMfv5P"/>
      <point x="312" y="748" identifier="lWCeesXKpv"/>
      <point x="291" y="730" identifier="3z1zJXWiDJ"/>
      <point x="286" y="700" type="curve" smooth="yes" identifier="zio0F1IGNY"/>
      <point x="284" y="688" identifier="aBnfwlMqsj"/>
      <point x="282" y="679" identifier="VOGeviCg2b"/>
      <point x="282" y="671" type="curve" smooth="yes" identifier="OZt0GsUNB5"/>
      <point x="282" y="650" identifier="h3vHkHuztj"/>
      <point x="297" y="631" identifier="0vVsGWRZuw"/>
    </contour>
    <contour>
      <point x="272" y="-12" type="curve" smooth="yes" identifier="Pba7jlbajZ"/>
      <point x="317" y="-12" identifier="NrCmAct6uI"/>
      <point x="354" y="12" identifier="T1byyP66HQ"/>
      <point x="448" y="99" type="curve" smooth="yes" identifier="xKWIrDTlGM"/>
      <point x="539" y="183" type="line" identifier="wjssNSQlcs"/>
      <point x="492" y="227" type="line" identifier="jvFwZmAqly"/>
      <point x="295" y="57" type="line" identifier="AZlWZSRaIm"/>
      <point x="272" y="66" type="line" identifier="AWLZa9SCUR"/>
      <point x="359" y="516" type="line" identifier="0uSV9Neod9"/>
      <point x="93" y="516" type="line" identifier="nvmzBlU51V"/>
      <point x="82" y="449" type="line" identifier="EfbJ3SRiRn"/>
      <point x="268" y="449" type="line" identifier="hYiJ0vX8iF"/>
      <point x="200" y="97" type="line" smooth="yes" identifier="V9Ydela7re"/>
      <point x="198" y="85" identifier="18oR9NMITr"/>
      <point x="195" y="70" identifier="APpIKY4UeU"/>
      <point x="195" y="57" type="curve" smooth="yes" identifier="DwqVDFvnMh"/>
      <point x="195" y="17" identifier="0t8kMMjfes"/>
      <point x="222" y="-12" identifier="ndwvpRj43j"/>
    </contour>
  </outline>
</glyph>
<glyph name="j" format="2">
  <advance width="600"/>
  <unicode hex="006A"/>
  <outline>
    <contour>
      <point x="275" y="-212" type="curve" smooth="yes" identifier="QeL4v515Zd"/>
      <point x="334" y="-212" identifier="C9hN2Gu5aV"/>
      <point x="361" y="-162" identifier="PCivp3ejQu"/>
      <point x="370" y="-107" type="curve" smooth="yes" identifier="oK6S3tmOhk"/>
      <point x="474" y="516" type="line" identifier="4EhUVLGhXl"/>
      <point x="183" y="516" type="line" identifier="yfK1jmoV3f"/>
      <point x="172" y="449" type="line" identifier="62W0YvoXvu"/>
      <point x="385" y="449" type="line" identifier="BquDOb0V93"/>
      <point x="287" y="-138" type="line" identifier="F4GidGYPQJ"/>
      <point x="269" y="-142" type="line" identifier="ScWKo9Toul"/>
      <point x="111" y="26" type="line" identifier="7WeKUPBUHR"/>
      <point x="58" y="-22" type="line" identifier="ZRpqD2nifR"/>
      <point x="123" y="-93" type="line" smooth="yes" identifier="1MJuj4rfTU"/>
      <point x="209" y="-187" identifier="Lr7BB3Z60r"/>
      <point x="234" y="-212" identifier="EVUq3OyFbj"/>
    </contour>
    <contour>
      <point x="457" y="631" type="curve" smooth="yes" identifier="Yzwqw53bmC"/>
      <point x="497" y="631" identifier="dHBNjOm76X"/>
      <point x="518" y="649" identifier="ONohpMgiry"/>
      <point x="523" y="679" type="curve" smooth="yes" identifier="WOaHCaJMfM"/>
      <point x="525" y="691" identifier="eYYt9F1ebd"/>
      <point x="527" y="700" identifier="iM07NHOfui"/>
      <point x="527" y="708" type="curve" smooth="yes" identifier="mCrlwXWAr7"/>
      <point x="527" y="729" identifier="ceco46VaFs"/>
      <point x="512" y="748" identifier="vpG7T4ZYWZ"/>
      <point x="469" y="748" type="curve" smooth="yes" identifier="Nwwr2ybFda"/>
      <point x="429" y="748" identifier="BnIpFb3683"/>
      <point x="408" y="730" identifier="oDK01ucKIt"/>
      <point x="403" y="700" type="curve" smooth="yes" identifier="AUTBRlhwxO"/>
      <point x="401" y="688" identifier="Iw9NJ7UNaw"/>
      <point x="399" y="679" identifier="0xlRnjiEab"/>
      <point x="399" y="671" type="curve" smooth="yes" identifier="FSQVjztnL2"/>
      <point x="399" y="650" identifier="pHNTyRRrXp"/>
      <point x="414" y="631" identifier="HzvyOqCbl4"/>
    </contour>
  </outline>
</glyph>
<glyph name="k" format="2">
  <advance width="600"/>
  <unicode hex="006B"/>
  <anchor x="251.0" y="0.0" name="bottom"/>
  <outline>
    <contour>
      <point x="59" y="0" type="line" identifier="BKySeW7H6O"/>
      <point x="137" y="0" type="line" identifier="cWPMVAStXE"/>
      <point x="185" y="285" type="line" smooth="yes" identifier="94MPUNlhxl"/>
      <point x="192" y="328" identifier="D5ATF6jItK"/>
      <point x="213" y="366" identifier="bGhWxpON0z"/>
      <point x="242" y="402" type="curve" smooth="yes" identifier="D2QfJpKayg"/>
      <point x="270" y="436" identifier="1XiLMlWf4e"/>
      <point x="304" y="461" identifier="iHfS5vxxz2"/>
      <point x="355" y="461" type="curve" smooth="yes" identifier="ZKull56KrX"/>
      <point x="409" y="461" identifier="ZRVI0vpqno"/>
      <point x="439" y="433" identifier="nQ1t0TaQ7V"/>
      <point x="439" y="386" type="curve" smooth="yes" identifier="lSyBgWDfDi"/>
      <point x="439" y="325" identifier="rPRxmruIRN"/>
      <point x="388" y="268" identifier="ESYNAygRIs"/>
      <point x="221" y="227" type="curve" identifier="QQdP7E3C1J"/>
      <point x="302" y="51" type="line" smooth="yes" identifier="vES84Ymb3i"/>
      <point x="323" y="5" identifier="jlQoC4UeAO"/>
      <point x="345" y="-12" identifier="pMi4PTs9Ma"/>
      <point x="379" y="-12" type="curve" smooth="yes" identifier="FJdCldZz5P"/>
      <point x="417" y="-12" identifier="nCPjA1dotG"/>
      <point x="447" y="10" identifier="9JGFLb41wU"/>
      <point x="499" y="62" type="curve" smooth="yes" identifier="R1PZeGb8ZR"/>
      <point x="570" y="133" type="line" identifier="tmJUr4EFZf"/>
      <point x="527" y="178" type="line" identifier="l6MpuCQbSc"/>
      <point x="394" y="56" type="line" identifier="g7vVZ8fblQ"/>
      <point x="381" y="58" type="line" identifier="JTNWKUEjr6"/>
      <point x="310" y="213" type="line" identifier="F4cShZJ7gl"/>
      <point x="485" y="256" identifier="NyEk7hP2p5"/>
      <point x="519" y="339" identifier="WYpbKf19L6"/>
      <point x="519" y="401" type="curve" smooth="yes" identifier="wJTOAjGbuz"/>
      <point x="519" y="478" identifier="h092gCeBNU"/>
      <point x="466" y="528" identifier="RcZjob1xyN"/>
      <point x="384" y="528" type="curve" smooth="yes" identifier="sYxxhhkhnI"/>
      <point x="298" y="528" identifier="QkGOaRIWho"/>
      <point x="244" y="473" identifier="6yIX3HA1vG"/>
      <point x="207" y="394" type="curve" identifier="93gaCFN9Wx"/>
      <point x="203" y="394" type="line" identifier="R6fRZqZG5Y"/>
      <point x="261" y="740" type="line" identifier="btm0rnfCDJ"/>
      <point x="183" y="740" type="line" identifier="Wlj72z8XCP"/>
    </contour>
  </outline>
</glyph>
<glyph name="l" format="2">
  <advance width="600"/>
  <unicode hex="006C"/>
  <anchor x="248.0" y="0.0" name="bottom"/>
  <anchor x="332.0" y="698.0" name="top"/>
  <anchor x="466.0" y="740.0" name="topright"/>
  <outline>
    <contour>
      <point x="249" y="-12" type="curve" smooth="yes" identifier="4S0vjf6hvD"/>
      <point x="289" y="-12" identifier="Aduydy3R41"/>
      <point x="325" y="5" identifier="vMoeOaU2W0"/>
      <point x="422" y="93" type="curve" smooth="yes" identifier="5UOOD1S1nT"/>
      <point x="526" y="187" type="line" identifier="HSRmovj349"/>
      <point x="481" y="231" type="line" identifier="NyujlTIUlj"/>
      <point x="276" y="57" type="line" identifier="STCd4qsGcE"/>
      <point x="251" y="65" type="line" identifier="2ecdosIgM5"/>
      <point x="381" y="740" type="line" identifier="hxic2ClYXe"/>
      <point x="118" y="740" type="line" identifier="tq349F3LLn"/>
      <point x="107" y="673" type="line" identifier="w5r3CrensP"/>
      <point x="289" y="673" type="line" identifier="kWoUQp4yaa"/>
      <point x="177" y="91" type="line" smooth="yes" identifier="SmwaiuqEBp"/>
      <point x="175" y="82" identifier="nKZ2egSaMD"/>
      <point x="174" y="68" identifier="vIU2smH59Y"/>
      <point x="174" y="59" type="curve" smooth="yes" identifier="KVmZinjPcV"/>
      <point x="174" y="18" identifier="7ltMCNmOYL"/>
      <point x="195" y="-12" identifier="HePFOOZ3YC"/>
    </contour>
  </outline>
</glyph>
<glyph name="m" format="2">
  <advance width="600"/>
  <unicode hex="006D"/>
  <anchor x="257.0" y="0.0" name="bottom"/>
  <anchor x="352.0" y="516.0" name="top"/>
  <outline>
    <contour>
      <point x="84" y="0" type="line" identifier="lT8nVe132k"/>
      <point x="140" y="334" type="line" smooth="yes" identifier="8neT26fhBC"/>
      <point x="145" y="364" identifier="zGa2jawk3F"/>
      <point x="157" y="397" identifier="hSlYNcW6Rg"/>
      <point x="176" y="424" type="curve" smooth="yes" identifier="F2vCmwIFhM"/>
      <point x="192" y="447" identifier="IMkgPtgUuK"/>
      <point x="215" y="464" identifier="9b0GMxFC5i"/>
      <point x="243" y="464" type="curve" smooth="yes" identifier="uHGsLmwWZg"/>
      <point x="271" y="464" identifier="VtXbcDksPv"/>
      <point x="285" y="447" identifier="jSEz6cKUM4"/>
      <point x="285" y="405" type="curve" smooth="yes" identifier="NhVWInJ9Bb"/>
      <point x="285" y="389" identifier="o474WEizQl"/>
      <point x="283" y="370" identifier="1loQgus7ji"/>
      <point x="279" y="346" type="curve" smooth="yes" identifier="ULa6Xrv88h"/>
      <point x="221" y="0" type="line" identifier="xICE2AtFay"/>
      <point x="293" y="0" type="line" identifier="VjuQxCtGPs"/>
      <point x="349" y="334" type="line" smooth="yes" identifier="NrlhzFFRe1"/>
      <point x="354" y="364" identifier="SsAGZaKjyT"/>
      <point x="366" y="398" identifier="FIuqyOo04a"/>
      <point x="385" y="424" type="curve" smooth="yes" identifier="j4OIoSZIrx"/>
      <point x="402" y="447" identifier="9BhDTPUC8y"/>
      <point x="422" y="464" identifier="Na6F56KPkV"/>
      <point x="450" y="464" type="curve" smooth="yes" identifier="kDti11qRFK"/>
      <point x="480" y="464" identifier="R4iets0jbC"/>
      <point x="494" y="445" identifier="IlqErrZzBL"/>
      <point x="494" y="408" type="curve" smooth="yes" identifier="h0itb23YfE"/>
      <point x="494" y="394" identifier="UoLw4BqsN5"/>
      <point x="491" y="370" identifier="P8Iq1FXFFq"/>
      <point x="487" y="346" type="curve" smooth="yes" identifier="AC88ZMRCMS"/>
      <point x="429" y="0" type="line" identifier="Y3LgUtoIvQ"/>
      <point x="501" y="0" type="line" identifier="KSF7yLKW5M"/>
      <point x="561" y="359" type="line" smooth="yes" identifier="6qWhOtKxBz"/>
      <point x="565" y="383" identifier="SnOm5hVazU"/>
      <point x="568" y="410" identifier="go8Tnx7gpL"/>
      <point x="568" y="429" type="curve" smooth="yes" identifier="cz4aVpbuO8"/>
      <point x="568" y="492" identifier="DYPuqmnzjF"/>
      <point x="537" y="528" identifier="DcNE8Fa6r9"/>
      <point x="480" y="528" type="curve" smooth="yes" identifier="OQm5GCCc4N"/>
      <point x="420" y="528" identifier="AImJXgN7Ez"/>
      <point x="381" y="489" identifier="nWLMOo1Pt6"/>
      <point x="355" y="430" type="curve" identifier="LJAR8K4y1l"/>
      <point x="352" y="430" type="line" identifier="PghWucTG08"/>
      <point x="356" y="486" identifier="5D3e5k14If"/>
      <point x="331" y="528" identifier="Q0kr67leZB"/>
      <point x="273" y="528" type="curve" smooth="yes" identifier="m415T908oe"/>
      <point x="216" y="528" identifier="vIAhk1Lbgk"/>
      <point x="185" y="487" identifier="6dGSq7Zsna"/>
      <point x="161" y="435" type="curve" identifier="7f7sphSfnk"/>
      <point x="157" y="435" type="line" identifier="HbBlVsJAYq"/>
      <point x="170" y="516" type="line" identifier="ADbA0TVWKQ"/>
      <point x="98" y="516" type="line" identifier="Av2oHzt9I8"/>
      <point x="12" y="0" type="line" identifier="hWJuIzopWL"/>
    </contour>
  </outline>
</glyph>
<glyph name="n" format="2">
  <advance width="600"/>
  <unicode hex="006E"/>
  <anchor x="253.0" y="0.0" name="bottom"/>
  <anchor x="337.0" y="516.0" name="top"/>
  <outline>
    <contour>
      <point x="137" y="0" type="line" identifier="SqHbqYvU6Y"/>
      <point x="185" y="285" type="line" smooth="yes" identifier="WqLbldyggZ"/>
      <point x="195" y="344" identifier="NmF0y9SjsI"/>
      <point x="233" y="390" identifier="dejM7txA21"/>
      <point x="244" y="403" type="curve" smooth="yes" identifier="I1JgmOz3k9"/>
      <point x="273" y="437" identifier="WFATaRaTJh"/>
      <point x="308" y="459" identifier="GflnxujqT9"/>
      <point x="353" y="459" type="curve" smooth="yes" identifier="5p3ae8kiHS"/>
      <point x="411" y="459" identifier="bh2XYgcMvr"/>
      <point x="439" y="421" identifier="rMWtw7gxq5"/>
      <point x="439" y="360" type="curve" smooth="yes" identifier="AEhkbfE01U"/>
      <point x="439" y="349" identifier="MlCMf3Tbyq"/>
      <point x="438" y="329" identifier="n9vvRYMv8X"/>
      <point x="434" y="305" type="curve" smooth="yes" identifier="PVbJrGLcKx"/>
      <point x="383" y="0" type="line" identifier="LbQLJkekYY"/>
      <point x="461" y="0" type="line" identifier="rZy7KvLGFV"/>
      <point x="513" y="312" type="line" smooth="yes" identifier="6jh0eSi3Hm"/>
      <point x="517" y="335" identifier="mLDu9DQFjY"/>
      <point x="519" y="359" identifier="3siefM5jAa"/>
      <point x="519" y="379" type="curve" smooth="yes" identifier="kqnierwH8z"/>
      <point x="519" y="473" identifier="r2LuGsqjGJ"/>
      <point x="465" y="528" identifier="Lw9TNTclKT"/>
      <point x="379" y="528" type="curve" smooth="yes" identifier="4ua5z3ksrE"/>
      <point x="296" y="528" identifier="bvtKiwc7Dw"/>
      <point x="245" y="476" identifier="0JOH56Ff0m"/>
      <point x="207" y="394" type="curve" identifier="rfRTWyjiIw"/>
      <point x="203" y="394" type="line" identifier="54kgnxBbwU"/>
      <point x="223" y="516" type="line" identifier="ecI3gHHKSu"/>
      <point x="145" y="516" type="line" identifier="7lzMLdDCOK"/>
      <point x="59" y="0" type="line" identifier="3HluVdvQRE"/>
    </contour>
  </outline>
</glyph>
<glyph name="o" format="2">
  <advance width="600"/>
  <unicode hex="006F"/>
  <anchor x="257.0" y="0.0" name="bottom"/>
  <anchor x="343.0" y="516.0" name="top"/>
  <outline>
    <contour>
      <point x="265" y="-12" type="curve" smooth="yes" identifier="iPJFJK40wt"/>
      <point x="417" y="-12" identifier="CIkEqcDQBF"/>
      <point x="536" y="113" identifier="8Uwgnmsqjj"/>
      <point x="536" y="310" type="curve" smooth="yes" identifier="maYThjPjRg"/>
      <point x="536" y="439" identifier="Zcn3qMyKgQ"/>
      <point x="468" y="528" identifier="daFX0M8Qbb"/>
      <point x="334" y="528" type="curve" smooth="yes" identifier="TU80gQ7YjB"/>
      <point x="183" y="528" identifier="kKiZtZbZoR"/>
      <point x="64" y="403" identifier="1x1q9JukRi"/>
      <point x="64" y="206" type="curve" smooth="yes" identifier="ckFpbojJfv"/>
      <point x="64" y="77" identifier="l71gEZzFDc"/>
      <point x="133" y="-12" identifier="nL2DIgUtWe"/>
    </contour>
    <contour>
      <point x="269" y="56" type="curve" smooth="yes" identifier="0cJSG8kk5v"/>
      <point x="192" y="56" identifier="TaVZ0KozSC"/>
      <point x="143" y="96" identifier="nuWXAw9DV0"/>
      <point x="143" y="183" type="curve" smooth="yes" identifier="RLRuOMTUXt"/>
      <point x="143" y="195" identifier="JH1035iLGC"/>
      <point x="144" y="210" identifier="xtVNsCo4St"/>
      <point x="148" y="234" type="curve" smooth="yes" identifier="KsglOztK33"/>
      <point x="158" y="294" type="line" smooth="yes" identifier="0Y4GXBA3lk"/>
      <point x="175" y="396" identifier="a8sKfHONsW"/>
      <point x="234" y="460" identifier="uRgiuWKkEF"/>
      <point x="331" y="460" type="curve" smooth="yes" identifier="L6cOk1gM2d"/>
      <point x="408" y="460" identifier="bEqrv4IFwT"/>
      <point x="457" y="420" identifier="3IZ2MuiMVy"/>
      <point x="457" y="333" type="curve" smooth="yes" identifier="VtCgNuzEFP"/>
      <point x="457" y="321" identifier="uizfZLAsQl"/>
      <point x="456" y="306" identifier="FATwuLk9JL"/>
      <point x="452" y="282" type="curve" smooth="yes" identifier="nMclo2vztD"/>
      <point x="442" y="222" type="line" smooth="yes" identifier="IHkg6lUd5J"/>
      <point x="425" y="120" identifier="2XI63QE5WW"/>
      <point x="366" y="56" identifier="je41uVp8tT"/>
    </contour>
  </outline>
</glyph>
<glyph name="p" format="2">
  <advance width="600"/>
  <unicode hex="0070"/>
  <anchor x="375.0" y="516.0" name="top"/>
  <outline>
    <contour>
      <point x="19" y="-200" type="line" identifier="4Hzmm2Zxsy"/>
      <point x="97" y="-200" type="line" identifier="SdvWYveu5u"/>
      <point x="146" y="90" type="line" identifier="s09AvR5s6t"/>
      <point x="149" y="90" type="line" identifier="BhFQdwHbVV"/>
      <point x="171" y="23" identifier="t4YImEidwH"/>
      <point x="224" y="-12" identifier="ktzh14Fiat"/>
      <point x="300" y="-12" type="curve" smooth="yes" identifier="QuG7RU9jWJ"/>
      <point x="482" y="-12" identifier="fVFPxNILoB"/>
      <point x="544" y="190" identifier="XaFArlNtGz"/>
      <point x="544" y="328" type="curve" smooth="yes" identifier="ekLHVEqYL7"/>
      <point x="544" y="460" identifier="548iHM87yy"/>
      <point x="487" y="528" identifier="KbnsIy2CBO"/>
      <point x="383" y="528" type="curve" smooth="yes" identifier="9DIgJFaTuB"/>
      <point x="292" y="528" identifier="0Mfwl6ewge"/>
      <point x="240" y="475" identifier="dsU8kijlwA"/>
      <point x="200" y="394" type="curve" identifier="1xMvD36VVy"/>
      <point x="197" y="394" type="line" identifier="hw7i5ZXDaB"/>
      <point x="217" y="516" type="line" identifier="Gft7FYqBEf"/>
      <point x="139" y="516" type="line" identifier="IyUtHKpHNE"/>
    </contour>
    <contour>
      <point x="277" y="57" type="curve" smooth="yes" identifier="9JV0nh7043"/>
      <point x="200" y="57" identifier="ugWxapVhYB"/>
      <point x="147" y="98" identifier="hcCOXmKQ6w"/>
      <point x="159" y="170" type="curve" smooth="yes" identifier="r0TXACPjIb"/>
      <point x="178" y="284" type="line" smooth="yes" identifier="xpLJ3p2eiQ"/>
      <point x="186" y="332" identifier="oMBUqxaPpu"/>
      <point x="209" y="373" identifier="xWuU8X8X7b"/>
      <point x="235" y="402" type="curve" smooth="yes" identifier="S9qmouEsuy"/>
      <point x="271" y="442" identifier="jjIHGgg4hV"/>
      <point x="313" y="459" identifier="pkPYJI8eDe"/>
      <point x="356" y="459" type="curve" smooth="yes" identifier="zVOqvxoRPy"/>
      <point x="428" y="459" identifier="aSS6rsgZSR"/>
      <point x="465" y="413" identifier="um0g7kqTjL"/>
      <point x="465" y="336" type="curve" smooth="yes" identifier="9NJzFiraKL"/>
      <point x="465" y="323" identifier="AqLgW5YMZX"/>
      <point x="464" y="309" identifier="B7QP1MFGSk"/>
      <point x="461" y="291" type="curve" smooth="yes" identifier="4dcAGBc6xe"/>
      <point x="449" y="219" type="line" smooth="yes" identifier="UDeSwo0mZ4"/>
      <point x="433" y="123" identifier="5jp8W8qJLX"/>
      <point x="376" y="57" identifier="85Lcxb8W6n"/>
    </contour>
  </outline>
</glyph>
<glyph name="q" format="2">
  <advance width="600"/>
  <unicode hex="0071"/>
  <anchor x="309.0" y="516.0" name="top"/>
  <outline>
    <contour>
      <point x="349" y="-200" type="line" identifier="9kdAMIZtNn"/>
      <point x="427" y="-200" type="line" identifier="LAxsZi1gbf"/>
      <point x="547" y="516" type="line" identifier="hmsNFZl1kq"/>
      <point x="469" y="516" type="line" identifier="M7EgCd97uG"/>
      <point x="454" y="426" type="line" identifier="uzu9l2lMDC"/>
      <point x="451" y="426" type="line" identifier="ySzJeUHC2c"/>
      <point x="429" y="493" identifier="EMr8GLULva"/>
      <point x="376" y="528" identifier="8IsWvYvfWI"/>
      <point x="300" y="528" type="curve" smooth="yes" identifier="RRVfmGYJR1"/>
      <point x="118" y="528" identifier="V9fnuX14fS"/>
      <point x="56" y="326" identifier="QOVCfzC2HJ"/>
      <point x="56" y="188" type="curve" smooth="yes" identifier="MTfNDy9jtV"/>
      <point x="56" y="56" identifier="vDFFkkKe5Z"/>
      <point x="113" y="-12" identifier="gO3bIIQvn7"/>
      <point x="217" y="-12" type="curve" smooth="yes" identifier="kReSV9sQCh"/>
      <point x="308" y="-12" identifier="BQ8MoNLJZY"/>
      <point x="360" y="41" identifier="YH7uRla46N"/>
      <point x="400" y="122" type="curve" identifier="UsV9DycoLX"/>
      <point x="403" y="122" type="line" identifier="QkKjBwD5ln"/>
    </contour>
    <contour>
      <point x="244" y="57" type="curve" smooth="yes" identifier="ZcZVORxJ6E"/>
      <point x="172" y="57" identifier="Uj8c4qM6vH"/>
      <point x="135" y="103" identifier="jhtJ9zlFze"/>
      <point x="135" y="180" type="curve" smooth="yes" identifier="TCclVmMqpO"/>
      <point x="135" y="193" identifier="tFFX721PVK"/>
      <point x="136" y="207" identifier="DfngmcoJ9M"/>
      <point x="139" y="225" type="curve" smooth="yes" identifier="QsJxvC7YM3"/>
      <point x="151" y="297" type="line" smooth="yes" identifier="BTGiAVfjIp"/>
      <point x="167" y="393" identifier="ODKwTR6Fvo"/>
      <point x="224" y="459" identifier="XPcheBq0n2"/>
      <point x="323" y="459" type="curve" smooth="yes" identifier="KhbGbRVyjV"/>
      <point x="400" y="459" identifier="a6exAbCT1e"/>
      <point x="453" y="418" identifier="cIBgBYMB0X"/>
      <point x="441" y="346" type="curve" smooth="yes" identifier="sPf0Hn5Q0B"/>
      <point x="422" y="232" type="line" smooth="yes" identifier="iUoMeH9cgC"/>
      <point x="414" y="184" identifier="QHLLwRlQJ0"/>
      <point x="391" y="143" identifier="uc1eDmC2IV"/>
      <point x="365" y="114" type="curve" smooth="yes" identifier="GZTm5kzhPM"/>
      <point x="329" y="74" identifier="k5Wv681RG0"/>
      <point x="287" y="57" identifier="HYc6DxKNhT"/>
    </contour>
  </outline>
</glyph>
<glyph name="r" format="2">
  <advance width="600"/>
  <unicode hex="0072"/>
  <anchor x="218.0" y="0.0" name="bottom"/>
  <anchor x="369.0" y="516.0" name="top"/>
  <outline>
    <contour>
      <point x="256" y="0" type="line" identifier="uoyPDbSrlF"/>
      <point x="301" y="269" type="line" smooth="yes" identifier="TUpTI3oOZ1"/>
      <point x="311" y="329" identifier="Vmu7j3D5Hg"/>
      <point x="347" y="371" identifier="KL3pmWtBCt"/>
      <point x="360" y="386" type="curve" smooth="yes" identifier="iSGDJFz0rA"/>
      <point x="391" y="422" identifier="hbWIKaNLcA"/>
      <point x="428" y="438" identifier="kY8bbVvdIr"/>
      <point x="488" y="438" type="curve" smooth="yes" identifier="KhuUy1IB9c"/>
      <point x="576" y="438" type="line" identifier="EpnM3HzEd9"/>
      <point x="589" y="516" type="line" identifier="mThXJ1nF5f"/>
      <point x="511" y="516" type="line" smooth="yes" identifier="qSKYvMNE0b"/>
      <point x="412" y="516" identifier="a7bGkcDVVb"/>
      <point x="360" y="460" identifier="eJP4C914P6"/>
      <point x="324" y="378" type="curve" identifier="04FSjuKx9O"/>
      <point x="319" y="378" type="line" identifier="CZW66i5z12"/>
      <point x="342" y="516" type="line" identifier="5SmdojtFGp"/>
      <point x="119" y="516" type="line" identifier="Zuy5Nz2SaM"/>
      <point x="108" y="449" type="line" identifier="NVXfQvKv9b"/>
      <point x="253" y="449" type="line" identifier="5tq0rYLsMH"/>
      <point x="178" y="0" type="line" identifier="TC4Htp9Ruj"/>
    </contour>
  </outline>
</glyph>
<glyph name="s" format="2">
  <advance width="600"/>
  <unicode hex="0073"/>
  <anchor x="272.0" y="0.0" name="bottom"/>
  <anchor x="336.0" y="516.0" name="top"/>
  <outline>
    <contour>
      <point x="268" y="-12" type="curve" smooth="yes" identifier="xzOV1Pxz0x"/>
      <point x="406" y="-12" identifier="mjvraeKrIP"/>
      <point x="499" y="54" identifier="QL5S3TougS"/>
      <point x="499" y="161" type="curve" smooth="yes" identifier="WZ9EJLYSvf"/>
      <point x="499" y="263" identifier="xDjXHc4Pj6"/>
      <point x="414" y="279" identifier="I1HhdQCvsJ"/>
      <point x="348" y="290" type="curve" smooth="yes" identifier="j1TKDoQQSH"/>
      <point x="275" y="302" type="line" smooth="yes" identifier="swq6A1yHQ4"/>
      <point x="233" y="309" identifier="W0xp7kNU5w"/>
      <point x="195" y="320" identifier="Ho7mUBmGKs"/>
      <point x="195" y="370" type="curve" smooth="yes" identifier="FmPvZitzkK"/>
      <point x="195" y="426" identifier="QpYX10fArr"/>
      <point x="242" y="462" identifier="RFDYuKIWmT"/>
      <point x="331" y="462" type="curve" smooth="yes" identifier="C27iXZgT9K"/>
      <point x="418" y="462" identifier="hOiFrnwTzH"/>
      <point x="460" y="428" identifier="atvc8CBekz"/>
      <point x="478" y="401" type="curve" identifier="ACeHfcnxIe"/>
      <point x="533" y="449" type="line" identifier="gcOgUUVAa7"/>
      <point x="494" y="498" identifier="mnueUyENjn"/>
      <point x="430" y="528" identifier="A96zQRjYgi"/>
      <point x="340" y="528" type="curve" smooth="yes" identifier="d9wJH7JkxJ"/>
      <point x="218" y="528" identifier="pm0fcv4csN"/>
      <point x="119" y="473" identifier="74n3e71coh"/>
      <point x="119" y="364" type="curve" smooth="yes" identifier="zWm836o3wo"/>
      <point x="119" y="268" identifier="6GtyR8RhHj"/>
      <point x="197" y="243" identifier="wX2Dx3vCDN"/>
      <point x="272" y="232" type="curve" smooth="yes" identifier="RUR7PvHfUo"/>
      <point x="347" y="221" type="line" smooth="yes" identifier="ji7ohaMq8L"/>
      <point x="389" y="215" identifier="v60UIojkKg"/>
      <point x="422" y="201" identifier="zOs7XQ8FnC"/>
      <point x="422" y="153" type="curve" smooth="yes" identifier="leimDp5SkT"/>
      <point x="422" y="91" identifier="MyGj88JmPY"/>
      <point x="366" y="54" identifier="AYGhSZQrtu"/>
      <point x="275" y="54" type="curve" smooth="yes" identifier="Ll6sMcUAIy"/>
      <point x="197" y="54" identifier="iwcrbAYb8H"/>
      <point x="146" y="81" identifier="2ZbkXOLBc8"/>
      <point x="106" y="131" type="curve" identifier="9DIq57lCUn"/>
      <point x="48" y="85" type="line" identifier="FWwlcZ3jUQ"/>
      <point x="93" y="23" identifier="sRxWhlD7V5"/>
      <point x="168" y="-12" identifier="Y9bjiq7Q2R"/>
    </contour>
  </outline>
</glyph>
<glyph name="t" format="2">
  <advance width="600"/>
  <unicode hex="0074"/>
  <anchor x="233.0" y="0.0" name="bottom"/>
  <anchor x="454.0" y="760.0" name="topright"/>
  <outline>
    <contour>
      <point x="239" y="-12" type="curve" smooth="yes" identifier="diQThpML08"/>
      <point x="280" y="-12" identifier="hq3Z8i8C0y"/>
      <point x="320" y="9" identifier="taJJmImJtG"/>
      <point x="413" y="75" type="curve" smooth="yes" identifier="BYfMJz3Ob2"/>
      <point x="526" y="155" type="line" identifier="9SlmJmlO0W"/>
      <point x="487" y="205" type="line" identifier="wd1gROMvXi"/>
      <point x="262" y="55" type="line" identifier="TBFepUJJAP"/>
      <point x="242" y="67" type="line" identifier="0cBgt3rEza"/>
      <point x="306" y="449" type="line" identifier="qy0I4zGkIm"/>
      <point x="519" y="449" type="line" identifier="iHLMDcT4mY"/>
      <point x="530" y="516" type="line" identifier="cPqTw65Z1q"/>
      <point x="317" y="516" type="line" identifier="DsoV5RaJXp"/>
      <point x="348" y="698" type="line" identifier="X98aTFYrm7"/>
      <point x="274" y="698" type="line" identifier="NbisR5txZ1"/>
      <point x="251" y="563" type="line" smooth="yes" identifier="DEOH7Fo3NC"/>
      <point x="245" y="528" identifier="jcsGuzcrJE"/>
      <point x="229" y="516" identifier="4xwTX01PDF"/>
      <point x="195" y="516" type="curve" smooth="yes" identifier="qcZvbVZk3Q"/>
      <point x="90" y="516" type="line" identifier="NgRZOilxwb"/>
      <point x="79" y="449" type="line" identifier="SlXQqWe7kD"/>
      <point x="228" y="449" type="line" identifier="RGq9xgc6H5"/>
      <point x="168" y="101" type="line" smooth="yes" identifier="Ta1MzhFmJO"/>
      <point x="166" y="90" identifier="RuPO9UEeP5"/>
      <point x="165" y="71" identifier="9WCU1NLLHM"/>
      <point x="165" y="62" type="curve" smooth="yes" identifier="jTG6lefe72"/>
      <point x="165" y="14" identifier="jvXzfnm0v7"/>
      <point x="192" y="-12" identifier="hR5dVyf160"/>
    </contour>
  </outline>
</glyph>
<glyph name="u" format="2">
  <advance width="600"/>
  <unicode hex="0075"/>
  <anchor x="261.0" y="0.0" name="bottom"/>
  <anchor x="457.0" y="0.0" name="bottomright"/>
  <anchor x="340.0" y="516.0" name="top"/>
  <outline>
    <contour>
      <point x="379" y="0" type="line" identifier="6iPPA4wKR8"/>
      <point x="457" y="0" type="line" identifier="Uy30jOPwSd"/>
      <point x="543" y="516" type="line" identifier="rRUi3lj7Ch"/>
      <point x="465" y="516" type="line" identifier="Tw2EIhxe9r"/>
      <point x="417" y="231" type="line" smooth="yes" identifier="loX6LXhHO2"/>
      <point x="407" y="172" identifier="9kPAi5W9mE"/>
      <point x="369" y="126" identifier="PZduzCC9rd"/>
      <point x="358" y="113" type="curve" smooth="yes" identifier="WapRWvsGKG"/>
      <point x="329" y="79" identifier="1NrtxA8Flw"/>
      <point x="294" y="57" identifier="eEowQLfRHu"/>
      <point x="249" y="57" type="curve" smooth="yes" identifier="Ql80U6FRwS"/>
      <point x="191" y="57" identifier="uQ1nfC2FOA"/>
      <point x="163" y="95" identifier="NNMhCQQDJN"/>
      <point x="163" y="156" type="curve" smooth="yes" identifier="ccqne8E0RL"/>
      <point x="163" y="167" identifier="O6INtxnyqH"/>
      <point x="164" y="187" identifier="0hG6E3pfgH"/>
      <point x="168" y="211" type="curve" smooth="yes" identifier="vstvVtqPCC"/>
      <point x="219" y="516" type="line" identifier="XwugTYXEhW"/>
      <point x="141" y="516" type="line" identifier="aeULTKdomC"/>
      <point x="89" y="204" type="line" smooth="yes" identifier="4bD0DE01zV"/>
      <point x="85" y="181" identifier="ygoTQkwYZV"/>
      <point x="83" y="157" identifier="4XrXRRjGmc"/>
      <point x="83" y="137" type="curve" smooth="yes" identifier="pN5Z4n0CC1"/>
      <point x="83" y="43" identifier="XdvPlPt28w"/>
      <point x="137" y="-12" identifier="FTXNrSh0sR"/>
      <point x="223" y="-12" type="curve" smooth="yes" identifier="6nzMQKA7sF"/>
      <point x="306" y="-12" identifier="rPFBYrq1MV"/>
      <point x="357" y="40" identifier="XXOPZHTDrX"/>
      <point x="395" y="122" type="curve" identifier="lOcJc3Z7R7"/>
      <point x="399" y="122" type="line" identifier="JITTfYBERy"/>
    </contour>
  </outline>
</glyph>
<glyph name="v" format="2">
  <advance width="600"/>
  <unicode hex="0076"/>
  <anchor x="246.0" y="0.0" name="bottom"/>
  <anchor x="336.0" y="516.0" name="top"/>
  <outline>
    <contour>
      <point x="77" y="516" type="line" identifier="i6amV7QMBU"/>
      <point x="66" y="449" type="line" identifier="zjNI9YAJvB"/>
      <point x="176" y="449" type="line" identifier="wXWHx1mZAr"/>
      <point x="124" y="101" type="line" smooth="yes" identifier="6V8ASJ37VX"/>
      <point x="122" y="89" identifier="xHV6yScjSB"/>
      <point x="120" y="74" identifier="0yjml7WTug"/>
      <point x="120" y="64" type="curve" smooth="yes" identifier="D3SI2Ir95p"/>
      <point x="120" y="19" identifier="KgHbPp31Rz"/>
      <point x="145" y="-8" identifier="Ql8y1Ga7C7"/>
      <point x="197" y="-8" type="curve" smooth="yes" identifier="jAkw1K3MLp"/>
      <point x="383" y="-8" identifier="BqXqFOnn2R"/>
      <point x="541" y="167" identifier="l9jpCfcmWW"/>
      <point x="541" y="377" type="curve" smooth="yes" identifier="9ZwdkBDXqv"/>
      <point x="541" y="431" identifier="AqmCjbznxP"/>
      <point x="529" y="482" identifier="VsQ33SOpPu"/>
      <point x="508" y="522" type="curve" identifier="tikgjqjU7h"/>
      <point x="433" y="500" type="line" identifier="XI8cy06GvH"/>
      <point x="452" y="463" identifier="4F6dEoU43L"/>
      <point x="461" y="418" identifier="xIgPKw6qhl"/>
      <point x="461" y="373" type="curve" smooth="yes" identifier="YudVfBw33A"/>
      <point x="461" y="224" identifier="4zfi5jLFJV"/>
      <point x="374" y="75" identifier="55AHX4sSmw"/>
      <point x="208" y="53" type="curve" identifier="ydZ2mev1is"/>
      <point x="195" y="62" type="line" identifier="amQq9OtOmF"/>
      <point x="263" y="516" type="line" identifier="ThU41OYn67"/>
    </contour>
  </outline>
</glyph>
<glyph name="w" format="2">
  <advance width="600"/>
  <unicode hex="0077"/>
  <anchor x="247.0" y="0.0" name="bottom"/>
  <anchor x="348.0" y="516.0" name="top"/>
  <outline>
    <contour>
      <point x="133" y="-10" type="curve" smooth="yes" identifier="gGWdD8gBid"/>
      <point x="196" y="-10" identifier="im6vcNj70u"/>
      <point x="231" y="30" identifier="191q7uM1i4"/>
      <point x="260" y="95" type="curve" identifier="b3Q4HHGDKe"/>
      <point x="265" y="95" type="line" identifier="2UIJtdYAAl"/>
      <point x="260" y="17" identifier="JJK49f874G"/>
      <point x="296" y="-10" identifier="nrrFiN947w"/>
      <point x="350" y="-10" type="curve" smooth="yes" identifier="UUjD3CTyhq"/>
      <point x="405" y="-10" identifier="2t1AWROEIU"/>
      <point x="453" y="16" identifier="1ATxmL3W7v"/>
      <point x="489" y="66" type="curve" smooth="yes" identifier="NANDdTMtwn"/>
      <point x="539" y="136" identifier="qhOJkaRsBq"/>
      <point x="567" y="251" identifier="RRNyvlgKNH"/>
      <point x="567" y="371" type="curve" smooth="yes" identifier="95c1MAmv4R"/>
      <point x="567" y="432" identifier="0vuTbpeVNA"/>
      <point x="556" y="486" identifier="qqnXlhHWn1"/>
      <point x="540" y="521" type="curve" identifier="enLBJKXlkm"/>
      <point x="474" y="501" type="line" identifier="aWHsaFG5Ao"/>
      <point x="489" y="469" identifier="4w9F00pivv"/>
      <point x="497" y="417" identifier="EBz6A3sWHz"/>
      <point x="497" y="367" type="curve" smooth="yes" identifier="Sb8wrb4LwK"/>
      <point x="497" y="220" identifier="wUB5iTI1py"/>
      <point x="441" y="54" identifier="NnRtJ9P99v"/>
      <point x="366" y="54" type="curve" smooth="yes" identifier="OPCUGN50Ca"/>
      <point x="335" y="54" identifier="sGBxqH6t70"/>
      <point x="322" y="71" identifier="yzWShWdj9Z"/>
      <point x="322" y="112" type="curve" smooth="yes" identifier="DIvZOCapLI"/>
      <point x="322" y="129" identifier="Q5U6YbwpwJ"/>
      <point x="323" y="148" identifier="StkJ1HHZgT"/>
      <point x="327" y="173" type="curve" smooth="yes" identifier="UCLR1FnanP"/>
      <point x="383" y="516" type="line" identifier="udaCpbDCu9"/>
      <point x="315" y="516" type="line" identifier="jYbRIVp2UD"/>
      <point x="258" y="186" type="line" smooth="yes" identifier="JOyiP12lYj"/>
      <point x="253" y="160" identifier="0hkRYO27wU"/>
      <point x="244" y="120" identifier="naFwhpA5gI"/>
      <point x="225" y="94" type="curve" smooth="yes" identifier="XtRnfgVWLi"/>
      <point x="207" y="70" identifier="BPw1tTP9Jy"/>
      <point x="188" y="54" identifier="LY6AHVSqBA"/>
      <point x="161" y="54" type="curve" smooth="yes" identifier="7lLKzTAooP"/>
      <point x="132" y="54" identifier="zMztmgKuCS"/>
      <point x="116" y="71" identifier="WLNX1a7Gbg"/>
      <point x="116" y="111" type="curve" smooth="yes" identifier="TTy7VrOhwH"/>
      <point x="116" y="129" identifier="5nKGaJg4NZ"/>
      <point x="118" y="150" identifier="3Qg2JHuGRm"/>
      <point x="122" y="173" type="curve" smooth="yes" identifier="BMAkK9fyIY"/>
      <point x="178" y="516" type="line" identifier="qYXsZPFjD3"/>
      <point x="108" y="516" type="line" identifier="Dn2MNQUFoZ"/>
      <point x="49" y="159" type="line" smooth="yes" identifier="NvlHryfTug"/>
      <point x="45" y="133" identifier="9aEuU9ikw8"/>
      <point x="43" y="113" identifier="qdYp84PmFr"/>
      <point x="43" y="92" type="curve" smooth="yes" identifier="TGSg4mEJdC"/>
      <point x="43" y="30" identifier="d7fzAVOfVb"/>
      <point x="73" y="-10" identifier="PAzxFV9mlF"/>
    </contour>
  </outline>
</glyph>
<glyph name="x" format="2">
  <advance width="600"/>
  <unicode hex="0078"/>
  <anchor x="252.0" y="0.0" name="bottom"/>
  <anchor x="348.0" y="516.0" name="top"/>
  <outline>
    <contour>
      <point x="106" y="-12" type="curve" smooth="yes" identifier="nhZLff9NJ4"/>
      <point x="185" y="-12" identifier="GiczkxaFhq"/>
      <point x="241" y="40" identifier="r4ctZz38DW"/>
      <point x="268" y="166" type="curve" identifier="gQitKB9O6r"/>
      <point x="275" y="165" type="line" identifier="dxWrsmhh37"/>
      <point x="275" y="79" identifier="aWcr3ihF1v"/>
      <point x="276" y="-12" identifier="NHRiqPDDhp"/>
      <point x="356" y="-12" type="curve" smooth="yes" identifier="mQIeElGuEd"/>
      <point x="387" y="-12" identifier="o5STJvc1M2"/>
      <point x="428" y="2" identifier="aXOkz4EAL2"/>
      <point x="501" y="65" type="curve" smooth="yes" identifier="vh9YeUAjg3"/>
      <point x="551" y="108" type="line" identifier="EIM0zDJXVs"/>
      <point x="518" y="154" type="line" identifier="uzPicbRBKU"/>
      <point x="370" y="50" type="line" identifier="YPD8CHXNub"/>
      <point x="355" y="57" type="line" identifier="2DjlczTzlk"/>
      <point x="340" y="87" identifier="WUZFpEQd3r"/>
      <point x="337" y="151" identifier="XiuocmbRW6"/>
      <point x="337" y="179" type="curve" smooth="yes" identifier="H60tD7IrjO"/>
      <point x="337" y="285" identifier="gHnmqQbzUC"/>
      <point x="383" y="466" identifier="bmHAHGVg0t"/>
      <point x="475" y="466" type="curve" smooth="yes" identifier="swmf5EH7n2"/>
      <point x="507" y="466" identifier="6GavJ9ogPD"/>
      <point x="519" y="443" identifier="zSMWm5Kfm8"/>
      <point x="519" y="393" type="curve" smooth="yes" identifier="841i7ydPmG"/>
      <point x="519" y="379" identifier="ElY6cEEyTj"/>
      <point x="518" y="359" identifier="ibfWoYebU9"/>
      <point x="515" y="336" type="curve" identifier="KR1J0LdCMD"/>
      <point x="588" y="342" type="line" identifier="n1HmskjscI"/>
      <point x="593" y="377" identifier="XiavsZ26yY"/>
      <point x="593" y="397" identifier="2qqFHMI8TJ"/>
      <point x="593" y="409" type="curve" smooth="yes" identifier="KdT49x9FAz"/>
      <point x="593" y="489" identifier="bHgLtPimGP"/>
      <point x="561" y="528" identifier="sgSgMoGP3h"/>
      <point x="494" y="528" type="curve" smooth="yes" identifier="FhhhOXvATJ"/>
      <point x="415" y="528" identifier="BYqiLrAOeJ"/>
      <point x="359" y="476" identifier="ac49Raof7H"/>
      <point x="332" y="350" type="curve" identifier="dY6qT5gIKC"/>
      <point x="325" y="351" type="line" identifier="JcEFetMPom"/>
      <point x="325" y="434" identifier="Xm4KJml8Ln"/>
      <point x="324" y="528" identifier="jWliSbzQBM"/>
      <point x="246" y="528" type="curve" smooth="yes" identifier="wsJPHeHdKI"/>
      <point x="205" y="528" identifier="kR9VpHsjuD"/>
      <point x="159" y="502" identifier="wPpY16s0nd"/>
      <point x="109" y="465" type="curve" smooth="yes" identifier="7o6Woatls5"/>
      <point x="43" y="416" type="line" identifier="LQwt4jV9KB"/>
      <point x="74" y="369" type="line" identifier="2WB0IWAsCh"/>
      <point x="232" y="466" type="line" identifier="BJtHh5HDt5"/>
      <point x="247" y="459" type="line" identifier="boi7hIht1j"/>
      <point x="260" y="430" identifier="LNIMA14G0e"/>
      <point x="263" y="364" identifier="mhVP7IJFSR"/>
      <point x="263" y="337" type="curve" smooth="yes" identifier="9i1EMia3IF"/>
      <point x="263" y="231" identifier="SnlR4nSGZp"/>
      <point x="217" y="50" identifier="PioMaxPf8G"/>
      <point x="125" y="50" type="curve" smooth="yes" identifier="REqxuHvMrV"/>
      <point x="93" y="50" identifier="codC1vmCPU"/>
      <point x="81" y="73" identifier="wDQfmdjGg5"/>
      <point x="81" y="123" type="curve" smooth="yes" identifier="fPoySdUQ3D"/>
      <point x="81" y="137" identifier="NmUG3q3pVn"/>
      <point x="82" y="157" identifier="1Ay3c5xtTY"/>
      <point x="85" y="180" type="curve" identifier="8I5IAFxbL1"/>
      <point x="12" y="174" type="line" identifier="0YFMLV16CF"/>
      <point x="7" y="138" identifier="IEMrUQbDTZ"/>
      <point x="7" y="119" identifier="sNEK3KfGrv"/>
      <point x="7" y="107" type="curve" smooth="yes" identifier="ESbMMBKpJ6"/>
      <point x="7" y="27" identifier="og86HTX4ib"/>
      <point x="39" y="-12" identifier="BBJKCkumP0"/>
    </contour>
  </outline>
</glyph>
<glyph name="y" format="2">
  <advance width="600"/>
  <unicode hex="0079"/>
  <anchor x="233.0" y="0.0" name="bottom"/>
  <anchor x="345.0" y="516.0" name="top"/>
  <outline>
    <contour>
      <point x="208" y="-212" type="curve" smooth="yes" identifier="XKEUuhK3gt"/>
      <point x="337" y="-212" identifier="qJm7bTp9cu"/>
      <point x="431" y="-152" identifier="ooF9AxgcEs"/>
      <point x="457" y="0" type="curve" smooth="yes" identifier="x00J6HoOHA"/>
      <point x="543" y="516" type="line" identifier="zTvsslPsqY"/>
      <point x="465" y="516" type="line" identifier="l3e6xfjH1a"/>
      <point x="420" y="246" type="line" smooth="yes" identifier="sr9SvwMezt"/>
      <point x="410" y="187" identifier="Zv6LZziLKf"/>
      <point x="372" y="141" identifier="G7nY0SGMNT"/>
      <point x="361" y="128" type="curve" smooth="yes" identifier="JyrQgPWUEe"/>
      <point x="332" y="94" identifier="MGq3DKsA50"/>
      <point x="297" y="72" identifier="YTQqCzblpU"/>
      <point x="252" y="72" type="curve" smooth="yes" identifier="552Np0g3yH"/>
      <point x="194" y="72" identifier="Yqchjh5FjV"/>
      <point x="165" y="110" identifier="pFDuWpSGtc"/>
      <point x="165" y="171" type="curve" smooth="yes" identifier="A3dYkSpppQ"/>
      <point x="165" y="182" identifier="XGImf3MZzY"/>
      <point x="166" y="200" identifier="yNxJUUDjW5"/>
      <point x="170" y="223" type="curve" smooth="yes" identifier="4OfrsfNL7o"/>
      <point x="219" y="516" type="line" identifier="zWvZ2kTGn5"/>
      <point x="141" y="516" type="line" identifier="SBgvT8Ug18"/>
      <point x="91" y="216" type="line" smooth="yes" identifier="yhBydBKJaJ"/>
      <point x="87" y="189" identifier="pM8n9uizVB"/>
      <point x="85" y="170" identifier="WkFhMpEoZy"/>
      <point x="85" y="152" type="curve" smooth="yes" identifier="bas1NQ4fQ3"/>
      <point x="85" y="58" identifier="6pUFOE5jqv"/>
      <point x="140" y="3" identifier="cAMSzLQ9AT"/>
      <point x="226" y="3" type="curve" smooth="yes" identifier="Lnu0h9V1ik"/>
      <point x="309" y="3" identifier="kdoQcxDiJc"/>
      <point x="361" y="55" identifier="nP9Vt9fIrf"/>
      <point x="399" y="137" type="curve" identifier="vgP6Cc8fQP"/>
      <point x="402" y="137" type="line" identifier="afidJUd8Hs"/>
      <point x="382" y="15" type="line" smooth="yes" identifier="r3jscuSkGL"/>
      <point x="364" y="-97" identifier="fEUK7nE2kn"/>
      <point x="308" y="-143" identifier="oKIkoUjauu"/>
      <point x="213" y="-143" type="curve" smooth="yes" identifier="bQKuJTCddN"/>
      <point x="150" y="-143" identifier="e0LOJAZXo2"/>
      <point x="108" y="-123" identifier="LI2WcRzuFp"/>
      <point x="81" y="-89" type="curve" identifier="CGZTZ8ME26"/>
      <point x="27" y="-141" type="line" identifier="9TRd1Hcqze"/>
      <point x="64" y="-187" identifier="gcAtva3VXy"/>
      <point x="125" y="-212" identifier="Py3SnMjVaY"/>
    </contour>
  </outline>
</glyph>
<glyph name="z" format="2">
  <advance width="600"/>
  <unicode hex="007A"/>
  <anchor x="286.0" y="0.0" name="bottom"/>
  <anchor x="331.0" y="516.0" name="top"/>
  <outline>
    <contour>
      <point x="425" y="-10" type="curve" smooth="yes" identifier="7kpO6qptC1"/>
      <point x="487" y="-10" identifier="AxsJfqxGLf"/>
      <point x="524" y="32" identifier="KkpXLEwIAp"/>
      <point x="524" y="76" type="curve" smooth="yes" identifier="1ju2rBuTVU"/>
      <point x="524" y="107" identifier="Nykhoiqf8f"/>
      <point x="512" y="146" identifier="fno0rmYs5T"/>
      <point x="498" y="180" type="curve" smooth="yes" identifier="a0CGxI66jv"/>
      <point x="482" y="220" type="line" identifier="tpr4QRbszv"/>
      <point x="425" y="200" type="line" identifier="C7GIcfVl9C"/>
      <point x="456" y="64" type="line" identifier="M6MevVn62C"/>
      <point x="445" y="53" type="line" identifier="8rZTAeNfYA"/>
      <point x="190" y="112" type="line" identifier="TZ5fGCkNv8"/>
      <point x="548" y="440" type="line" identifier="xkxISGPP4T"/>
      <point x="559" y="516" type="line" identifier="AJI7Mz7V5z"/>
      <point x="480" y="516" type="line" identifier="tFfIWbeP7d"/>
      <point x="470" y="453" type="line" identifier="zWlbMFileZ"/>
      <point x="465" y="449" type="line" identifier="JsUBjavKb9"/>
      <point x="445" y="461" type="line" smooth="yes" identifier="2aG1J57kKM"/>
      <point x="368" y="507" identifier="A3xnb53DVI"/>
      <point x="313" y="528" identifier="7k7cgcvIrX"/>
      <point x="258" y="528" type="curve" smooth="yes" identifier="mfjTpa0LZo"/>
      <point x="159" y="528" identifier="vjoCq88WBq"/>
      <point x="102" y="466" identifier="qFhF5muj4z"/>
      <point x="102" y="353" type="curve" smooth="yes" identifier="r8wbL8Voi7"/>
      <point x="102" y="341" type="line" identifier="wen0Z7uCha"/>
      <point x="166" y="341" type="line" identifier="BWClrNlceR"/>
      <point x="166" y="403" identifier="gPWt7Z6Rg9"/>
      <point x="177" y="462" identifier="efMgSbSAPJ"/>
      <point x="255" y="462" type="curve" smooth="yes" identifier="x6IInKBZ0O"/>
      <point x="292" y="462" identifier="tEJLEDa5im"/>
      <point x="338" y="449" identifier="M8PWkoxoqR"/>
      <point x="420" y="407" type="curve" identifier="WzoIPiw585"/>
      <point x="62" y="78" type="line" identifier="hZpiK8d6lt"/>
      <point x="51" y="0" type="line" identifier="uG21OlAvhU"/>
      <point x="130" y="0" type="line" identifier="QLFZ47mmGW"/>
      <point x="140" y="66" type="line" identifier="h0L8ifevE6"/>
      <point x="145" y="70" type="line" identifier="A7UKfEmNC0"/>
      <point x="324" y="10" type="line" smooth="yes" identifier="FA5pFQOSF3"/>
      <point x="367" y="-4" identifier="sdP7eTqDvx"/>
      <point x="397" y="-10" identifier="HziOMLibjg"/>
    </contour>
  </outline>
</glyph>
<glyph name="braceleft" format="2">
  <advance width="600"/>
  <unicode hex="007B"/>
  <outline>
    <contour>
      <point x="427" y="-138" type="line" identifier="GsDoXfgEQy"/>
      <point x="437" y="-77" type="line" identifier="dIc8j3VKF2"/>
      <point x="248" y="-77" type="line" identifier="gylizSRU0X"/>
      <point x="261" y="1" type="line" smooth="yes" identifier="gW6dRe7bFI"/>
      <point x="270" y="56" identifier="bZYaDDmiWc"/>
      <point x="292" y="79" identifier="xBPZW5ngwu"/>
      <point x="318" y="107" type="curve" smooth="yes" identifier="vzT7PEngdr"/>
      <point x="354" y="146" identifier="jXj8alvrOl"/>
      <point x="383" y="177" identifier="jkmV4aPcEO"/>
      <point x="383" y="222" type="curve" smooth="yes" identifier="3zCftXd6tw"/>
      <point x="383" y="269" identifier="DkQXssGYXl"/>
      <point x="351" y="300" identifier="bFiuZzQvdO"/>
      <point x="292" y="307" type="curve" identifier="AOqqqNtPpa"/>
      <point x="292" y="311" type="line" identifier="ThGRHvHrtO"/>
      <point x="375" y="324" identifier="rCyjobzCm6"/>
      <point x="417" y="366" identifier="ghjbJNFhpE"/>
      <point x="417" y="425" type="curve" smooth="yes" identifier="VdHb7sEhqF"/>
      <point x="417" y="462" identifier="CT1UgT1Q9h"/>
      <point x="401" y="490" identifier="MfLZFGDvTO"/>
      <point x="386" y="515" type="curve" smooth="yes" identifier="nwrX9weX8X"/>
      <point x="373" y="537" identifier="PY3AbP5fI0"/>
      <point x="361" y="556" identifier="7lRe3TClb9"/>
      <point x="361" y="590" type="curve" smooth="yes" identifier="aMf0c0Q0pc"/>
      <point x="361" y="599" identifier="WG3rLKKQOH"/>
      <point x="362" y="610" identifier="2UcYY9KCs4"/>
      <point x="377" y="699" type="curve" identifier="M4u8GjCqdT"/>
      <point x="567" y="699" type="line" identifier="snMMFa56yQ"/>
      <point x="577" y="760" type="line" identifier="yAUsrBN9mV"/>
      <point x="402" y="760" type="line" smooth="yes" identifier="FcYuhNWNJw"/>
      <point x="349" y="760" identifier="QB2BQZcOQO"/>
      <point x="313" y="725" identifier="9P7h3suZhn"/>
      <point x="306" y="679" type="curve" smooth="yes" identifier="N8Pl0mnehx"/>
      <point x="294" y="603" identifier="91ihu5kKhz"/>
      <point x="293" y="592" identifier="ZZLNVgaJTv"/>
      <point x="293" y="581" type="curve" smooth="yes" identifier="OXmOy54cXy"/>
      <point x="293" y="531" identifier="G42yiXXEd7"/>
      <point x="313" y="506" identifier="jfIK8qvE24"/>
      <point x="329" y="480" type="curve" smooth="yes" identifier="NKkqdh3j8z"/>
      <point x="343" y="458" identifier="FrxBr6NtJc"/>
      <point x="349" y="442" identifier="EBuTzwrXkt"/>
      <point x="349" y="423" type="curve" smooth="yes" identifier="Nry7mOKBOG"/>
      <point x="349" y="369" identifier="HuA6vn0KuF"/>
      <point x="303" y="341" identifier="HDfEx1MEpN"/>
      <point x="218" y="341" type="curve" smooth="yes" identifier="a8XM1njyn4"/>
      <point x="121" y="341" type="line" identifier="SKD8xZ8zG4"/>
      <point x="111" y="281" type="line" identifier="SE27tvpYtN"/>
      <point x="208" y="281" type="line" smooth="yes" identifier="Of3OXoD9vw"/>
      <point x="278" y="281" identifier="8OJRX4pj4x"/>
      <point x="314" y="260" identifier="b1YMFzKnXm"/>
      <point x="314" y="215" type="curve" smooth="yes" identifier="92gnEozN2n"/>
      <point x="314" y="194" identifier="oznbviOg2N"/>
      <point x="306" y="177" identifier="PnfFoRg7Te"/>
      <point x="272" y="142" type="curve" smooth="yes" identifier="Nv9fxe6DRx"/>
      <point x="243" y="112" identifier="gFgWWo3mr0"/>
      <point x="205" y="79" identifier="cGvi5lTJXg"/>
      <point x="194" y="7" type="curve" smooth="yes" identifier="odQv7HJDzl"/>
      <point x="184" y="-59" identifier="BKd6lROf2T"/>
      <point x="183" y="-66" identifier="ddadlWWn2k"/>
      <point x="183" y="-74" type="curve" smooth="yes" identifier="KQo0Vbm3jY"/>
      <point x="183" y="-110" identifier="6NXheHiqsQ"/>
      <point x="205" y="-138" identifier="x5y0moyZHK"/>
      <point x="253" y="-138" type="curve" smooth="yes" identifier="DiNA2LqViC"/>
    </contour>
  </outline>
</glyph>
<glyph name="bar" format="2">
  <advance width="600"/>
  <unicode hex="007C"/>
  <outline>
    <contour>
      <point x="268" y="-138" type="line" identifier="rgjNWwaHmV"/>
      <point x="418" y="760" type="line" identifier="scGf9FrMum"/>
      <point x="350" y="760" type="line" identifier="KdJovuxZiI"/>
      <point x="200" y="-138" type="line" identifier="7zlvXRC96d"/>
    </contour>
  </outline>
</glyph>
<glyph name="braceright" format="2">
  <advance width="600"/>
  <unicode hex="007D"/>
  <outline>
    <contour>
      <point x="193" y="760" type="line" identifier="gD0sIHYq6d"/>
      <point x="183" y="699" type="line" identifier="8PgVhC4FQq"/>
      <point x="372" y="699" type="line" identifier="lzJxfBSDQT"/>
      <point x="359" y="621" type="line" smooth="yes" identifier="GSomGZpXZu"/>
      <point x="350" y="566" identifier="OB3mTEZNwH"/>
      <point x="328" y="543" identifier="RCn19SS4CF"/>
      <point x="302" y="515" type="curve" smooth="yes" identifier="WcAAiEpswd"/>
      <point x="266" y="476" identifier="1Fo3OMu6Wi"/>
      <point x="237" y="445" identifier="pa4nwcM2Y7"/>
      <point x="237" y="400" type="curve" smooth="yes" identifier="i94VE8Icka"/>
      <point x="237" y="353" identifier="zyU3JWD8Tl"/>
      <point x="269" y="322" identifier="ac8imFvvaH"/>
      <point x="328" y="315" type="curve" identifier="Zw7jlSmIvp"/>
      <point x="328" y="311" type="line" identifier="b1BvRGoVUf"/>
      <point x="245" y="298" identifier="aUlNHURS0J"/>
      <point x="203" y="256" identifier="6o6zBK4ZbF"/>
      <point x="203" y="197" type="curve" smooth="yes" identifier="Tihex1VAUs"/>
      <point x="203" y="160" identifier="8QtfiqaUoG"/>
      <point x="220" y="132" identifier="HCArjhgNLg"/>
      <point x="234" y="107" type="curve" smooth="yes" identifier="jvu23dRVyA"/>
      <point x="246" y="85" identifier="Ib4vfEFbUH"/>
      <point x="259" y="66" identifier="QvTcMJyqDm"/>
      <point x="259" y="32" type="curve" smooth="yes" identifier="siGwQHUrAC"/>
      <point x="259" y="23" identifier="HMJMcs86qu"/>
      <point x="258" y="12" identifier="AIXUvVjNPZ"/>
      <point x="243" y="-77" type="curve" identifier="OuMbTfqkIS"/>
      <point x="53" y="-77" type="line" identifier="WVqEv4hVUt"/>
      <point x="43" y="-138" type="line" identifier="FVXQVrY3Ov"/>
      <point x="218" y="-138" type="line" smooth="yes" identifier="9OlFrFJLTB"/>
      <point x="271" y="-138" identifier="OOTDdW2ofI"/>
      <point x="307" y="-103" identifier="HIZQHUu7BB"/>
      <point x="314" y="-57" type="curve" smooth="yes" identifier="WIdlRJmH3A"/>
      <point x="326" y="19" identifier="JgcX8I8pZN"/>
      <point x="327" y="30" identifier="fiN0wPaQBp"/>
      <point x="327" y="41" type="curve" smooth="yes" identifier="EUgUZygVOW"/>
      <point x="327" y="91" identifier="cijiiaa58N"/>
      <point x="307" y="116" identifier="4BYC6jffka"/>
      <point x="291" y="142" type="curve" smooth="yes" identifier="0sTV3ZDsAu"/>
      <point x="277" y="164" identifier="FWYltkdYPc"/>
      <point x="271" y="180" identifier="78xfqlOjSC"/>
      <point x="271" y="199" type="curve" smooth="yes" identifier="WfB44sHPda"/>
      <point x="271" y="253" identifier="oMphlSsdJi"/>
      <point x="317" y="281" identifier="uyR5LVRNpN"/>
      <point x="402" y="281" type="curve" smooth="yes" identifier="R2ZiWX4JXv"/>
      <point x="499" y="281" type="line" identifier="VBjBmQNBWL"/>
      <point x="509" y="341" type="line" identifier="NCUdusSnw5"/>
      <point x="412" y="341" type="line" smooth="yes" identifier="MOHSYOTuxJ"/>
      <point x="342" y="341" identifier="qMv6nUBmzl"/>
      <point x="306" y="362" identifier="hLqMC5VVav"/>
      <point x="306" y="407" type="curve" smooth="yes" identifier="GlrcoSCXkk"/>
      <point x="306" y="428" identifier="g4SeuHqVdW"/>
      <point x="314" y="445" identifier="9SrssR3ec4"/>
      <point x="348" y="480" type="curve" smooth="yes" identifier="uVKLlChWhK"/>
      <point x="377" y="510" identifier="Lbj39xA7XV"/>
      <point x="415" y="543" identifier="BERa25i5ME"/>
      <point x="426" y="615" type="curve" smooth="yes" identifier="iF6PMo8O1k"/>
      <point x="436" y="681" identifier="Lte8mPRuv2"/>
      <point x="437" y="688" identifier="w1Va3JN00N"/>
      <point x="437" y="696" type="curve" smooth="yes" identifier="GdihgMX2eu"/>
      <point x="437" y="732" identifier="xmmA1DlZB1"/>
      <point x="415" y="760" identifier="ljxDz2V48c"/>
      <point x="367" y="760" type="curve" smooth="yes" identifier="FslQjLRbJo"/>
    </contour>
  </outline>
</glyph>
<glyph name="asciitilde" format="2">
  <advance width="600"/>
  <unicode hex="007E"/>
  <outline>
    <contour>
      <point x="398" y="197" type="curve" smooth="yes" identifier="Zhaf5BE1Vq"/>
      <point x="483" y="197" identifier="jKixXCCRMk"/>
      <point x="535" y="286" identifier="pYwrc1JV4h"/>
      <point x="569" y="385" type="curve" identifier="ckQwKwdRSC"/>
      <point x="508" y="403" type="line" identifier="xkJCrr7qAu"/>
      <point x="484" y="341" identifier="sNtoardZgd"/>
      <point x="455" y="264" identifier="NSTuZZ8YQJ"/>
      <point x="402" y="264" type="curve" smooth="yes" identifier="c94AC0aAAh"/>
      <point x="364" y="264" identifier="yAM8tVBz3Y"/>
      <point x="346" y="308" identifier="IN71uTNYrM"/>
      <point x="323" y="343" type="curve" smooth="yes" identifier="QxFd8rnGpk"/>
      <point x="299" y="379" identifier="FfKDqHExKV"/>
      <point x="272" y="413" identifier="6HnEtSnVag"/>
      <point x="217" y="413" type="curve" smooth="yes" identifier="6bWpos26dU"/>
      <point x="131" y="413" identifier="rpK4lc0xNN"/>
      <point x="80" y="324" identifier="ibFUmBwgnt"/>
      <point x="46" y="225" type="curve" identifier="d4pVUTGSkZ"/>
      <point x="107" y="207" type="line" identifier="H5eBTZrfXB"/>
      <point x="131" y="269" identifier="icJ5zDbXON"/>
      <point x="160" y="346" identifier="clH0pfdyxi"/>
      <point x="213" y="346" type="curve" smooth="yes" identifier="NTIYlGpoRS"/>
      <point x="251" y="346" identifier="ew56f9wjP4"/>
      <point x="269" y="302" identifier="ZSLSFelGA5"/>
      <point x="292" y="267" type="curve" smooth="yes" identifier="7QspWLebmR"/>
      <point x="316" y="231" identifier="aGYc4RJ4UB"/>
      <point x="343" y="197" identifier="YLwcVIBjIv"/>
    </contour>
  </outline>
</glyph>
<glyph name="exclamdown" format="2">
  <advance width="600"/>
  <unicode hex="00A1"/>
  <outline>
    <contour>
      <point x="269" y="-182" type="line" identifier="YGEdi0B7fp"/>
      <point x="303" y="21" type="line" identifier="ZaUDFdv5mQ"/>
      <point x="320" y="283" type="line" identifier="5g8Bic2mX0"/>
      <point x="289" y="283" type="line" identifier="wuOTv3aMjF"/>
      <point x="217" y="21" type="line" identifier="WjC8yDhzxm"/>
      <point x="183" y="-182" type="line" identifier="UO26o60SMy"/>
    </contour>
    <contour>
      <point x="323" y="389" type="curve" smooth="yes" identifier="EueVSh2Dav"/>
      <point x="376" y="389" identifier="jE4JWN8tKa"/>
      <point x="398" y="412" identifier="AE4VMeW5Fy"/>
      <point x="404" y="448" type="curve" smooth="yes" identifier="Z1TZEZHupj"/>
      <point x="407" y="466" identifier="eVbtdBuy8b"/>
      <point x="408" y="475" identifier="UZIogzlgBF"/>
      <point x="408" y="481" type="curve" smooth="yes" identifier="L0yMXjxf8g"/>
      <point x="408" y="506" identifier="eXs67oe4jh"/>
      <point x="390" y="525" identifier="4yZsH6LotK"/>
      <point x="343" y="525" type="curve" smooth="yes" identifier="EHUmn7nVfJ"/>
      <point x="290" y="525" identifier="wNGV2rHZEH"/>
      <point x="268" y="502" identifier="7E3yUdzQBH"/>
      <point x="262" y="466" type="curve" smooth="yes" identifier="bG2x28tFoM"/>
      <point x="259" y="448" identifier="jW1XPum4L3"/>
      <point x="258" y="439" identifier="b94ClhJAyJ"/>
      <point x="258" y="433" type="curve" smooth="yes" identifier="d8UnNj9ovp"/>
      <point x="258" y="408" identifier="a0eauT2Reh"/>
      <point x="276" y="389" identifier="5iRsjwJrmp"/>
    </contour>
  </outline>
</glyph>
<glyph name="cent" format="2">
  <advance width="600"/>
  <unicode hex="00A2"/>
  <outline>
    <contour>
      <point x="209" y="-114" type="line" identifier="Xa8iCfqqlL"/>
      <point x="271" y="-114" type="line" identifier="0IVn6XQdH5"/>
      <point x="288" y="-11" type="line" identifier="a10GONzPro"/>
      <point x="385" y="-5" identifier="iU2DDLgpvb"/>
      <point x="446" y="50" identifier="xMDeM7IHJB"/>
      <point x="508" y="149" type="curve" identifier="AyI0lhOREt"/>
      <point x="452" y="182" type="line" identifier="FlS14tMlA4"/>
      <point x="380" y="84" identifier="RNEPJ5NOuN"/>
      <point x="338" y="61" identifier="jho3fwYifM"/>
      <point x="298" y="57" type="curve" identifier="bCkReVIGQI"/>
      <point x="364" y="458" type="line" identifier="ue98gypIVI"/>
      <point x="409" y="451" identifier="XepXgnXri5"/>
      <point x="437" y="429" identifier="DV5fTQf8kE"/>
      <point x="454" y="378" type="curve" identifier="3BYQnJbobZ"/>
      <point x="521" y="404" type="line" identifier="UuL1MI2TC1"/>
      <point x="505" y="464" identifier="RwhdfTVLfY"/>
      <point x="462" y="514" identifier="jz9WXpw7g2"/>
      <point x="378" y="525" type="curve" identifier="6Lh9l45kb5"/>
      <point x="395" y="630" type="line" identifier="mebO2UoOgy"/>
      <point x="333" y="630" type="line" identifier="prmLEzFrlw"/>
      <point x="316" y="526" type="line" identifier="MWkmEFhS4k"/>
      <point x="180" y="513" identifier="4bfHNhVymD"/>
      <point x="75" y="391" identifier="ysnhebTB0v"/>
      <point x="75" y="206" type="curve" smooth="yes" identifier="9ySyF1USqE"/>
      <point x="75" y="92" identifier="6tubDBBPnJ"/>
      <point x="127" y="10" identifier="Qsj17DwGs2"/>
      <point x="226" y="-8" type="curve" identifier="IJrHZ1zJDr"/>
    </contour>
    <contour>
      <point x="154" y="185" type="curve" smooth="yes" identifier="4oWOBYT5mr"/>
      <point x="154" y="198" identifier="CSSLvQxA3G"/>
      <point x="155" y="209" identifier="3lyflZ3GUP"/>
      <point x="159" y="233" type="curve" smooth="yes" identifier="0YhHIk0Ntr"/>
      <point x="169" y="293" type="line" smooth="yes" identifier="31g5oeThql"/>
      <point x="185" y="390" identifier="0USvAkQCGm"/>
      <point x="234" y="448" identifier="gqi194x2I8"/>
      <point x="306" y="458" type="curve" identifier="Zrvx77Wlp6"/>
      <point x="240" y="60" type="line" identifier="Z5sN7m2gEn"/>
      <point x="187" y="73" identifier="wx7WMqIcik"/>
      <point x="154" y="113" identifier="4OwJdJpXkz"/>
    </contour>
  </outline>
</glyph>
<glyph name="sterling" format="2">
  <advance width="600"/>
  <unicode hex="00A3"/>
  <outline>
    <contour>
      <point x="463" y="-12" type="curve" smooth="yes" identifier="Tn1CpSqL59"/>
      <point x="518" y="-12" identifier="4ozWffUSkC"/>
      <point x="547" y="24" identifier="6YCoMh7iI0"/>
      <point x="547" y="75" type="curve" smooth="yes" identifier="puqf49QIqC"/>
      <point x="547" y="107" identifier="mSd1uxD2UN"/>
      <point x="536" y="148" identifier="MwEXgdoRUv"/>
      <point x="521" y="184" type="curve" smooth="yes" identifier="9JEbbEP1uE"/>
      <point x="505" y="222" type="line" identifier="07s4i3O090"/>
      <point x="443" y="203" type="line" identifier="OWITWURggA"/>
      <point x="475" y="73" type="line" identifier="ZIOYhRVEPb"/>
      <point x="464" y="62" type="line" identifier="6Uq33S7pjP"/>
      <point x="138" y="125" type="line" identifier="OOzxzHzq2x"/>
      <point x="140" y="129" type="line" identifier="mlPx1l48An"/>
      <point x="210" y="138" identifier="Kw8EDDzD7G"/>
      <point x="237" y="203" identifier="p8YShmjM9r"/>
      <point x="237" y="268" type="curve" smooth="yes" identifier="pYbBHZZxjt"/>
      <point x="237" y="280" identifier="AfeiwTQ0sc"/>
      <point x="236" y="295" identifier="Ysn93PdIvS"/>
      <point x="234" y="306" type="curve" identifier="XoqbEaPJ8T"/>
      <point x="391" y="306" type="line" identifier="qcJVETp5Ql"/>
      <point x="402" y="374" type="line" identifier="eVZqgIO8jz"/>
      <point x="222" y="374" type="line" identifier="g5ksQzck5A"/>
      <point x="217" y="398" identifier="DCroVGWlfp"/>
      <point x="214" y="422" identifier="EmVsPe5bWA"/>
      <point x="214" y="450" type="curve" smooth="yes" identifier="I6gjR7E4II"/>
      <point x="214" y="570" identifier="8sOvbO4O1Q"/>
      <point x="269" y="641" identifier="CRBoDeZOoN"/>
      <point x="368" y="641" type="curve" smooth="yes" identifier="t9ZCCNMRCn"/>
      <point x="449" y="641" identifier="fazSi3bplg"/>
      <point x="487" y="595" identifier="i1TRc6xXvZ"/>
      <point x="503" y="539" type="curve" identifier="1fAOeivbTt"/>
      <point x="574" y="567" type="line" identifier="4OfyAndVsJ"/>
      <point x="562" y="634" identifier="cOYWahXviD"/>
      <point x="499" y="710" identifier="PhaIH1CwWc"/>
      <point x="373" y="710" type="curve" smooth="yes" identifier="E1FkPUXrYZ"/>
      <point x="228" y="710" identifier="HBzcYPaF3k"/>
      <point x="131" y="604" identifier="4jiRwcp4x5"/>
      <point x="131" y="458" type="curve" smooth="yes" identifier="6f4ySlfsGw"/>
      <point x="131" y="428" identifier="k2ZLDRdyWq"/>
      <point x="135" y="401" identifier="G6L5rpRA1e"/>
      <point x="141" y="374" type="curve" identifier="oZ5JDXk5wu"/>
      <point x="63" y="374" type="line" identifier="yytkNddlQk"/>
      <point x="52" y="306" type="line" identifier="75AysV31Bf"/>
      <point x="153" y="306" type="line" identifier="RkAq1PGgY6"/>
      <point x="155" y="294" identifier="WxZmgudjrx"/>
      <point x="156" y="280" identifier="hgoq7EPCXf"/>
      <point x="156" y="265" type="curve" smooth="yes" identifier="Kpoup0MlKo"/>
      <point x="156" y="159" identifier="UdTav6wMVs"/>
      <point x="104" y="113" identifier="rrWdZ0Qe9B"/>
      <point x="30" y="79" type="curve" identifier="fUW1v0qiyM"/>
      <point x="18" y="0" type="line" identifier="bvHHViHLil"/>
      <point x="101" y="0" type="line" identifier="EmHnX7HToZ"/>
      <point x="111" y="65" type="line" identifier="vMZDJ0fDJK"/>
      <point x="338" y="12" type="line" smooth="yes" identifier="MEG87ikDVE"/>
      <point x="384" y="1" identifier="6vlbnYDy5q"/>
      <point x="430" y="-12" identifier="97HYKp47Hx"/>
    </contour>
  </outline>
</glyph>
<glyph name="currency" format="2">
  <advance width="600"/>
  <unicode hex="00A4"/>
  <outline>
    <contour>
      <point x="280" y="119" type="curve" smooth="yes" identifier="V85GjIjTzR"/>
      <point x="316" y="119" identifier="PyFMD2ZOdO"/>
      <point x="348" y="125" identifier="1V0rbb1jSj"/>
      <point x="376" y="138" type="curve" identifier="rCRvEMi7u5"/>
      <point x="425" y="23" type="line" identifier="LDWj0y84Gv"/>
      <point x="487" y="56" type="line" identifier="ZhSFurYsYw"/>
      <point x="435" y="178" type="line" identifier="OkWHRcyDjE"/>
      <point x="475" y="217" identifier="VlYVoZvJDO"/>
      <point x="502" y="273" identifier="osP2jeiMcy"/>
      <point x="514" y="343" type="curve" smooth="yes" identifier="oN3VbGK1GA"/>
      <point x="517" y="362" identifier="1IFkMuCIxT"/>
      <point x="519" y="379" identifier="JjGAQLWPkq"/>
      <point x="519" y="396" type="curve" smooth="yes" identifier="BrBumRDCBm"/>
      <point x="519" y="442" identifier="SYmarzoRFe"/>
      <point x="508" y="481" identifier="cSBCBZfKzQ"/>
      <point x="487" y="512" type="curve" identifier="wzc4EZqwAD"/>
      <point x="585" y="638" type="line" identifier="Pj3943OYRV"/>
      <point x="525" y="675" type="line" identifier="1GDvWgmzE0"/>
      <point x="435" y="558" type="line" identifier="JaGm3r2Ngk"/>
      <point x="412" y="571" identifier="lYnHeXg394"/>
      <point x="380" y="579" identifier="KjplseMn6S"/>
      <point x="345" y="579" type="curve" smooth="yes" identifier="KPVln9z7Z9"/>
      <point x="309" y="579" identifier="AiF58wuSW0"/>
      <point x="277" y="573" identifier="qYm8B5Ibvq"/>
      <point x="249" y="560" type="curve" identifier="CvyC3t8DPF"/>
      <point x="200" y="675" type="line" identifier="nKi2HTobcJ"/>
      <point x="138" y="642" type="line" identifier="9rdBOjrY5f"/>
      <point x="190" y="520" type="line" identifier="27YitmeSRY"/>
      <point x="150" y="481" identifier="mhpadPJ33z"/>
      <point x="123" y="425" identifier="zyqfg85oiu"/>
      <point x="111" y="355" type="curve" smooth="yes" identifier="YqrORsePTK"/>
      <point x="108" y="336" identifier="ruEGC9RNTn"/>
      <point x="106" y="319" identifier="7GOxdOvmm9"/>
      <point x="106" y="302" type="curve" smooth="yes" identifier="VEBlJNqNx5"/>
      <point x="106" y="256" identifier="Zn5DVxtYN9"/>
      <point x="117" y="217" identifier="dEj0l3DDBx"/>
      <point x="138" y="186" type="curve" identifier="MqUYs1ZTFp"/>
      <point x="40" y="60" type="line" identifier="yPY3kDJqNm"/>
      <point x="100" y="23" type="line" identifier="0BH24RR8sH"/>
      <point x="190" y="140" type="line" identifier="PJBtvVhjrl"/>
      <point x="213" y="127" identifier="Xs5kMqwmFM"/>
      <point x="245" y="119" identifier="OuGESWYDTy"/>
    </contour>
    <contour>
      <point x="285" y="185" type="curve" smooth="yes" identifier="2d5xxLubuH"/>
      <point x="225" y="185" identifier="yWbD6sVuIj"/>
      <point x="186" y="218" identifier="MqCJHsstOv"/>
      <point x="186" y="283" type="curve" smooth="yes" identifier="LEAJQmP588"/>
      <point x="186" y="294" identifier="O2IbQ5BodK"/>
      <point x="187" y="307" identifier="GSD7ng8nkD"/>
      <point x="189" y="319" type="curve" smooth="yes" identifier="kHYTSnZjtJ"/>
      <point x="199" y="381" type="line" smooth="yes" identifier="1u5N2zEt6K"/>
      <point x="214" y="469" identifier="2YRPKGWQ3N"/>
      <point x="269" y="513" identifier="VM4CAmfYQ7"/>
      <point x="340" y="513" type="curve" smooth="yes" identifier="9AhsJPtx0J"/>
      <point x="400" y="513" identifier="nKbz1276zW"/>
      <point x="439" y="480" identifier="PVNlWf8hQT"/>
      <point x="439" y="415" type="curve" smooth="yes" identifier="DfLlyvFdy9"/>
      <point x="439" y="404" identifier="uVKRo8IUtk"/>
      <point x="438" y="391" identifier="ahKYvbPJNu"/>
      <point x="436" y="379" type="curve" smooth="yes" identifier="ebfbO8APkd"/>
      <point x="426" y="317" type="line" smooth="yes" identifier="GwtEWfcHaP"/>
      <point x="411" y="229" identifier="2Au2g4P2AA"/>
      <point x="356" y="185" identifier="UmenVqrn75"/>
    </contour>
  </outline>
</glyph>
<glyph name="yen" format="2">
  <advance width="600"/>
  <unicode hex="00A5"/>
  <outline>
    <contour>
      <point x="33" y="0" type="line" identifier="8nStA34oRr"/>
      <point x="483" y="0" type="line" identifier="AAdjeB49Oz"/>
      <point x="494" y="68" type="line" identifier="0lQgGTHe3E"/>
      <point x="307" y="68" type="line" identifier="iVNvR8kXjp"/>
      <point x="339" y="256" type="line" identifier="oZU7Wc6gIu"/>
      <point x="525" y="256" type="line" identifier="kauXntENjO"/>
      <point x="536" y="324" type="line" identifier="ROMkZJjUus"/>
      <point x="394" y="324" type="line" identifier="VfpVZ5AbVM"/>
      <point x="651" y="698" type="line" identifier="2JONzBm5wv"/>
      <point x="556" y="698" type="line" identifier="yfejV97B5r"/>
      <point x="309" y="324" type="line" identifier="qmUaFvthKP"/>
      <point x="305" y="324" type="line" identifier="RN4zjh8Ohz"/>
      <point x="184" y="698" type="line" identifier="wgbYiaTElV"/>
      <point x="97" y="698" type="line" identifier="dLmQQ9ONUC"/>
      <point x="228" y="324" type="line" identifier="le9i8ISETg"/>
      <point x="86" y="324" type="line" identifier="BYbrEJYg8C"/>
      <point x="75" y="256" type="line" identifier="pSsFivODGV"/>
      <point x="261" y="256" type="line" identifier="3wKY6BTc9e"/>
      <point x="229" y="68" type="line" identifier="NUpYgsgOfw"/>
      <point x="44" y="68" type="line" identifier="xFJgA5NTa0"/>
    </contour>
  </outline>
</glyph>
<glyph name="brokenbar" format="2">
  <advance width="600"/>
  <unicode hex="00A6"/>
  <outline>
    <contour>
      <point x="358" y="400" type="line" identifier="l8l44vTSNg"/>
      <point x="418" y="760" type="line" identifier="I7dHLCLaSn"/>
      <point x="350" y="760" type="line" identifier="fCpgfTAGef"/>
      <point x="290" y="400" type="line" identifier="bk26qdIiZD"/>
    </contour>
    <contour>
      <point x="268" y="-138" type="line" identifier="nVSLh7XEyR"/>
      <point x="328" y="222" type="line" identifier="isV2jV6qUx"/>
      <point x="260" y="222" type="line" identifier="gp6k9olWCA"/>
      <point x="200" y="-138" type="line" identifier="wz7lJLlAhM"/>
    </contour>
  </outline>
</glyph>
<glyph name="section" format="2">
  <advance width="600"/>
  <unicode hex="00A7"/>
  <outline>
    <contour>
      <point x="449" y="19" type="curve" smooth="yes" identifier="y1Ztzv6aiO"/>
      <point x="449" y="66" identifier="Y2l3YXkhr3"/>
      <point x="430" y="107" identifier="PdVbuqZ59k"/>
      <point x="390" y="134" type="curve" identifier="8a5VD90eBS"/>
      <point x="390" y="141" type="line" identifier="VJwfitb6Pc"/>
      <point x="487" y="166" identifier="tRXGZBziuy"/>
      <point x="530" y="223" identifier="jXOyxxmzTF"/>
      <point x="530" y="297" type="curve" smooth="yes" identifier="hvJmB66dIF"/>
      <point x="530" y="353" identifier="MwUUs0ofDM"/>
      <point x="506" y="405" identifier="QwMbzkiSs2"/>
      <point x="399" y="437" type="curve" smooth="yes" identifier="ceYjkGvyPo"/>
      <point x="339" y="455" type="line" smooth="yes" identifier="y7FmL7YeeI"/>
      <point x="279" y="473" identifier="ZK9PdKxBLM"/>
      <point x="248" y="498" identifier="ILn6rn8Q6E"/>
      <point x="248" y="544" type="curve" smooth="yes" identifier="jRSXumCUmi"/>
      <point x="248" y="601" identifier="nDNij1WDPf"/>
      <point x="298" y="642" identifier="YEDxBid1ht"/>
      <point x="378" y="642" type="curve" smooth="yes" identifier="k9bobUjfCy"/>
      <point x="428" y="642" identifier="uSoWXG7FgK"/>
      <point x="472" y="626" identifier="I2MgnGJhTy"/>
      <point x="500" y="598" type="curve" identifier="6OmUXLlkhK"/>
      <point x="551" y="650" type="line" identifier="iMXJowzp9u"/>
      <point x="513" y="691" identifier="RA1s6yVhXP"/>
      <point x="442" y="710" identifier="4zYmUeRX76"/>
      <point x="379" y="710" type="curve" smooth="yes" identifier="MkjP7ru1n7"/>
      <point x="255" y="710" identifier="HiOtL2knCQ"/>
      <point x="169" y="638" identifier="tml8srLTT6"/>
      <point x="169" y="536" type="curve" smooth="yes" identifier="Nm34nr09dx"/>
      <point x="169" y="489" identifier="ryYHBLm440"/>
      <point x="188" y="448" identifier="dECkvTjI6L"/>
      <point x="228" y="421" type="curve" identifier="MPHheSDbo8"/>
      <point x="228" y="414" type="line" identifier="8XlkW6jPX1"/>
      <point x="131" y="389" identifier="2j5NeQIcTC"/>
      <point x="88" y="332" identifier="qpLKZrR3t4"/>
      <point x="88" y="258" type="curve" smooth="yes" identifier="PwieBeCbFw"/>
      <point x="88" y="202" identifier="kqcgBU4y21"/>
      <point x="112" y="150" identifier="xnQObhka05"/>
      <point x="219" y="118" type="curve" smooth="yes" identifier="Qc7JBtRp7S"/>
      <point x="279" y="100" type="line" smooth="yes" identifier="JsDORmJr9t"/>
      <point x="339" y="82" identifier="hBjkfB6cxa"/>
      <point x="370" y="57" identifier="PVhZqDSwxD"/>
      <point x="370" y="11" type="curve" smooth="yes" identifier="PJCMtDuOMq"/>
      <point x="370" y="-46" identifier="XJTVOIdpYM"/>
      <point x="320" y="-87" identifier="2GbGXiXgRg"/>
      <point x="240" y="-87" type="curve" smooth="yes" identifier="xlJHwzTubn"/>
      <point x="190" y="-87" identifier="vXgbWNf43j"/>
      <point x="146" y="-71" identifier="UgrP211lJD"/>
      <point x="118" y="-43" type="curve" identifier="fyyMk4OobB"/>
      <point x="67" y="-95" type="line" identifier="GERJ7uleHR"/>
      <point x="105" y="-136" identifier="X9LAG4xPEz"/>
      <point x="176" y="-155" identifier="PHqnIlHzCM"/>
      <point x="239" y="-155" type="curve" smooth="yes" identifier="ipsec523R2"/>
      <point x="363" y="-155" identifier="dMQzjSzdxT"/>
      <point x="449" y="-83" identifier="SytUZj9ytF"/>
    </contour>
    <contour>
      <point x="452" y="280" type="curve" smooth="yes" identifier="b58cl1V9A3"/>
      <point x="452" y="225" identifier="IsPXSSRYXW"/>
      <point x="416" y="178" identifier="c9pGDW6Cqh"/>
      <point x="356" y="152" type="curve" identifier="4O3dLLWX4u"/>
      <point x="348" y="155" identifier="8dFBUYnTMv"/>
      <point x="340" y="158" identifier="CsaJLD4B5O"/>
      <point x="331" y="160" type="curve" smooth="yes" identifier="tgkiIApiK1"/>
      <point x="271" y="177" type="line" smooth="yes" identifier="rEYOGMGrYf"/>
      <point x="191" y="200" identifier="p3bBLVsC8r"/>
      <point x="166" y="229" identifier="rEoKrOSaNr"/>
      <point x="166" y="274" type="curve" smooth="yes" identifier="BsJfkzDxB2"/>
      <point x="166" y="329" identifier="eX7ki76B5G"/>
      <point x="202" y="376" identifier="hwWMmqxVfk"/>
      <point x="262" y="402" type="curve" identifier="bnGktYnauC"/>
      <point x="270" y="399" identifier="jhOLLXaHWV"/>
      <point x="278" y="396" identifier="K0sD1S1Dxi"/>
      <point x="287" y="394" type="curve" smooth="yes" identifier="77akOZPjXM"/>
      <point x="347" y="377" type="line" smooth="yes" identifier="yRsLaBwkns"/>
      <point x="427" y="354" identifier="c0YDlUn8O5"/>
      <point x="452" y="325" identifier="JCEuGW0eIJ"/>
    </contour>
  </outline>
</glyph>
<glyph name="dieresis" format="2">
  <advance width="600"/>
  <unicode hex="00A8"/>
  <anchor x="300.0" y="516.0" name="_top"/>
  <outline>
    <contour>
      <point x="226" y="619" type="curve" smooth="yes" identifier="pAZtvWYig7"/>
      <point x="266" y="619" identifier="imsLKB7dfs"/>
      <point x="279" y="636" identifier="6cjT14L8Jp"/>
      <point x="285" y="662" type="curve" smooth="yes" identifier="PkvnxrenN2"/>
      <point x="287" y="671" identifier="aotD9o6Doo"/>
      <point x="289" y="680" identifier="ANpOQvDfQF"/>
      <point x="289" y="687" type="curve" smooth="yes" identifier="HlIxlvm9Dc"/>
      <point x="289" y="706" identifier="KMGxpbUTHB"/>
      <point x="276" y="723" identifier="65A7EaN8tA"/>
      <point x="237" y="723" type="curve" smooth="yes" identifier="aYkjU3RNlt"/>
      <point x="197" y="723" identifier="b2GQKat0vM"/>
      <point x="184" y="706" identifier="yLHBZIhtLR"/>
      <point x="178" y="680" type="curve" smooth="yes" identifier="9X3syU0ijC"/>
      <point x="176" y="671" identifier="dO6jbPtgXd"/>
      <point x="174" y="662" identifier="Hw6usgDtJk"/>
      <point x="174" y="655" type="curve" smooth="yes" identifier="rdlXx95bjt"/>
      <point x="174" y="636" identifier="gws3R1dvFn"/>
      <point x="187" y="619" identifier="D0TP6TEu4Q"/>
    </contour>
    <contour>
      <point x="412" y="619" type="curve" smooth="yes" identifier="xehsAZPEnU"/>
      <point x="452" y="619" identifier="lg5yeg1ROL"/>
      <point x="465" y="636" identifier="6O0fT3vCyS"/>
      <point x="471" y="662" type="curve" smooth="yes" identifier="S3wKfW4jH8"/>
      <point x="473" y="671" identifier="ZJDFpMaJmj"/>
      <point x="475" y="680" identifier="gz4x9APMr5"/>
      <point x="475" y="687" type="curve" smooth="yes" identifier="BhMNARc0WA"/>
      <point x="475" y="706" identifier="bGacEbPpnT"/>
      <point x="462" y="723" identifier="jkqJYhTnJN"/>
      <point x="423" y="723" type="curve" smooth="yes" identifier="OQuZAFgprH"/>
      <point x="383" y="723" identifier="2kORACbacg"/>
      <point x="370" y="706" identifier="nVIbJqYaOX"/>
      <point x="364" y="680" type="curve" smooth="yes" identifier="wO3gmtLrNd"/>
      <point x="362" y="671" identifier="V63HYxcOzc"/>
      <point x="360" y="662" identifier="r5yQN3ctCV"/>
      <point x="360" y="655" type="curve" smooth="yes" identifier="RLfu5LPgKJ"/>
      <point x="360" y="636" identifier="dtAP0ebiFi"/>
      <point x="373" y="619" identifier="R7nJ2TOz9F"/>
    </contour>
  </outline>
</glyph>
